<?xml version="1.0" standalone="no"?>
<!DOCTYPE svg PUBLIC "-//W3C//DTD SVG 1.1//EN" "http://www.w3.org/Graphics/SVG/1.1/DTD/svg11.dtd" >
<svg xmlns="http://www.w3.org/2000/svg" xmlns:xlink="http://www.w3.org/1999/xlink" version="1.1">
<metadata>
Created by FontForge 20141024 at Sat Jun  6 08:12:20 2015
 By System Administrator
Copyright (c) 2010 by FontLab Studio. All rights reserved.
</metadata>
<defs>
<font id="EeenaduWEB" horiz-adv-x="48" >
  <font-face 
    font-family="EeenaduWEB"
    font-weight="400"
    font-stretch="normal"
    units-per-em="1000"
    panose-1="2 0 0 0 0 0 0 0 0 0"
    ascent="800"
    descent="-200"
    x-height="292"
    cap-height="471"
    bbox="-596 -332.25 719 586"
    underline-thickness="50"
    underline-position="-83"
    unicode-range="U+0020-F081"
  />
<missing-glyph horiz-adv-x="46" 
d="M-176 267h-79q-5 0 -9.5 3.5t-4.5 9.5t4.5 9.5t9.5 3.5h79v-26z" />
    <glyph glyph-name=".notdef" horiz-adv-x="46" 
d="M-176 267h-79q-5 0 -9.5 3.5t-4.5 9.5t4.5 9.5t9.5 3.5h79v-26z" />
    <glyph glyph-name="NULL" 
 />
    <glyph glyph-name="nonmarkingreturn" 
 />
    <glyph glyph-name="space" unicode=" " horiz-adv-x="320" 
 />
    <glyph glyph-name="exclam" unicode="!" horiz-adv-x="135" 
d="M36 83h-14l-15 216q-1 10 6.5 18.5t18.5 8.5t17 -8.5t5 -18.5zM60 29q0 -11 -9.5 -20t-21.5 -9q-11 0 -20 8t-9 20t9 21t20 9t21 -9t10 -20z" />
    <glyph glyph-name="quotedbl" unicode="&#x22;" horiz-adv-x="111" 
d="M0 0v278h57v-278h-57z" />
    <glyph glyph-name="numbersign" unicode="#" horiz-adv-x="404" 
d="M168 417q57 2 97 -28.5t64 -76.5t31 -100t-2.5 -101t-35 -78.5t-66.5 -32.5q-19 -1 -32 7t-21 17q-10 11 -15 25q-9 -14 -20 -25q-10 -9 -24.5 -16.5t-33.5 -7.5q-14 0 -27.5 6.5t-24 17t-16.5 24.5t-6 29q0 22 7.5 37.5t17.5 26.5q11 12 25 20q-23 0 -37 -0.5t-22 0
t-12.5 2.5t-8.5 6q-12 13 -4.5 29t24.5 16q26 -6 47 -11q18 -5 34 -10t19 -7q5 -5 5 -10t-2 -8q-3 -4 -7 -7q-16 -4 -27 -13q-10 -8 -18 -20t-8 -29q0 -21 13.5 -35.5t34.5 -14.5q20 0 32 8t18 19q7 11 10 27q0 2 2 4q4 4 9 4t9 -4q2 -2 2 -4q1 -16 6 -27t15.5 -19t30.5 -8
q23 0 39 13.5t25.5 34t13.5 43.5t4 41q0 30 -9 65t-28 65t-48 50t-69 20q11 -12 13.5 -31t-4 -37.5t-21.5 -32t-38 -13.5q-24 0 -40 11t-23 27t-5 35.5t14.5 36t35.5 28t57 12.5zM153 381q-23 0 -37 -13t-17.5 -28t3.5 -28t27 -13q12 0 22 8t14.5 20t2.5 26.5t-15 27.5z" />
    <glyph glyph-name="dollar" unicode="$" 
d="M-112 -125q0 -6 -5 -8q-3 -1 -5 -1h-92q-2 0 -4 1q-4 2 -4 7t4 7l4 2h71q-9 6 -15 13q-6 6 -10.5 15t-4.5 20q0 17 11.5 28.5t29.5 11.5q24 0 40.5 -14.5t25.5 -36.5t9.5 -48t-8.5 -48t-27.5 -36.5t-46.5 -14.5q-14 0 -25 5t-19 11q-9 7 -16 16q-7 -9 -16 -16
q-8 -6 -19.5 -11t-25.5 -5q-29 0 -46.5 14.5t-26 36.5t-8 48t9 48t24 36.5t37.5 14.5q18 0 32.5 -12.5t14.5 -28.5q0 -18 -13.5 -28.5t-33.5 -10.5q-14 0 -24 5t-21 16q-2 0 -5 -16.5t0 -37t16 -37t44 -16.5q15 0 25 5.5t16 12.5q7 8 12 19q1 1 2 3q3 3 6 3t6 -3q1 -2 2 -3
q4 -11 11 -19q6 -7 16 -12.5t25 -5.5q32 0 47.5 22t16.5 48t-12.5 48t-38.5 22q-8 0 -14 -8t-6 -15q0 -11 5.5 -17.5t11.5 -11t11.5 -8.5t5.5 -10zM-243 -71q0 8 -8 16t-19 8q-17 0 -27 -11.5t-10 -17.5q5 -5 11 -9q5 -4 11.5 -6.5t14.5 -2.5q11 0 19 5t8 18z" />
    <glyph glyph-name="uni0025" horiz-adv-x="523" 
d="M270 411q0 -30 -9.5 -54.5t-26 -42.5t-38 -27.5t-45.5 -9.5q-23 0 -43 11t-35 29t-23.5 40.5t-8.5 44.5q0 25 9.5 49t25.5 42.5t36.5 29.5t43.5 11q22 0 43 -11.5t36.5 -29t25 -39.5t9.5 -43zM437 526q-3 -6 -18 -31.5t-37.5 -63t-50.5 -83.5t-56.5 -93t-56 -91.5
t-49 -79t-35 -56t-14.5 -22.5l-9 -3l-18 9q1 3 13.5 24.5t33 55t46.5 76.5t53.5 88t54.5 89t49.5 80.5t38.5 62.5t21 34q8 12 14 10.5t20 -6.5zM457 222q26 -28 32 -61t-2.5 -63t-29 -54t-47 -35t-56.5 -5t-58 36q-26 28 -32 60.5t3 62.5t29.5 54.5t47 35.5t56 5t57.5 -36z
M204 401q0 20 -3.5 39t-10 34t-16 24.5t-21.5 9.5q-16 0 -25 -11.5t-14 -28t-6.5 -33.5t-1.5 -27q0 -19 2.5 -37.5t8.5 -33.5t15.5 -24.5t23.5 -9.5q12 0 21 8.5t15 22t9 31t3 36.5zM413 55q7 14 10.5 43.5t0.5 59.5t-14.5 53t-34.5 23q-13 0 -21.5 -8t-13.5 -19
q-7 -14 -10 -43.5t0.5 -59.5t14.5 -53t34 -23q13 0 21 8t13 19z" />
    <glyph glyph-name="ampersand" unicode="&#x26;" horiz-adv-x="441" 
d="M385 190q0 -24 -5 -56.5t-18.5 -62.5t-36 -50.5t-57.5 -20.5q-22 0 -38 7.5t-27 17.5q-13 11 -22 26q-10 -15 -24 -26q-12 -10 -30 -17.5t-42 -7.5q-41 0 -62.5 23.5t-22.5 52t20 52t65 23.5q17 0 30.5 -4.5t24 -11.5t20 -16t19.5 -19q7 6 13.5 24t6.5 37q0 27 -13.5 53
t-36.5 40q1 -12 -3.5 -26t-13.5 -25.5t-21 -19.5t-26 -8q-35 0 -50 18.5t-12 41t23.5 41t56.5 18.5q26 0 48.5 -11.5t38.5 -30t25 -42.5t9 -49q0 -33 -10.5 -57t-13.5 -27q7 -8 17 -14q8 -5 21 -9.5t30 -4.5q24 0 40.5 15t26.5 36.5t14.5 46t4.5 43.5q0 41 -12 84.5
t-34.5 79.5t-54.5 59t-72 23q11 -11 13.5 -30.5t-4 -38t-21.5 -32t-38 -13.5q-33 0 -50.5 20t-17.5 45.5t19 49t58 31.5q-12 12 -20 27t-8 29q0 31 21 46.5t46 15.5q26 0 42.5 -16.5t16.5 -37.5q0 -11 -10 -15t-18 4q-3 3 -5.5 7.5t-5.5 8.5t-8 7t-14 3q-17 0 -26 -11
t-9 -22t7 -22t18 -21q52 0 93 -27t68.5 -68.5t42 -91t14.5 -94.5zM203 -14q1 -4 2 -10t-1 -11.5t-7.5 -9.5t-15.5 -4q-20 0 -22.5 12.5t0.5 21.5q1 3 4.5 10.5t7.5 15.5q4 9 10 19q6 -10 10 -19q4 -8 7 -15t5 -10zM155 436q-23 0 -37 -13t-17.5 -28t3.5 -28t27 -13
q12 0 22 8t14.5 20.5t2.5 27t-15 26.5zM124 265q-5 2 -10.5 2h-10.5q-20 0 -31.5 -9.5t-14.5 -21.5t4 -21.5t24 -9.5q7 0 16 5.5t15.5 14.5t9 19.5t-1.5 20.5zM164 79q-10 12 -21 23q-11 8 -25 15.5t-33 7.5q-28 0 -41 -12t-12 -26t14.5 -26t38.5 -12q20 0 35 4.5t25 10.5
q11 6 19 15z" />
    <glyph glyph-name="quotesingle" unicode="'" horiz-adv-x="267" 
d="M230 25l-88 87l-89 -87l-19 19l89 88l-89 89l19 19l89 -89l88 89l20 -19l-88 -89l88 -88z" />
    <glyph glyph-name="parenleft" unicode="(" horiz-adv-x="215" 
d="M174 -38v-28.5t-3 -44t-9 -50.5t-18 -47.5t-30.5 -35t-46.5 -13.5q-27 0 -42.5 14.5t-24.5 38.5q-12 -26 -26.5 -38.5t-44.5 -12.5q-29 0 -49.5 16t-20.5 47q0 19 6.5 30t17.5 19q10 7 25 12t29.5 11.5t24.5 16t10 26.5q0 16 -9.5 23t-23.5 7q-23 0 -27.5 -12t-2.5 -20
t-4 -11.5t-13 -3.5q-12 0 -16 8.5t-4 18.5q0 24 17.5 38t41.5 14q28 0 46.5 -17t18.5 -46q0 -22 -11 -36t-25 -22q-16 -10 -36 -14q-15 -4 -24.5 -14.5t-9.5 -21.5q0 -17 15 -26.5t30 -9.5q26 0 40.5 16.5t19.5 40.5q-1 1 0 3q2 4 7 4q4 0 6 -2q1 -1 1 -2q5 -23 18.5 -40.5
t39.5 -17.5q28 0 44.5 18.5t25 45t11 55.5t2.5 50q0 29 -4 66.5t-13 75t-24.5 70.5t-38.5 53q-11 9 -26.5 17.5t-30.5 7.5l-10 -2t-10 -1q-11 0 -20.5 8t-9.5 20t12 19t23 7q26 0 47 -13t41 -33q23 -23 40 -60.5t27.5 -79t15.5 -80t5 -62.5z" />
    <glyph glyph-name="parenright" unicode=")" horiz-adv-x="90" 
d="M73 139q0 -60 -22 -112t-64 -95q17 -20 28.5 -46t11.5 -53q0 -32 -19 -57t-53 -25q-30 0 -46.5 23t-16.5 51q0 34 19.5 57.5t41.5 46.5q-6 11 -20 16.5t-25 5.5q-14 0 -25.5 -8t-11.5 -22q0 -9 3.5 -13.5t3.5 -10.5q0 -7 -5 -12.5t-13 -5.5q-10 0 -15 11t-5 20
q0 28 19 48t47 20q19 0 35 -9t30 -20q17 16 31.5 38.5t24.5 47t15.5 50.5t5.5 50q0 13 -2 27.5t-7 28.5t-13.5 25t-22.5 16q-6 3 -14 4.5t-14.5 4.5t-11 8t-4.5 15q0 11 6.5 18t18.5 7q14 0 25 -6t21 -15q12 -12 20.5 -28t13.5 -34t7 -35.5t2 -31.5zM1 -158q0 9 -3 19.5
t-7.5 21t-10 19t-10.5 12.5q-5 -4 -14 -12.5t-17 -20t-14 -24t-6 -24.5q0 -17 10 -28.5t27 -11.5q20 0 32.5 15.5t12.5 33.5z" />
    <glyph glyph-name="asterisk" unicode="*" horiz-adv-x="399" 
d="M224 408l112 -50q-6 -10 -11.5 -19.5t-10.5 -20.5l-102 72l14 -124q-11 1 -23 1.5t-23 -1.5l11 121l-98 -71q-6 10 -11.5 19.5t-11.5 19.5l112 52l-115 51q16 19 23 41l101 -72l-11 123q25 -2 45 1l-12 -125l100 74q11 -23 24 -41z" />
    <glyph glyph-name="plus" unicode="+" 
d="M-7 -138q0 -35 -17 -60t-52 -25q-29 0 -43 15t-21 32q-7 -20 -22.5 -33.5t-41.5 -13.5q-15 0 -25.5 5.5t-16.5 12.5q-7 8 -11 19q-6 -17 -21 -27t-33 -10q-24 0 -41 17t-17 41t17 41t41 17q21 0 36.5 -13t20.5 -33q4 -10 15.5 -23.5t34.5 -13.5q27 0 40 20t11.5 44.5
t-17 44.5t-45.5 20q-11 0 -15.5 5t-4.5 11.5t4 11.5t11 5q20 0 35.5 -10t27 -26t17.5 -36t6 -40q0 -3 2.5 -11t8.5 -16.5t17.5 -15.5t29.5 -7q27 0 40 20.5t12 44.5t-17 44.5t-47 20.5q-11 0 -16 5t-5 11t4.5 11t12.5 5q21 0 37 -10.5t26.5 -27t16 -36t5.5 -36.5zM-238 -247
q0 -4 -2 -8q-4 -8 -17 -8t-17 8q-2 4 -2 8t2.5 11t6.5 15q4 9 10 18l9 -18q4 -8 7 -15t3 -11zM-274 -157q0 14 -11 24.5t-26 10.5q-16 0 -26.5 -10.5t-10.5 -24.5t10.5 -23.5t26.5 -9.5q15 0 26 9.5t11 23.5z" />
    <glyph glyph-name="comma" unicode="," horiz-adv-x="101" 
d="M76 4q0 -32 -13 -53t-44 -34q-2 1 -6 5.5t-6 6.5q18 8 31.5 22t13.5 34q0 11 -4 18q-4 -2 -8.5 -4t-9.5 -2q-11 0 -20.5 8.5t-9.5 19.5q0 12 9 21t20 9q20 0 33.5 -16.5t13.5 -34.5z" />
    <glyph glyph-name="hyphen" unicode="-" 
 />
    <glyph glyph-name="period" unicode="." horiz-adv-x="209" 
d="M59 27q0 -11 -10 -20.5t-21 -9.5t-19.5 9t-8.5 20q0 13 8.5 21t21.5 8q12 0 20.5 -8t8.5 -20z" />
    <glyph glyph-name="slash" unicode="/" horiz-adv-x="280" 
d="M42 0h-42l164 462h41z" />
    <glyph glyph-name="zero" unicode="0" horiz-adv-x="299" 
d="M249 250q0 -42 -4 -86t-16.5 -80.5t-37 -60t-66.5 -23.5t-66.5 23.5t-37.5 60.5t-17 81t-4 86t4 86t17 80t37.5 59.5t66.5 23.5t66.5 -23.5t37 -60t16.5 -80.5t4 -86zM193 389q0 16 -4.5 31t-13.5 27t-21.5 19.5t-28.5 7.5t-28.5 -7.5t-21.5 -19.5t-14 -27t-5 -31v-278
q0 -16 5 -31.5t14 -27.5t21.5 -19.5t28.5 -7.5t28.5 7.5t21.5 19.5t13.5 27.5t4.5 31.5v278z" />
    <glyph glyph-name="one" unicode="1" horiz-adv-x="246" 
d="M196 21q0 -15 -8 -19q-4 -3 -7 -2h-142q-4 -1 -8 2q-8 4 -8 19q0 7 2 10.5t4 5.5q3 2 7 3h47v374q-10 -7 -21 -13q-10 -5 -21.5 -9.5t-22.5 -4.5q-8 0 -13 4t-5 13q0 7 6 13q2 2 7.5 3t14 4t19.5 10t25 21q12 12 17 21t8 15t7 9t13 3t13.5 -7t4.5 -18v-438h48q3 -1 6 -3
q2 -2 4.5 -5.5t2.5 -10.5z" />
    <glyph glyph-name="two" unicode="2" horiz-adv-x="276" 
d="M226 371q0 -40 -14 -71t-34.5 -55.5t-45 -44t-45 -37t-34.5 -35t-14 -36.5q1 -1 5 0t9 2t9.5 2t6.5 1q14 0 25.5 -7t21.5 -15.5t19 -15.5t18 -7q22 0 30 12.5t10.5 28t4 28t10.5 12.5q10 0 13.5 -21t-2 -45.5t-22.5 -45.5t-47 -21q-22 0 -35 9.5t-22 21.5t-16 21.5
t-16 9.5q-13 0 -16.5 -9.5t-4.5 -21.5t-3.5 -21.5t-14.5 -9.5q-13 0 -17.5 14.5t-4.5 33.5t3 37t5 25q4 15 14 28.5t22 25.5t25 22.5t24 19.5q10 8 18 16.5t16 17.5q23 29 36.5 60.5t13.5 69.5q0 17 -3 35t-11 33t-22 25t-35 10q-14 0 -27.5 -8.5t-23.5 -21.5t-16 -28.5
t-6 -28.5q0 -5 7.5 -5.5t16 -2.5t16 -9t7.5 -23q0 -14 -9.5 -25t-23.5 -11q-21 0 -32 15.5t-13 38.5t5.5 49.5t23.5 47.5t41 33t59 6q50 -9 72.5 -45.5t22.5 -83.5z" />
    <glyph glyph-name="three" unicode="3" horiz-adv-x="275" 
d="M175 368q0 41 -10.5 64.5t-26.5 33t-35 7t-34.5 -13.5t-25.5 -28.5t-9 -37.5l2 -2q22 5 33.5 -5t13 -24.5t-7.5 -27.5t-28 -13q-16 0 -27 13.5t-15 33.5t-0.5 43t16 43t35 33.5t55.5 13.5q50 0 77.5 -28.5t34.5 -67t-6.5 -77t-44.5 -58.5v-2q34 -33 45.5 -79.5t2.5 -89
t-38 -72t-74 -29.5q-31 0 -53 13.5t-35 34t-17.5 44.5t-1.5 44.5t14 34t29 13.5t27 -12.5t8.5 -26.5t-12.5 -24t-36 -5l-3 -6q0 -20 10.5 -38t27 -29.5t36.5 -14.5t38 9q12 8 20.5 28t12 44.5t2.5 51t-7.5 48.5t-18.5 35t-30 12q-5 0 -13.5 -1.5t-17 -0.5t-15 5t-6.5 13
q0 10 6 14t14.5 4t17.5 -1.5t14 -2.5q16 -2 27 6.5t17.5 22t9 29t2.5 26.5z" />
    <glyph glyph-name="four" unicode="4" horiz-adv-x="283" 
d="M229 18q0 -8 -2.5 -11.5t-5.5 -5.5q-4 -2 -7 -1h-107q-4 -1 -8 1q-7 3 -7 17q0 12 6 16q3 2 6 2h32v76h-103q-10 0 -21.5 10t-11.5 27q0 2 6 17.5t15.5 39.5t22 54t25.5 61q31 73 70 165q0 3 4 7q3 3 8.5 5.5t16.5 2.5t16.5 -2.5t5.5 -12.5v-347h32q5 0 7.5 -4t2.5 -9.5
t-2.5 -9.5t-7.5 -4h-34v-76h28q3 0 6 -2q2 -2 4.5 -5.5t2.5 -10.5zM138 401l-105 -246q0 -16 24 -16h81v262z" />
    <glyph glyph-name="five" unicode="5" horiz-adv-x="283" 
d="M224 477q0 -13 -9 -21.5t-22 -14t-27 -7.5t-24 -2q-24 0 -43.5 6.5t-40.5 15.5q-4 -19 -1.5 -43.5t2.5 -43.5q0 -14 -1.5 -27t-1.5 -27q12 14 30.5 22.5t37.5 8.5q34 0 57.5 -21t36 -53t14.5 -72t-7 -77t-28.5 -68t-49.5 -46q-9 -5 -21 -7.5t-22 -2.5q-32 0 -53.5 14
t-34 34.5t-15.5 44.5t2 44.5t17 34.5t30 14t26 -11.5t7.5 -25t-9 -24.5t-24.5 -10q-3 0 -7 1t-6 1q-5 0 -5 -4.5v-6.5q2 -30 19.5 -53.5t49.5 -23.5q23 0 38 13.5t24 33t12.5 42t3.5 40.5q0 13 0.5 40t-4 54t-16 47.5t-36.5 20.5q-20 0 -31.5 -10t-19.5 -21.5t-15 -21.5
t-17 -10q-16 0 -21.5 14t-5.5 32.5t3 36t3 24.5q2 28 0.5 56t-1.5 57q0 18 11 21.5t27.5 0.5t35 -8.5t33.5 -5.5q23 0 44 8.5t33 8.5q22 0 22 -22z" />
    <glyph glyph-name="six" unicode="6" horiz-adv-x="286" 
d="M199 386q4 15 0.5 31t-12.5 29t-23 21.5t-30 8.5q-24 0 -39 -14.5t-24.5 -37t-13.5 -50.5t-5 -55.5t-0.5 -51.5t1.5 -38q10 20 31 37.5t46 17.5q38 0 62 -21t35 -53t9 -68.5t-15.5 -68.5t-38.5 -53t-61 -21q-38 0 -62 22t-37.5 54t-18 69t-3.5 66q0 23 0.5 54t4 63.5
t11.5 63.5t23 55.5t38.5 39.5t59.5 15q30 0 50.5 -13.5t31.5 -33.5t13 -43.5t-2.5 -43.5t-16 -33.5t-27.5 -13.5q-20 0 -28 13t-6 27t14 23.5t33 2.5zM185 152q0 56 -20 81t-44.5 22.5t-44.5 -30.5t-20 -78q0 -57 20 -88.5t44.5 -33t44.5 29t20 97.5z" />
    <glyph glyph-name="seven" unicode="7" horiz-adv-x="280" 
d="M211 501q19 0 18.5 -21t-10.5 -47.5t-22.5 -50t-16.5 -28.5q-19 -60 -26 -125.5t3 -128.5q2 -17 9.5 -37t7.5 -37t-11.5 -24t-25 -2t-24.5 25t-11 58q0 88 16 170.5t55 162.5h-2q-29 -10 -43 -5.5t-22.5 14.5t-14.5 19.5t-19 9.5q-20 0 -23 -13.5t-2 -29.5t0 -29.5
t-16 -13.5q-12 0 -16.5 7.5t-4.5 17.5t1.5 20.5t0.5 17.5q-1 3 -3 11.5t-4 17.5t-3.5 16.5t-1.5 9.5q1 14 6.5 16.5t12.5 -0.5t14 -10t10 -13q19 26 38 24.5t34.5 -14t27 -27.5t16.5 -15q12 0 16.5 8.5t8 18.5t8.5 18.5t19 8.5z" />
    <glyph glyph-name="eight" unicode="8" horiz-adv-x="278" 
d="M227 385q0 -35 -12.5 -67t-43.5 -52v-3q24 -18 37.5 -44.5t17.5 -55.5t-1 -58.5t-19 -53t-36 -38t-52 -14.5q-33 0 -57 15.5t-38.5 39.5t-19.5 54t-0.5 60t19 56t39.5 42q-11 13 -22.5 21.5t-20.5 24.5q-8 14 -11.5 31t-3.5 33q0 42 16.5 71t41.5 43.5t54 15t54 -12.5
t41.5 -40t16.5 -68zM141 283q11 2 20.5 17t14.5 36.5t5 45.5t-7 45t-22.5 34.5t-40.5 13.5q-28 0 -43 -16t-19.5 -39t0.5 -47.5t19 -41.5t33.5 -27.5t39.5 -20.5zM185 120q0 13 -3.5 28.5t-10 30.5t-15 28t-18.5 21q-8 6 -22 15t-23 9q-3 0 -8 -4t-10 -9.5t-9.5 -11
t-5.5 -8.5q-8 -21 -10.5 -34.5t-2.5 -36.5q0 -59 21.5 -89t47.5 -32.5t47.5 21.5t21.5 72z" />
    <glyph glyph-name="nine" unicode="9" horiz-adv-x="286" 
d="M236 290q-1 -23 -1 -54t-3.5 -63.5t-11 -63.5t-22.5 -55.5t-39 -39.5t-59 -15q-31 0 -51 13.5t-31 33.5t-13.5 43.5t2 43.5t15.5 33.5t28 13.5q19 0 27.5 -13t7 -27t-13.5 -23.5t-33 -2.5q-5 -15 -1.5 -31t12.5 -29t23 -21.5t30 -8.5q24 0 39.5 14.5t24.5 37t13 50.5
t5 55.5t0.5 51t-0.5 38.5q-11 -20 -32 -37.5t-45 -17.5q-38 0 -62 21t-35 53t-9.5 68.5t15 68.5t38.5 53t61 21q38 0 62 -22t37 -54.5t17.5 -69t4.5 -65.5zM180 353q0 57 -20 88.5t-44.5 33t-44.5 -29t-20 -97.5q0 -56 20 -81t44.5 -22.5t44.5 30.5t20 78z" />
    <glyph glyph-name="colon" unicode=":" horiz-adv-x="135" 
d="M60 169q0 -13 -9 -22t-22 -9q-11 0 -19.5 9t-8.5 20t9 20.5t20 9.5t20.5 -8.5t9.5 -19.5zM59 27q0 -11 -10 -20.5t-21 -9.5t-19.5 9t-8.5 20q0 13 8.5 21t21.5 8q12 0 20.5 -8t8.5 -20z" />
    <glyph glyph-name="semicolon" unicode=";" horiz-adv-x="151" 
d="M58 167q0 -11 -8.5 -20t-19.5 -9q-12 0 -21 8.5t-9 20.5t8.5 20.5t20.5 8.5t20.5 -9t8.5 -20zM76 4q0 -32 -13 -53t-44 -34q-2 1 -6 5.5t-6 6.5q18 8 31.5 22t13.5 34q0 11 -4 18q-4 -2 -8.5 -4t-9.5 -2q-11 0 -20.5 8.5t-9.5 19.5q0 12 9 21t20 9q20 0 33.5 -16.5
t13.5 -34.5z" />
    <glyph glyph-name="equal" unicode="=" horiz-adv-x="325" 
d="M0 150v50h250v-50h-250zM0 50v50h250v-50h-250z" />
    <glyph glyph-name="greater" unicode="&#x3e;" horiz-adv-x="412" 
d="M324 122q21 0 30 -19t4 -42t-25.5 -42t-60.5 -19q-26 0 -42.5 10t-26.5 23q-11 15 -18 34q-8 -19 -20 -34q-11 -13 -28.5 -23t-43.5 -10q-16 0 -32.5 6t-30 17t-22 26t-8.5 34q0 16 5.5 28t12.5 21q8 10 18 18q10 10 30 14.5t40 9.5t34.5 14t14.5 30q0 26 -18.5 38
t-33.5 12q-16 0 -26 -7.5t-16 -16.5q-7 -11 -10 -23q0 -11 -7 -17.5t-15.5 -7.5t-15.5 5t-7 21q0 18 9.5 32t23.5 23t28.5 13.5t25.5 4.5q27 0 51 -14t32 -42q11 -11 28.5 -25.5t46.5 -14.5q32 0 51.5 18.5t25.5 43t-1 49.5t-28 39q1 -23 -5 -41q-5 -15 -19 -27.5t-43 -12.5
q-25 0 -42.5 15.5t-17.5 41.5q0 15 7 27.5t19 22t27 14.5t30 5q32 0 54.5 -17.5t34 -43t12 -56t-10 -56t-32.5 -43t-56 -17.5q-31 0 -47.5 11t-31.5 27q-5 -23 -22 -32.5t-37 -13t-39 -6t-29 -12.5q-16 -16 -19 -31.5t4 -27.5t21 -19.5t33 -7.5q23 0 38.5 9.5t26.5 21.5
q12 13 20 31q0 2 2.5 5t7.5 3q4 0 6 -3t2 -5q5 -18 16 -31q9 -12 24 -21.5t38 -9.5q26 0 39 6.5t17 14t1.5 14t-7.5 6.5q-8 0 -11.5 5t-3.5 11t4.5 11t13.5 5zM274 358q-5 5 -16.5 5t-23.5 -5t-21 -14.5t-9 -24.5q0 -13 9 -21.5t23 -8.5q17 0 26.5 9t13.5 21t3 23t-5 16z
" />
    <glyph glyph-name="question" unicode="?" horiz-adv-x="329" 
d="M161 253q0 -22 -10.5 -38.5t-25.5 -29.5t-30 -24t-24.5 -22t-9.5 -23t16 -28l-10 -11q-5 0 -13 4.5t-15.5 12.5t-12.5 19t-5 23q0 21 17.5 36t38 29.5t38 29.5t17.5 36q0 23 -14 34t-30.5 11t-30.5 -8.5t-14 -24.5q12 0 18.5 -8.5t6 -18.5t-8 -18.5t-23.5 -8.5
q-18 0 -27 12.5t-9 29.5q0 34 25 51t55.5 15.5t55.5 -21.5t25 -59zM61 56q13 0 20.5 -9t7.5 -20.5t-7 -20.5t-22 -9t-22.5 9t-7.5 20.5t8 20.5t23 9z" />
    <glyph glyph-name="at" unicode="@" horiz-adv-x="412" 
d="M354 454q0 -11 -9.5 -15t-18.5 4q-3 3 -5 7.5t-5 9t-8.5 7.5t-14.5 3q-17 0 -26 -11.5t-9 -22.5q0 -12 10.5 -24t19.5 -23q24 -8 40 -28t23 -45.5t4.5 -53t-14 -50t-32.5 -37t-52 -14.5t-47.5 11t-31.5 27q-5 -23 -22 -32.5t-37 -13t-39 -6t-29 -12.5q-16 -16 -19 -31.5
t4 -27.5t21 -19.5t33 -7.5q23 0 38.5 9.5t26.5 21.5q12 13 20 31q0 2 2.5 5t7.5 3q4 0 6 -3t2 -5q5 -18 16 -31q9 -12 24 -21.5t38 -9.5q26 0 39 6.5t17 14t1.5 14t-7.5 6.5q-8 0 -11.5 5t-3.5 11t4.5 11t13.5 5q21 0 30 -19t4 -42t-25.5 -42t-60.5 -19q-26 0 -42.5 10
t-26.5 23q-11 15 -18 34q-8 -19 -20 -34q-11 -13 -28.5 -23t-43.5 -10q-16 0 -32.5 6t-30 17t-22 26t-8.5 34q0 16 5.5 28t12.5 21q8 10 18 18q10 10 30 14.5t40 9.5t34.5 14t14.5 30q0 26 -18.5 38t-33.5 12q-16 0 -26 -7.5t-16 -16.5q-7 -11 -10 -23q0 -11 -7 -17.5
t-15.5 -7.5t-15.5 5t-7 21q0 18 9.5 32t23.5 23t28.5 13.5t25.5 4.5q27 0 51 -14t32 -42q11 -11 28.5 -25.5t46.5 -14.5q32 0 51.5 18.5t25.5 43t-1 50t-28 39.5q1 -23 -5 -41q-5 -16 -19 -28.5t-43 -12.5q-25 0 -42.5 15.5t-17.5 41.5q0 30 25 49t56 20q-24 27 -24 52
q0 31 20.5 46.5t46.5 15.5q25 0 41.5 -16.5t16.5 -37.5zM274 359q-5 5 -16.5 5t-23.5 -5t-21 -15t-9 -25q0 -13 9 -21.5t23 -8.5q17 0 26.5 9t13.5 21t3 23.5t-5 16.5z" />
    <glyph glyph-name="A" unicode="A" horiz-adv-x="407" 
d="M355 135q0 -33 -16.5 -58t-42 -42.5t-56 -26t-59.5 -8.5q-32 0 -64 8t-58 25t-42.5 43.5t-16.5 62.5q0 18 6 35t17 30.5t26.5 22t35.5 8.5q24 0 41.5 -16t17.5 -41q0 -24 -19.5 -42t-42.5 -18q-13 0 -24.5 6t-22.5 14q0 -14 7 -29.5t23.5 -28t44 -21t68.5 -8.5q37 0 65 8
t46 20.5t27 28.5t9 32q-10 -9 -23.5 -15.5t-27.5 -6.5q-24 0 -43.5 18.5t-19.5 42.5q0 25 19 40.5t44 15.5q20 0 32.5 -8.5t14.5 -10.5q0 29 -8 60.5t-24.5 57t-41.5 42t-59 16.5q5 -11 8 -21.5t3 -21.5q0 -28 -19 -49.5t-48 -21.5q-13 0 -25 5t-21.5 14t-15 20.5t-5.5 24.5
q0 21 9.5 37t24.5 27t34 16.5t38 5.5q52 0 87.5 -21.5t56 -56t28 -78t4.5 -86.5q2 -4 4 -11q2 -6 3 -15.5t1 -24.5zM174 357q0 2 -1.5 8t-3.5 12t-5 11t-6 5q-9 0 -18 -5t-16.5 -12.5t-12 -17t-4.5 -18.5q0 -12 7.5 -20.5t20.5 -8.5q17 0 28 14.5t11 31.5zM320 178
q0 3 -3.5 8.5t-9.5 11t-14 9t-17 3.5q-14 0 -23 -9t-9 -22q0 -14 11 -23t23 -9q7 0 14.5 3.5t13.5 9t10 10.5t4 8zM114 179q0 13 -8.5 22t-22.5 9q-17 0 -30 -12.5t-13 -19.5q0 -3 4 -8t10 -10.5t13.5 -9t14.5 -3.5q12 0 22 9t10 23z" />
    <glyph glyph-name="B" unicode="B" horiz-adv-x="407" 
d="M355 135q0 -33 -16.5 -58t-42 -42.5t-56 -26t-59.5 -8.5q-32 0 -64 8t-58 25t-42.5 43.5t-16.5 62.5q0 18 6 35t17 30.5t26.5 22t35.5 8.5q24 0 41.5 -16t17.5 -41q0 -24 -19.5 -42t-42.5 -18q-13 0 -24.5 6t-22.5 14q0 -14 7 -29.5t23.5 -28t44 -21t68.5 -8.5q37 0 65 8
t46 20.5t27 28.5t9 32q-10 -9 -23.5 -15.5t-27.5 -6.5q-24 0 -43.5 18.5t-19.5 42.5q0 25 19 40.5t44 15.5q20 0 32.5 -8.5t14.5 -10.5q0 29 -8 60.5t-24.5 57t-41.5 42t-59 16.5q5 -11 8 -21.5t3 -21.5q0 -28 -19 -49.5t-48 -21.5q-13 0 -25 5t-21.5 14t-15 20.5t-5.5 24.5
q0 33 22 53.5t51 28.5q-14 13 -22 28t-8 29q0 31 21 46.5t46 15.5t41.5 -16.5t16.5 -37.5q0 -11 -9.5 -15t-18.5 4q-3 3 -5 7.5t-5 8.5t-8.5 7t-14.5 3q-17 0 -25.5 -11t-8.5 -22t9 -21.5t17 -21.5q53 3 89.5 -18t58 -56t30 -79.5t5.5 -88.5q2 -4 4 -11q2 -6 3 -15.5
t1 -24.5zM174 357q0 2 -1.5 8t-3.5 12t-5 11t-6 5q-9 0 -18 -5t-16.5 -12.5t-12 -17t-4.5 -18.5q0 -12 7.5 -20.5t20.5 -8.5q17 0 28 14.5t11 31.5zM320 178q0 3 -3.5 8.5t-9.5 11t-14 9t-17 3.5q-14 0 -23 -9t-9 -22q0 -14 11 -23t23 -9q7 0 14.5 3.5t13.5 9t10 10.5t4 8z
M114 179q0 13 -8.5 22t-22.5 9q-17 0 -30 -12.5t-13 -19.5q0 -3 4 -8t10 -10.5t13.5 -9t14.5 -3.5q12 0 22 9t10 23z" />
    <glyph glyph-name="C" unicode="C" horiz-adv-x="395" 
d="M355 117q0 -18 -5.5 -38.5t-16.5 -38t-28.5 -29t-41.5 -11.5q-21 0 -36.5 11t-25.5 25q-12 16 -20 37q-8 -21 -19 -37q-10 -14 -26 -25t-38 -11q-24 0 -42.5 11.5t-30.5 28.5t-18.5 38t-6.5 39q0 44 23.5 83t60.5 64q-4 0 -10 5t-11.5 13.5t-9.5 18.5t-4 20q0 19 8.5 34
t22.5 26t31.5 17t34.5 6q28 0 52 -10.5t40 -28.5t22.5 -42t-0.5 -51q42 -23 68.5 -65t26.5 -90zM241 294q0 22 -11.5 37t-29 23.5t-37.5 9.5t-37.5 -4.5t-29 -18t-11.5 -31.5q0 -16 5 -21.5t13 -13.5q38 19 75 19q32 0 61 -12q0 4 1 6.5t1 5.5zM318 131q0 26 -12 50.5
t-31.5 44t-45 31t-51.5 11.5t-51 -11.5t-44.5 -31t-31.5 -44t-12 -50.5q0 -32 16.5 -57t47.5 -25q16 0 28 12t21 27q10 17 18 39q0 2 2 4q4 4 9 4t9 -4q2 -2 2 -4q7 -22 17 -39q8 -15 20 -27t28 -12q32 0 46.5 25t14.5 57z" />
    <glyph glyph-name="D" unicode="D" horiz-adv-x="395" 
d="M355 117q0 -18 -5.5 -38.5t-16.5 -38t-28.5 -29t-41.5 -11.5q-21 0 -36.5 11.5t-25.5 25.5q-12 17 -20 38q-8 -21 -19 -38q-10 -14 -25.5 -25.5t-38.5 -11.5q-24 0 -42.5 11.5t-30.5 28.5t-18.5 38t-6.5 39q0 44 23.5 83t60.5 64q-4 0 -10 5t-11.5 13.5t-9.5 18.5t-4 20
q0 34 25.5 55.5t57.5 26.5q-10 11 -16 24t-6 26q0 31 20.5 46.5t46.5 15.5q25 0 41.5 -16.5t16.5 -37.5q0 -11 -9.5 -15t-18.5 4q-3 3 -5 7.5t-5 8.5t-8.5 7t-14.5 3q-17 0 -26 -11t-9 -22q0 -10 8 -20.5t16 -19.5q25 -3 46 -14.5t34.5 -29t18 -40t-1.5 -47.5
q42 -23 68.5 -65t26.5 -90zM241 294q0 22 -11.5 37t-29 23.5t-37.5 9.5t-37.5 -4.5t-29 -18t-11.5 -31.5q0 -16 5 -21.5t13 -13.5q38 19 75 19q32 0 61 -12q0 4 1 6.5t1 5.5zM318 131q0 26 -12 50.5t-31.5 44t-45 31t-51.5 11.5t-51 -11.5t-44.5 -31t-31.5 -44t-12 -50.5
q0 -32 16.5 -57t47.5 -25q16 0 28 12t21 27q10 17 18 39q0 2 2 4q4 4 9 4t9 -4q2 -2 2 -4q7 -22 17 -39q8 -15 20 -27t28 -12q32 0 46.5 25t14.5 57z" />
    <glyph glyph-name="E" unicode="E" horiz-adv-x="391" 
d="M339 151q0 -22 -3.5 -48.5t-15 -49t-32 -38t-53.5 -15.5q-25 0 -41.5 11t-28 27t-20 35t-18 35t-22 27t-30.5 11t-30 -13t-12 -30q0 -15 7 -26t15 -20t15 -17t7 -17q0 -11 -8 -17t-19 -6q-13 0 -22.5 10t-15.5 24.5t-9 29.5t-3 25q0 32 19.5 57.5t54.5 25.5
q32 0 49.5 -19t32 -42.5t31.5 -42.5t48 -19q24 0 38.5 11t22 27t10 33.5t2.5 30.5q0 34 -11 72t-32.5 69.5t-53 52t-71.5 20.5q12 -11 14 -30.5t-4.5 -38t-21.5 -32t-38 -13.5q-24 0 -40 11t-22.5 27.5t-4.5 36t14.5 36t35 27.5t56.5 11q51 0 90 -26t66 -64t40.5 -81.5
t13.5 -77.5zM115 365q-23 0 -37 -13t-17.5 -28t3 -28t26.5 -13q12 0 22 8t15 20.5t2.5 27t-14.5 26.5z" />
    <glyph glyph-name="F" unicode="F" horiz-adv-x="391" 
d="M339 151q0 -22 -3.5 -48.5t-15 -49t-32 -38t-53.5 -15.5q-25 0 -41.5 11t-28 27t-20 35t-18 35t-22 27t-30.5 11t-30 -13t-12 -30q0 -15 7 -26t15 -20t15 -17t7 -17q0 -11 -8 -17t-19 -6q-13 0 -22.5 10t-15.5 24.5t-9 29.5t-3 25q0 32 19.5 57.5t54.5 25.5
q32 0 49.5 -19t32 -42.5t31.5 -42.5t48 -19q24 0 38.5 11t22 27t10 33.5t2.5 30.5q0 34 -11 72t-32.5 69.5t-53 52t-71.5 20.5q12 -11 14 -30.5t-4.5 -38t-21.5 -32t-38 -13.5q-33 0 -50.5 20t-17.5 45.5t18 49t57 31.5q-12 13 -19 26.5t-7 27.5q0 32 20.5 47.5t46.5 15.5
q25 0 41.5 -17t16.5 -37q0 -11 -10 -15.5t-18 3.5q-3 3 -5 8t-5 9t-8.5 7t-14.5 3q-17 0 -26 -11.5t-9 -21.5q0 -11 8.5 -21.5t16.5 -20.5q47 0 86.5 -22.5t68 -58.5t44 -80.5t15.5 -87.5zM115 365q-23 0 -37 -13t-17.5 -28t3 -28t26.5 -13q12 0 22 8t15 20.5t2.5 27
t-14.5 26.5z" />
    <glyph glyph-name="G" unicode="G" horiz-adv-x="392" 
d="M259 49q32 0 50 28.5t23 71.5t-3 93.5t-28 93.5t-52.5 71.5t-76.5 28.5q11 -11 13 -30.5t-4 -38t-20 -32t-35 -13.5q-22 0 -36.5 11t-21 27.5t-4.5 36t13.5 36t32.5 27.5t52 11q55 0 95.5 -35t65 -87t32.5 -113.5t-0.5 -113.5t-33.5 -87t-68 -35q-20 0 -33.5 10.5
t-22.5 24.5q-11 15 -18 35q-9 -20 -21 -35q-11 -14 -27.5 -24.5t-40.5 -10.5q-31 0 -51.5 13t-30 32.5t-8.5 42t10.5 42t28 32.5t45.5 13q29 0 42 14.5t13 31.5t-11.5 31.5t-30.5 14.5q-20 0 -34 -12t-14 -33q0 -12 -7.5 -18t-17 -5.5t-17 7.5t-7.5 19q0 16 8 28.5t20 21.5
t27 14t29 5q39 0 60 -22.5t22.5 -49t-19 -49t-63.5 -22.5q-27 0 -40 -16t-12.5 -35t15 -35t43.5 -16q23 0 38.5 10.5t24.5 24.5q11 16 15 36q1 2 3 4q4 4 8 4t8 -4l2 -4q8 -29 24.5 -50t45.5 -21zM149 436q-21 0 -33.5 -13t-16.5 -28t2.5 -28t24.5 -13q11 0 20.5 8t14 20.5
t2.5 27t-14 26.5z" />
    <glyph glyph-name="H" unicode="H" horiz-adv-x="392" 
d="M259 49q32 0 50 28.5t23 71.5t-3 93.5t-28 93.5t-52.5 71.5t-76.5 28.5q11 -11 13 -30.5t-4 -38t-20 -32t-35 -13.5q-30 0 -46.5 20t-16.5 45.5t17 49t53 31.5q-24 27 -24 54q0 32 19 47.5t42 15.5t39 -17t16 -37q0 -11 -9 -15.5t-17 4.5q-3 3 -5 7.5t-5 8.5t-7.5 7
t-13.5 3q-16 0 -24 -11.5t-8 -21.5q0 -11 7 -21.5t15 -20.5h4q55 0 95.5 -35t65 -87t32.5 -113.5t-0.5 -113.5t-33.5 -87t-68 -35q-20 0 -33.5 10.5t-22.5 24.5q-11 15 -18 35q-9 -20 -21 -35q-11 -14 -27.5 -24.5t-40.5 -10.5q-31 0 -51.5 13t-30 32.5t-8.5 42t10.5 42
t28 32.5t45.5 13q29 0 42 14.5t13 31.5t-11.5 31.5t-30.5 14.5q-20 0 -34 -12t-14 -33q0 -12 -7.5 -18t-17 -5.5t-17 7.5t-7.5 19q0 16 8 28.5t20 21.5t27 14t29 5q39 0 60 -22.5t22.5 -49t-19 -49t-63.5 -22.5q-27 0 -40 -16t-12.5 -35t15 -35t43.5 -16q23 0 38.5 10.5
t24.5 24.5q11 16 15 36q1 2 3 4q4 4 8 4t8 -4l2 -4q8 -29 24.5 -50t45.5 -21zM149 436q-21 0 -33.5 -13t-16.5 -28t2.5 -28t24.5 -13q11 0 20.5 8t14 20.5t2.5 27t-14 26.5z" />
    <glyph glyph-name="I" unicode="I" horiz-adv-x="436" 
d="M385 190q0 -24 -5 -56.5t-18.5 -62.5t-36 -50.5t-57.5 -20.5q-22 0 -38 7.5t-27 17.5q-13 11 -22 26q-10 -15 -24 -26q-12 -10 -30 -17.5t-42 -7.5q-41 0 -62.5 23.5t-22.5 52t20 52t65 23.5q17 0 30.5 -4.5t24 -11.5t20 -16t19.5 -19q7 6 13.5 24t6.5 37q0 27 -13.5 53
t-36.5 40q1 -12 -3.5 -26t-13.5 -25.5t-21 -19.5t-26 -8q-35 0 -50 18.5t-12 41t23.5 41t56.5 18.5q26 0 48.5 -11.5t38.5 -30t25 -42.5t9 -49q0 -33 -10.5 -57t-13.5 -27q7 -8 17 -14q8 -5 21 -9.5t30 -4.5q24 0 40.5 15t26.5 36.5t14.5 46t4.5 43.5q0 41 -12 84.5
t-34.5 79.5t-54.5 59t-72 23q11 -11 13.5 -30.5t-4 -38t-21.5 -32t-38 -13.5q-24 0 -40 11t-23 27.5t-5 36t14.5 36t35 27.5t56.5 11q51 0 91 -27.5t68 -69t42.5 -91t14.5 -93.5zM203 -14q1 -4 2 -10t-1 -11.5t-7.5 -9.5t-15.5 -4q-20 0 -22.5 12.5t0.5 21.5q1 3 4.5 10.5
t7.5 15.5q4 9 10 19q6 -10 10 -19q4 -8 7 -15t5 -10zM155 436q-23 0 -37 -13t-17.5 -28t3.5 -28t27 -13q12 0 22 8t14.5 20.5t2.5 27t-15 26.5zM124 265q-5 2 -10.5 2h-10.5q-20 0 -31.5 -9.5t-14.5 -21.5t4 -21.5t24 -9.5q7 0 16 5.5t15.5 14.5t9 19.5t-1.5 20.5zM164 79
q-10 12 -21 23q-11 8 -25 15.5t-33 7.5q-28 0 -41 -12t-12 -26t14.5 -26t38.5 -12q20 0 35 4.5t25 10.5q11 6 19 15z" />
    <glyph glyph-name="J" unicode="J" horiz-adv-x="346" 
d="M294 147q0 -30 -11.5 -57t-31.5 -47t-46.5 -31.5t-57.5 -11.5q-30 0 -57 11.5t-47 31.5t-31.5 47t-11.5 57q0 35 16 63t41 54q-15 10 -25.5 24.5t-10.5 32.5q0 19 8.5 34t22.5 26t31 17t35 6q29 0 53 -11t40 -29.5t21.5 -43t-1.5 -52.5q29 -20 46 -51.5t17 -69.5z
M212 294q0 33 -24 50.5t-53.5 19.5t-53.5 -11.5t-24 -42.5q0 -16 4.5 -21.5t13.5 -13.5q35 19 72 19t64 -13q0 4 0.5 6.5t0.5 6.5zM264 157q0 22 -9.5 42t-25.5 35t-37 24t-43 9q-23 0 -44 -9t-37 -24t-25.5 -35t-9.5 -42q0 -24 10 -43.5t26.5 -34t37.5 -22.5t42 -8
q22 0 43 8.5t37 23t25.5 34t9.5 42.5z" />
    <glyph glyph-name="K" unicode="K" horiz-adv-x="346" 
d="M294 147q0 -30 -11.5 -57t-31.5 -47t-46.5 -31.5t-57.5 -11.5q-30 0 -57 11.5t-47 31.5t-31.5 47t-11.5 57q0 35 16 63t41 54q-15 10 -25.5 24.5t-10.5 32.5q0 17 7.5 31.5t19.5 25.5t27.5 17.5t31.5 8.5q-17 17 -22.5 37t-0.5 37.5t21 29.5t42 12t42 -17t16 -38
q0 -11 -9.5 -15t-17.5 4q-3 3 -5 7.5t-5.5 9t-9 7.5t-14.5 3q-17 0 -25.5 -11.5t-8.5 -22.5t9 -23.5t17 -20.5q25 -3 46 -15t34 -30t17.5 -41.5t-2.5 -48.5q29 -20 46 -51.5t17 -69.5zM212 294q0 33 -24 50.5t-53.5 19.5t-53.5 -11.5t-24 -42.5q0 -16 4.5 -21.5t13.5 -13.5
q35 19 72 19t64 -13q0 4 0.5 6.5t0.5 6.5zM264 157q0 22 -9.5 42t-25.5 35t-37 24t-43 9q-23 0 -44 -9t-37 -24t-25.5 -35t-9.5 -42q0 -24 10 -43.5t26.5 -34t37.5 -22.5t42 -8q22 0 43 8.5t37 23t25.5 34t9.5 42.5z" />
    <glyph glyph-name="L" unicode="L" horiz-adv-x="389" 
d="M337 203q0 -37 -11 -73.5t-33.5 -65t-57 -46.5t-80.5 -18q-32 0 -60 10.5t-49 30t-33.5 46.5t-12.5 59q0 20 7.5 39.5t20.5 34.5t31.5 24t39.5 9q27 0 48.5 -19t21.5 -48q0 -13 -5 -25t-14 -21.5t-20.5 -15t-24.5 -5.5q-26 0 -44.5 17.5t-22.5 42.5q-5 -6 -6 -13t-1 -15
q0 -26 11 -45t28.5 -31.5t39.5 -19t45 -6.5q72 0 112.5 44t40.5 114q0 37 -11 71.5t-30 61.5t-45 43t-55 16q5 -11 8 -22.5t3 -22.5q0 -28 -19 -49.5t-48 -21.5q-26 0 -47 19t-21 45q0 21 9.5 38t25 28t34.5 17t38 6q48 0 83.5 -24t58.5 -59t34 -75.5t11 -74.5zM151 364
q0 2 -1 8t-3 12t-4 11t-5 5q-9 0 -18.5 -5t-17 -12.5t-12.5 -17t-5 -18.5q0 -12 7.5 -20.5t19.5 -8.5q18 0 28.5 14.5t10.5 31.5zM140 188q0 16 -13 26t-30 10q-4 0 -10.5 -0.5t-13 -3t-11 -7t-4.5 -12.5q0 -27 13.5 -40.5t32.5 -13.5q16 0 26 11.5t10 29.5z" />
    <glyph glyph-name="M" unicode="M" horiz-adv-x="389" 
d="M337 203q0 -37 -11 -73.5t-33.5 -65t-57 -46.5t-80.5 -18q-32 0 -60 10.5t-49 30t-33.5 46.5t-12.5 59q0 20 7.5 39.5t20.5 34.5t31.5 24t39.5 9q27 0 48.5 -19t21.5 -48q0 -13 -5 -25t-14 -21.5t-20.5 -15t-24.5 -5.5q-26 0 -44.5 17.5t-22.5 42.5q-5 -6 -6 -13t-1 -15
q0 -26 11 -45t28.5 -31.5t39.5 -19t45 -6.5q72 0 112.5 44t40.5 114q0 37 -11 72t-30 62t-45 43t-55 16q5 -11 8 -23t3 -23q0 -28 -19 -49.5t-48 -21.5q-13 0 -25 5.5t-21.5 14.5t-15.5 21t-6 25q0 35 23 55.5t55 27.5q-10 10 -17 23.5t-7 27.5q0 26 19 44.5t48 18.5
q23 0 40.5 -14.5t17.5 -37.5q0 -7 -3.5 -13t-11.5 -6t-12.5 4t-4.5 7q0 5 -8 12t-21 7q-14 0 -23.5 -9t-9.5 -22q0 -12 7.5 -22.5t11.5 -15.5h3q48 0 83.5 -24t58.5 -59t34 -75.5t11 -74.5zM153 364q0 2 -1.5 8t-3.5 12t-4.5 11t-5.5 5q-9 0 -18.5 -5t-17 -12.5t-12.5 -17
t-5 -18.5q0 -12 7.5 -20.5t19.5 -8.5q18 0 29.5 14.5t11.5 31.5zM140 188q0 16 -13 26t-30 10q-4 0 -10.5 -0.5t-13 -3t-11 -7t-4.5 -12.5q0 -27 12.5 -40.5t32.5 -13.5q16 0 26.5 11.5t10.5 29.5z" />
    <glyph glyph-name="N" unicode="N" horiz-adv-x="413" 
d="M361 153q0 -24 -5.5 -51t-18 -50.5t-32.5 -39t-50 -15.5q-35 0 -55 19t-32 42q-8 -23 -27.5 -41t-54.5 -18t-60.5 24t-25.5 60q0 18 7 34t18.5 27.5t27 18t33.5 6.5q26 0 43 -11t26 -24q11 -16 16 -35q0 -3 4 -11.5t13 -17.5t23.5 -16.5t34.5 -7.5q23 0 40 10.5t28 27
t16 37t5 40.5q0 43 -14.5 82t-38 68.5t-52.5 47t-59 17.5q10 -19 10 -44q0 -28 -18.5 -49.5t-47.5 -21.5q-26 0 -47 19t-21 45q0 21 9.5 37.5t25 28t34.5 17t38 5.5q52 0 91 -25t65 -63.5t38.5 -84t12.5 -87.5zM155 342q0 2 -1 8t-3 12t-4 11t-5 5q-9 0 -18.5 -5t-17 -12.5
t-12.5 -17t-5 -18.5q0 -12 7.5 -20.5t20.5 -8.5q17 0 27.5 14.5t10.5 31.5zM144 97q0 22 -18 36t-38 14q-21 0 -40.5 -14.5t-19.5 -36.5q0 -23 19 -36.5t39 -13.5q21 0 39.5 14.5t18.5 36.5z" />
    <glyph glyph-name="O" unicode="O" horiz-adv-x="413" 
d="M361 155q0 -24 -5.5 -51t-18 -50t-32.5 -38.5t-50 -15.5q-35 0 -55 18.5t-32 42.5q-8 -23 -27.5 -41.5t-54.5 -18.5t-60.5 24t-25.5 61q0 18 7 33.5t18.5 27.5t27 18.5t33.5 6.5q26 0 43 -11t26 -25q11 -16 16 -35q0 -2 4 -10.5t13 -17.5t23.5 -16.5t34.5 -7.5
q23 0 40 10.5t28 27t16 37t5 40.5q0 43 -14.5 82t-38 68.5t-52.5 47t-59 17.5q10 -19 10 -44q0 -28 -18.5 -49.5t-47.5 -21.5q-13 0 -25 5t-21.5 14t-15.5 20.5t-6 24.5q0 21 9 37t21.5 26.5t26.5 16t23 5.5q-12 11 -21 26.5t-9 31.5q0 28 21 45t47 17q22 0 39 -15.5
t17 -38.5q0 -7 -4 -12.5t-12 -5.5q-4 0 -8.5 2.5t-4.5 4.5q0 4 -8.5 14t-22.5 10t-23.5 -10t-9.5 -24q0 -7 3.5 -14t8 -12.5t8 -10t3.5 -6.5q54 0 93.5 -25t65.5 -63.5t38.5 -84t12.5 -87.5zM155 344q0 3 -1 9t-3 12t-4 11t-5 5q-9 0 -18.5 -5t-17 -12.5t-12.5 -17t-5 -18.5
q0 -13 7.5 -21t20.5 -8q17 0 27.5 14.5t10.5 30.5zM144 100q0 22 -18 36t-38 14q-21 0 -40.5 -14.5t-19.5 -36.5q0 -23 19 -36.5t39 -13.5q21 0 39.5 14.5t18.5 36.5z" />
    <glyph glyph-name="P" unicode="P" horiz-adv-x="306" 
d="M254 279q0 -32 -13.5 -61t-36.5 -50q14 -18 21.5 -36.5t7.5 -41.5q0 -17 -5.5 -33t-15.5 -28.5t-25 -20t-33 -7.5q-29 0 -47.5 18.5t-18.5 47.5q0 17 7.5 32t18.5 27.5t25 23t28 18.5q-17 17 -31.5 21t-31.5 4q-28 0 -41 -12.5t-13 -23.5q0 -4 1.5 -7.5t1.5 -6.5
q0 -10 -8 -18t-18 -8q-13 0 -20 8.5t-7 20.5q0 30 24.5 53t68.5 23q29 0 52 -10t43 -27q20 17 30 42t10 51q0 21 -7 40t-18.5 34t-26.5 24t-30 9q2 -3 8 -18.5t6 -29.5q0 -27 -19 -48.5t-48 -21.5q-13 0 -25 5.5t-21 14.5t-14 21t-5 25q0 19 8 34.5t21.5 26.5t30.5 17t36 6
q29 0 53 -11.5t41 -31t26.5 -44t9.5 -51.5zM135 347q0 2 -1.5 8t-3.5 12t-5 10.5t-6 4.5q-18 0 -35 -16.5t-17 -34.5q0 -13 8 -22t21 -9q17 0 28 15t11 32zM201 104q0 11 -5 24.5t-13 21.5q-8 -5 -19 -12.5t-20.5 -16.5t-16 -20t-6.5 -22q0 -14 10 -20t23 -6q21 0 34 15.5
t13 35.5z" />
    <glyph glyph-name="Q" unicode="Q" horiz-adv-x="306" 
d="M254 279q0 -32 -13.5 -61t-36.5 -50q14 -18 21.5 -36.5t7.5 -41.5q0 -17 -5.5 -33t-15.5 -28.5t-25 -20t-33 -7.5q-29 0 -47.5 18.5t-18.5 47.5q0 17 7.5 32t18.5 27.5t25 23t28 18.5q-17 17 -31.5 21t-31.5 4q-28 0 -41 -12.5t-13 -23.5q0 -4 1.5 -7.5t1.5 -6.5
q0 -10 -8 -18t-18 -8q-13 0 -20 8.5t-7 20.5q0 30 24.5 53t68.5 23q29 0 52 -10t43 -27q20 17 30 42t10 51q0 21 -7 40t-18.5 34t-26.5 24t-30 9q2 -3 8 -18.5t6 -29.5q0 -27 -19 -48.5t-48 -21.5q-13 0 -25 5.5t-21 14.5t-14 21t-5 25q0 32 21 53t51 28q-12 16 -20 27
t-8 31q0 27 18 45t45 18q22 0 40.5 -14t18.5 -38q0 -7 -3.5 -13.5t-11.5 -6.5q-5 0 -9 5t-8.5 10.5t-11 10.5t-15.5 5q-13 0 -23.5 -9.5t-10.5 -23.5q0 -4 3 -10.5t7 -13t8.5 -12t7.5 -8.5q28 -1 51.5 -12.5t40 -31t26 -44t9.5 -50.5zM135 347q0 2 -1.5 8t-3.5 12t-5 10.5
t-6 4.5q-18 0 -35 -16.5t-17 -34.5q0 -13 8 -22t21 -9q17 0 28 15t11 32zM201 104q0 11 -5 24.5t-13 21.5q-8 -5 -19 -12.5t-20.5 -16.5t-16 -20t-6.5 -22q0 -14 10 -20t23 -6q21 0 34 15.5t13 35.5z" />
    <glyph glyph-name="R" unicode="R" horiz-adv-x="320" 
d="M268 285q0 -65 -31 -101.5t-87 -54.5q1 0 9 -4t17 -12t16.5 -20t7.5 -28q0 -15 -7 -27t-18.5 -20.5t-25.5 -12.5t-28 -4q-15 0 -29.5 4.5t-26 13t-18.5 21t-7 28.5q0 12 4.5 22.5t10.5 18t11 11.5t6 4q-28 7 -50 27.5t-22 51.5q0 24 19.5 44t47.5 20q21 0 39 -14t18 -37
q0 -13 -6 -22t-11 -15q-15 -14 -33.5 -14.5t-26.5 -0.5q12 -11 28 -16t32 -5q27 0 51.5 11.5t43 30t30 43t11.5 51.5q0 25 -9 49t-23.5 43t-33 30.5t-37.5 11.5q3 -3 8 -18.5t5 -29.5q0 -27 -19 -49.5t-48 -22.5q-26 0 -45.5 21t-19.5 47q0 38 30 60t71 22q28 0 54 -11
t46.5 -31t33 -49.5t12.5 -66.5zM128 374q0 2 -1 8t-3 12t-4.5 11t-5.5 5q-9 0 -18.5 -5t-17 -12.5t-12.5 -17t-5 -18.5q0 -13 7.5 -21t20.5 -8q17 0 28 14.5t11 31.5zM100 214q0 11 -11 17.5t-21 6.5q-15 0 -29 -10t-14 -27q0 -7 4.5 -10t10.5 -4t11.5 -1h6.5q5 0 12.5 1.5
t14 5t11 9t4.5 12.5zM151 78q0 14 -13 26.5t-27 12.5q-18 0 -30 -14.5t-12 -28.5q0 -15 13.5 -22.5t27.5 -7.5q15 0 28 8.5t13 25.5z" />
    <glyph glyph-name="S" unicode="S" horiz-adv-x="320" 
d="M268 285q0 -65 -31 -101.5t-87 -54.5q1 0 9 -4t17 -12t16.5 -20t7.5 -28q0 -15 -7 -27t-18.5 -20.5t-25.5 -12.5t-28 -4q-15 0 -29.5 4.5t-26 13t-18.5 21t-7 28.5q0 12 4.5 22.5t10.5 18t11 11.5t6 4q-28 7 -50 27.5t-22 51.5q0 24 19.5 44t47.5 20q21 0 39 -14t18 -37
q0 -13 -6 -22t-11 -15q-15 -14 -33.5 -14.5t-26.5 -0.5q12 -11 28 -16t32 -5q27 0 51.5 11.5t43 30t30 43t11.5 51.5q0 25 -9 49t-23.5 43t-33 30.5t-37.5 11.5q3 -3 8 -18.5t5 -29.5q0 -27 -19 -49.5t-48 -22.5q-26 0 -45.5 21t-19.5 47q0 19 9 34t21.5 25t25 15t19.5 5
q-1 1 -5.5 5t-9.5 11.5t-9 17.5t-4 23q0 30 22 46.5t46 16.5q21 0 37.5 -16.5t16.5 -36.5q0 -8 -3.5 -14t-11.5 -6q-2 0 -5 1.5t-5 3.5q-15 28 -34 28q-14 0 -24 -9.5t-10 -23.5t7 -20.5t17 -22.5q32 0 59 -12.5t46.5 -34.5t30.5 -50.5t11 -61.5zM128 374q0 2 -1 8t-3 12
t-4.5 11t-5.5 5q-9 0 -18.5 -5t-17 -12.5t-12.5 -17t-5 -18.5q0 -13 7.5 -21t20.5 -8q17 0 28 14.5t11 31.5zM100 214q0 11 -11 17.5t-21 6.5q-15 0 -29 -10t-14 -27q0 -7 4.5 -10t10.5 -4t11.5 -1h6.5q5 0 12.5 1.5t14 5t11 9t4.5 12.5zM151 78q0 14 -13 26.5t-27 12.5
q-18 0 -30 -14.5t-12 -28.5q0 -15 13.5 -22.5t27.5 -7.5q15 0 28 8.5t13 25.5z" />
    <glyph glyph-name="T" unicode="T" horiz-adv-x="356" 
d="M304 72q0 -8 -1 -20t-4 -23.5t-9.5 -19.5t-17.5 -8q-9 0 -17.5 5.5t-8.5 15.5q0 2 2 10t5 19.5t5 26t2 29.5q0 23 -6.5 50.5t-19.5 51t-33.5 39.5t-47.5 16t-47.5 -16.5t-34 -41t-20.5 -52.5t-7 -50q0 -29 6 -51.5t6 -27.5q0 -8 -8.5 -16t-16.5 -8q-11 0 -17 7.5t-9 18.5
t-4 22t-1 19q0 19 4.5 43.5t13.5 50t22.5 49.5t31.5 42q-20 11 -32.5 26.5t-12.5 40.5q0 19 8 34t21.5 25.5t30.5 16t34 5.5q21 0 42 -7.5t37.5 -21t27 -32t10.5 -41.5q0 -11 -2 -21.5t-5 -20.5q18 -17 31.5 -40.5t22.5 -48.5t14 -50t5 -46zM216 293q0 18 -8 31t-20.5 22
t-28.5 13.5t-31 4.5q-24 0 -46 -15.5t-22 -41.5q0 -11 9.5 -23.5t20.5 -13.5q14 10 30.5 16t34.5 6q16 0 30 -5.5t27 -14.5q2 5 3 10.5t1 10.5z" />
    <glyph glyph-name="U" unicode="U" horiz-adv-x="356" 
d="M304 72q0 -8 -1 -20t-4 -23.5t-9.5 -19.5t-17.5 -8q-9 0 -17.5 5.5t-8.5 15.5q0 2 2 10t5 19.5t5 26t2 29.5q0 23 -6.5 50.5t-19.5 51t-33.5 39.5t-47.5 16t-47.5 -16.5t-34 -41t-20.5 -52.5t-7 -50q0 -29 6 -51.5t6 -27.5q0 -8 -8.5 -16t-16.5 -8q-11 0 -17 7.5t-9 18.5
t-4 22t-1 19q0 19 4.5 43.5t13.5 50t22.5 49.5t31.5 42q-20 11 -32.5 26.5t-12.5 40.5q0 17 7 31.5t19 25t27 16.5t31 8q-11 11 -18.5 26t-7.5 31q0 26 19.5 44.5t45.5 18.5q22 0 40 -15.5t18 -38.5q0 -19 -16 -19q-8 0 -11 5t-6.5 10.5t-9 10.5t-18.5 5t-23 -9t-10 -23
q0 -20 12 -30t17 -17q38 -7 66.5 -33.5t28.5 -67.5q0 -11 -2 -21.5t-5 -20.5q18 -17 31.5 -40.5t22.5 -48.5t14 -50t5 -46zM216 293q0 18 -8 31t-20.5 22t-28.5 13.5t-31 4.5q-24 0 -46 -15.5t-22 -41.5q0 -11 9.5 -23.5t20.5 -13.5q14 10 30.5 16t34.5 6q16 0 30 -5.5
t27 -14.5q2 5 3 10.5t1 10.5z" />
    <glyph glyph-name="V" unicode="V" horiz-adv-x="564" 
d="M513 225q0 -37 -25.5 -59.5t-61.5 -22.5q-29 0 -48 12t-32 34q-14 -22 -35 -34t-47 -12q-28 0 -49.5 14t-37.5 36q-8 -19 -30 -31.5t-39 -12.5q-35 0 -55.5 -16.5t-20.5 -38.5q0 -23 19 -35t39 -12q17 0 32 7t26 16.5t17.5 20.5t6.5 20q0 5 4 6.5t7 1.5t8 -1.5t5 -6.5
q0 -9 5 -20.5t14.5 -21.5t23.5 -16.5t32 -6.5q6 0 15.5 1.5t18.5 5t15 9t6 13.5q0 6 -3.5 8.5t-7.5 4.5t-7.5 5t-3.5 10q0 8 6.5 13.5t14.5 5.5q16 0 24.5 -16.5t8.5 -30.5q0 -36 -27 -56t-61 -20q-35 0 -55.5 18.5t-31.5 44.5q-13 -28 -37 -46.5t-56 -18.5q-17 0 -33.5 6.5
t-29 17.5t-20 27t-7.5 34q0 19 7.5 35.5t20.5 28.5t30 19t36 7q4 0 13.5 1.5t19 6.5t16.5 13t7 22q0 18 -14 33.5t-33 15.5q-15 0 -25 -7t-15.5 -16.5t-7.5 -18.5t-2 -12q-1 -5 -5 -9q-3 -3 -7.5 -5.5t-12.5 -2.5q-12 0 -20 6.5t-8 20.5q0 17 9 30.5t22.5 22.5t30 14t31.5 5
q22 0 38 -8t26.5 -19t15.5 -21.5t5 -15.5q0 -1 4.5 -8t14 -15.5t24.5 -15t36 -6.5q10 0 22 3.5t22 9.5t16.5 15.5t6.5 21.5q0 20 -16.5 27.5t-32.5 7.5q-8 0 -14 3t-6 14q0 7 6 10.5t11 3.5q22 0 37 -8.5t24 -19t13 -20.5t4 -13q0 -2 2.5 -10.5t9.5 -19t20.5 -18.5t35.5 -8
q10 0 22 3.5t22 10.5t16.5 16.5t6.5 20.5q0 18 -15 26.5t-31 8.5q-8 0 -15 1.5t-7 12.5q0 9 6.5 13t13.5 4q30 0 53 -22t23 -52z" />
    <glyph glyph-name="W" unicode="W" horiz-adv-x="766" 
d="M714 224q0 -16 -7 -31t-18.5 -26t-26.5 -18t-31 -7t-30.5 7t-25.5 18.5t-17.5 26t-6.5 30.5q0 12 3.5 22.5t14.5 21.5h-72q16 -19 16 -43q0 -37 -25.5 -59.5t-61.5 -22.5q-29 0 -48 12t-32 34q-14 -22 -35 -34t-47 -12q-28 0 -49.5 14t-37.5 36q-8 -19 -30 -31.5
t-39 -12.5q-35 0 -55.5 -16.5t-20.5 -38.5q0 -23 19 -35t39 -12q17 0 32 7t26 16.5t17.5 20.5t6.5 20q0 5 4 6.5t7 1.5t8 -1.5t5 -6.5q0 -9 5 -20.5t14.5 -21.5t23.5 -16.5t32 -6.5q6 0 15.5 1.5t18.5 5t15 9t6 13.5q0 6 -3.5 8.5t-7.5 4.5t-7.5 5t-3.5 10q0 8 6.5 13.5
t14.5 5.5q16 0 24.5 -16.5t8.5 -30.5q0 -36 -27 -56t-61 -20q-35 0 -55.5 18.5t-31.5 44.5q-13 -28 -37 -46.5t-56 -18.5q-17 0 -33.5 6.5t-29 17.5t-20 27t-7.5 34q0 19 7.5 35.5t20.5 28.5t30 19t36 7q4 0 13.5 1.5t19 6.5t16.5 13t7 22q0 18 -14 33.5t-33 15.5
q-15 0 -25 -7t-15.5 -16.5t-7.5 -18.5t-2 -12q-1 -5 -5 -9q-3 -3 -7.5 -5.5t-12.5 -2.5q-12 0 -20 6.5t-8 20.5q0 17 9 30.5t22.5 22.5t30 14t31.5 5q22 0 38 -8t26.5 -19t15.5 -21.5t5 -15.5q0 -1 4.5 -8t14 -15.5t24.5 -15t36 -6.5q10 0 22 3.5t22 9.5t16.5 15.5t6.5 21.5
q0 20 -16.5 27.5t-32.5 7.5q-8 0 -14 3t-6 14q0 7 6 10.5t11 3.5q22 0 37 -8.5t24 -19t13 -20.5t4 -13q0 -2 2.5 -10.5t9.5 -19t20.5 -18.5t35.5 -8q10 0 22 3.5t22 10.5t16.5 16.5t6.5 20.5q0 18 -15 26.5t-31 8.5q-11 0 -17.5 6t-6.5 16q0 7 5.5 14.5t12.5 7.5h196
q38 0 61.5 -27t23.5 -61zM687 231q0 23 -16 37t-38 14t-38.5 -14.5t-16.5 -35.5q0 -22 17 -34.5t38 -12.5q20 0 37 11.5t17 34.5z" />
    <glyph glyph-name="X" unicode="X" horiz-adv-x="498" 
d="M341 279q0 -32 -13.5 -61t-36.5 -50q14 -18 21.5 -36.5t7.5 -41.5q0 -17 -5.5 -33t-15.5 -28.5t-25 -20t-33 -7.5q-29 0 -47.5 18.5t-18.5 47.5q0 17 7.5 32t18.5 27.5t25 23t28 18.5q-17 17 -31.5 21t-31.5 4q-28 0 -41 -12.5t-13 -23.5q0 -4 1.5 -7.5t1.5 -6.5
q0 -10 -8 -18t-18 -8q-13 0 -20 8.5t-7 20.5q0 30 24.5 53t68.5 23q29 0 52 -10t43 -27q20 17 30 42t10 51q0 21 -7 40t-18.5 34t-26.5 24t-30 9q2 -3 8 -18.5t6 -29.5q0 -27 -19 -48.5t-48 -21.5q-13 0 -25 5.5t-21 14.5t-14 21t-5 25q0 32 21 53t51 28q-12 16 -20 27
t-8 31q0 27 18 45t45 18q22 0 40.5 -14t18.5 -38q0 -7 -3.5 -13.5t-11.5 -6.5q-5 0 -9 5t-8.5 10.5t-11 10.5t-15.5 5q-13 0 -23.5 -9.5t-10.5 -23.5q0 -4 3 -10.5t7 -13t8.5 -12t7.5 -8.5q28 -1 51.5 -12.5t40 -31t26 -44t9.5 -50.5zM446 67q0 -35 -14 -72.5t-42.5 -68
t-70.5 -50t-97 -19.5q-54 0 -95.5 19.5t-69.5 50t-42.5 68t-14.5 72.5q0 14 2.5 29t6.5 28.5t8.5 24t7.5 13.5q1 0 2 1q1 0 2 0.5t3 -1.5q1 -1 1 -2t1 -2q0 -2 1 -3q-2 -2 -5 -19.5t-3 -35.5q0 -35 14.5 -69.5t40.5 -62.5t62 -45t80 -17t80 17t62 45t40 62.5t14 69.5
q0 18 -3.5 35.5t-5.5 19.5q0 1 1 3q0 2 2 4q1 2 2.5 1.5t2.5 -0.5q1 -1 2 -1q3 -3 7.5 -13.5t8.5 -24t6.5 -28.5t2.5 -29zM222 347q0 2 -1.5 8t-3.5 12t-5 10.5t-6 4.5q-18 0 -35 -16.5t-17 -34.5q0 -13 8 -22t21 -9q17 0 28 15t11 32zM288 104q0 11 -5 24.5t-13 21.5
q-8 -5 -19 -12.5t-20.5 -16.5t-16 -20t-6.5 -22q0 -14 10 -20t23 -6q21 0 34 15.5t13 35.5z" />
    <glyph glyph-name="Y" unicode="Y" 
d="M-92 -58q0 -19 -13.5 -33t-32.5 -14h-176q-7 0 -14.5 2.5t-7.5 10.5t5 11t11 3l138 -1l3 2q-3 9 -3 17q0 20 12.5 33t31.5 13q20 0 33 -12.5t13 -31.5zM-13 -21q0 -40 -18.5 -73t-48 -56t-66.5 -36t-74 -13t-73 13t-64.5 36.5t-46 56.5t-17.5 72q0 8 1 15t9 10l9 -7
q4 -36 20 -65t41 -49t56.5 -30.5t67.5 -10.5q26 0 52 6.5t49 19t41 31.5t29 44q5 13 7.5 26.5t6.5 27.5l8 6q8 -2 9.5 -9.5t1.5 -14.5zM-113 -58q0 9 -7 16t-16 7q-10 0 -17 -7t-7 -16q0 -11 6.5 -18t17.5 -7q10 0 16.5 7.5t6.5 17.5z" />
    <glyph glyph-name="Z" unicode="Z" 
d="M-84 -129q0 -29 -18 -52.5t-50 -23.5q-16 0 -27.5 8t-21.5 20q-11 -15 -21.5 -23t-29.5 -8q-29 0 -48.5 21t-19.5 50q0 15 5 30.5t14.5 28t23 20.5t30.5 8q20 0 33 -11.5t13 -31.5q0 -17 -13.5 -29t-30.5 -12t-28.5 13t-13.5 28q-7 -5 -9.5 -15.5t-2.5 -18.5
q0 -19 12 -32t32 -13q15 0 24.5 5t15.5 11q7 7 11 17l3 1.5t3 0.5l4 -2q0 -1 2 -6.5t6.5 -11.5t12.5 -11t21 -5q21 0 33.5 14.5t12.5 34.5q0 31 -19 41t-38 3q-6 -2 -12.5 2.5t-6.5 11.5q0 10 9.5 13t17.5 3q34 0 52.5 -23.5t18.5 -55.5zM-13 -105q0 -23 -8 -43t-22 -40
q-17 -25 -38 -40t-45.5 -23t-51.5 -10.5t-55 -2.5q-8 0 -21.5 3.5t-28 9t-27.5 11t-19 10.5q-29 22 -49 54.5t-20 70.5q0 7 1 16t10 9q3 0 5.5 -3t4.5 -5q11 -72 59 -105.5t117 -33.5q21 0 43 5t42.5 15t37 25t27.5 34q8 15 10.5 30.5t7.5 32.5l9 2q8 0 9.5 -8t1.5 -14z
M-223 -93q0 12 -10 17.5t-21 5.5q-6 0 -10.5 -2.5t-4.5 -10.5q0 -11 6.5 -19.5t18.5 -8.5q8 0 14.5 5t6.5 13z" />
    <glyph glyph-name="bracketleft" unicode="[" 
d="M-37 408q-52 -39 -93 -70q-18 -13 -35 -25.5t-30.5 -22.5t-22.5 -16t-10 -6q-2 0 -14.5 6t-27.5 14t-28.5 15.5t-16.5 10.5q-11 11 -10 22.5t9 18t20 7t23 -11.5q4 -4 10.5 -13.5t13 -19.5t12.5 -17.5t9 -7.5q1 0 9 6.5t20 17t26 24.5t29 28q34 33 78 77q5 5 13 2.5
t14 -8.5t7.5 -15t-5.5 -16z" />
    <glyph glyph-name="backslash" unicode="\" horiz-adv-x="294" 
d="M260 44q0 -15 -9 -20t-18 -5h-115q3 -3 7 -14t7.5 -26t6.5 -31.5t3 -29.5q0 -29 -7.5 -55t-23 -45.5t-39 -31t-54.5 -11.5q-26 0 -48 11.5t-38.5 30t-26 42.5t-9.5 49q0 31 12 58t30 51.5t39 48t39 47.5t30 50t12 55q0 27 -10 41t-21 20t-20.5 6.5t-7.5 0.5q-38 0 -38 28
q0 10 10.5 16t18.5 6q24 0 41.5 -9.5t29.5 -25t18 -36t6 -41.5q0 -34 -11.5 -63t-29 -54.5t-37.5 -48.5t-37.5 -46t-29 -47t-11.5 -50q0 -18 7 -35.5t19 -31t28.5 -22t35.5 -8.5q22 0 40 9t30.5 24t19 34.5t6.5 40.5q0 22 -6 41.5t-13 34.5t-13 25.5t-6 14.5q0 11 5.5 19
t13.5 8l139 -1q8 0 16.5 -3.5t8.5 -20.5z" />
    <glyph glyph-name="bracketright" unicode="]" 
d="M-28 408q-52 -39 -93 -70q-18 -13 -35 -25.5t-31 -22.5t-23 -16t-10 -6q-2 0 -14.5 6t-27.5 13.5t-28 15.5t-16 11q-11 11 -10 22.5t8.5 18t19.5 7t24 -11.5q3 -4 9.5 -13.5t13 -19.5t12.5 -17.5t9 -7.5q2 0 10 6.5t20 17t26 24.5t29 28q34 33 77 76q5 5 13 3t14 -8
t8 -15t-5 -16z" />
    <glyph glyph-name="asciicircum" unicode="^" 
d="M-49 -157q0 -40 -18.5 -68t-58.5 -28q-17 0 -29.5 5.5t-21.5 13.5q-11 9 -18 20q-7 -11 -18 -20q-9 -8 -23 -13.5t-32 -5.5q-32 0 -48.5 18.5t-17 40t15.5 40t50 18.5q26 0 42 -12.5t31 -28.5q5 5 9.5 19t4.5 29q0 20 -6 33t-13 22q-8 10 -18 17q1 -2 -1 -11.5t-8 -20.5
t-16 -20t-25 -9q-27 0 -38.5 14t-9 31.5t18 31.5t43.5 14q20 0 37 -9t29.5 -23t19.5 -32.5t7 -37.5q0 -26 -8 -44.5t-10 -20.5q5 -7 13 -11q7 -4 16.5 -7t23.5 -3q31 0 43.5 23t12.5 48q0 12 -3 26.5t-11.5 27.5t-22 21.5t-34.5 8.5q-12 0 -17.5 5t-5.5 11.5t5 11.5t13 5
q26 0 44.5 -12.5t30 -32t17 -42.5t5.5 -43zM-171 -281q0 -6 -3 -10q-5 -9 -21 -9q-14 0 -19 9q-3 4 -3 10q0 4 3 12.5t8 16.5q4 10 11 21q7 -11 12 -21q5 -8 8.5 -16.5t3.5 -12.5zM-234 -51q-4 4 -11 4h-9q-15 0 -24.5 -7.5t-11.5 -16t3 -16t19 -7.5q15 0 24.5 14.5
t9.5 28.5zM-207 -192q-7 9 -16 17q-8 7 -19.5 12.5t-25.5 5.5q-21 0 -31 -9t-9.5 -20t10.5 -20t30 -9q16 0 27.5 3t19.5 8q9 5 14 12z" />
    <glyph glyph-name="underscore" unicode="_" 
d="M-93 -211q0 -7 -1 -16.5t-3.5 -17.5t-7.5 -14t-14 -6q-8 0 -14.5 5.5t-6.5 13.5q0 7 5 21t5 43q0 21 -6 44.5t-17.5 42.5t-27.5 31.5t-35 12.5q-20 0 -36 -12.5t-27.5 -31.5t-17.5 -42.5t-6 -44.5q0 -29 5 -43t5 -21q0 -8 -6.5 -13.5t-14.5 -5.5q-9 0 -14 6t-7.5 14
t-3.5 17.5t-1 16.5q0 22 7.5 53.5t23 60t38.5 48.5t55 20q31 0 54 -20t38.5 -48.5t23 -60t7.5 -53.5z" />
    <glyph glyph-name="grave" unicode="`" horiz-adv-x="322" 
d="M153 125v-125h-28v125h-125v28h125v125h28v-125h125v-28h-125z" />
    <glyph glyph-name="a" unicode="a" horiz-adv-x="217" 
d="M158 -14v-29t-2.5 -44.5t-8.5 -50t-18 -47t-30.5 -35t-46.5 -13.5q-15 0 -25 5.5t-16 12.5q-7 8 -11 18q-7 -10 -16 -18q-8 -7 -18.5 -12.5t-24.5 -5.5q-23 0 -40 17.5t-17 40.5q0 17 5.5 29t12.5 20q8 9 19 15h-27.5t-16.5 0.5t-9.5 2t-6.5 4.5q-9 10 -3.5 21.5
t17.5 11.5q20 -5 37 -9q14 -4 26 -7t14 -5q6 -6 2 -13q-2 -4 -5 -6q-11 -4 -20 -10q-8 -5 -14 -14t-6 -23q0 -17 10 -28t27 -11q15 0 23.5 6.5t13.5 14.5q5 9 8 21q0 1 2 3q3 3 7 3t7 -3q1 -2 1 -3q2 -12 7 -21q5 -8 13 -14t24 -6q28 0 44.5 18.5t25 45t11 55t2.5 49.5
q0 29 -4 66.5t-13.5 75t-25 70.5t-38.5 53q-11 10 -26 18.5t-31 6.5q-5 0 -9.5 -1t-9.5 -1q-11 0 -21 7.5t-10 19.5q0 13 12 20t23 7q27 0 48 -13t41 -33q23 -23 39.5 -60.5t27 -79t15.5 -80t5 -62.5z" />
    <glyph glyph-name="b" unicode="b" 
d="M-104 -161q14 0 21.5 -14t4 -30.5t-19.5 -30.5t-48 -14q-20 0 -32 6.5t-20 14.5q-9 10 -13 22q-3 -12 -11 -22q-7 -8 -18.5 -14.5t-31.5 -6.5q-24 0 -44 13.5t-20 41.5q0 14 4 24.5t9 16.5q5 7 13 11q6 6 21 9t30 7.5t27 14t12 27.5q0 19 -15 27.5t-26 8.5q-7 0 -15 -3.5
t-13.5 -9t-7 -12.5t5.5 -14q6 -6 5 -13t-6 -11.5t-13 -5t-15 7.5q-9 9 -10 22.5t6.5 27t23 23t41.5 9.5q23 0 39.5 -14.5t16.5 -34.5q0 -4 5 -9.5t12.5 -11t17 -9t18.5 -3.5q21 0 33 9.5t13.5 21t-8.5 21t-31 9.5q-4 0 -6.5 3.5t-3 7t3 7t11.5 3.5q28 0 41.5 -18t13 -39
t-15 -39t-44.5 -18q-13 0 -23.5 4.5t-18 10.5t-12.5 12t-7 9q-5 -15 -17 -23t-26 -13t-27.5 -9t-22.5 -13q-6 -6 -8 -15t1 -16.5t10 -13t19 -5.5q17 0 28 6t17 14q7 9 10 20q0 2 2.5 4.5t6.5 2.5q3 0 4 -2.5t1 -4.5q4 -11 12 -20q7 -8 18 -14t28 -6q19 0 29 4.5t14 10t3 10
t-4 4.5q-6 0 -9 3.5t-2.5 8t4 8.5t9.5 4z" />
    <glyph glyph-name="c" unicode="c" horiz-adv-x="123" 
d="M76 402q0 -15 -11 -22.5t-19 -7.5q-22 0 -34 18.5t-12 40.5q0 19 7.5 34t17.5 25.5t19 16t12 5.5l5 -11q-11 -6 -19 -15q-7 -8 -12.5 -18.5t-5.5 -25.5q0 -10 1 -14q0 -4 1 -6q2 2 6 5q3 2 6.5 3.5t7.5 1.5q8 0 19 -7.5t11 -22.5z" />
    <glyph glyph-name="d" unicode="d" 
d="M-121 -251q-16 0 -27.5 8t-19.5 18q-10 11 -16 27q-7 -16 -17 -27q-8 -10 -20.5 -18t-28.5 -8q-20 0 -36 9t-27 24.5t-17 36t-6 44.5q0 19 4.5 38.5t14.5 35t25.5 25.5t37.5 10q20 0 35.5 -15.5t15.5 -35.5q0 -21 -15 -35.5t-36 -14.5q-15 0 -25 6t-16 14t-8.5 16
t-2.5 11q-11 -11 -13 -33t5.5 -44t24.5 -38.5t43 -16.5q16 0 26.5 8t16.5 17.5t8.5 18l2.5 8.5q0 -1 1.5 3t6.5 4t7 -3.5t2 -4.5l2.5 -7.5t8.5 -17.5t16.5 -18t26.5 -8q31 0 45.5 23t12.5 50.5t-20.5 50.5t-54.5 23q-12 0 -17 6t-5 13t4.5 13t12.5 6q28 0 49 -16.5t34 -41
t16.5 -53.5t-3.5 -53.5t-25.5 -41t-48.5 -16.5zM-256 -110q16 0 23.5 9.5t7.5 21.5t-7.5 21.5t-23.5 9.5q-13 0 -24 -7t-11 -10q-1 -13 3 -23q3 -8 10.5 -15t21.5 -7z" />
    <glyph glyph-name="e" unicode="e" horiz-adv-x="120" 
d="M76 453q0 -19 -7.5 -34t-17.5 -25.5t-19 -16t-12 -5.5l-5 11q10 5 18 14q7 8 13 19t6 26q0 4 -0.5 7.5t-0.5 6.5q-1 4 -1 6q-2 -3 -6 -5q-7 -5 -14 -5q-8 0 -19 7.5t-11 22.5t11 22.5t19 7.5q22 0 34 -18.5t12 -40.5z" />
    <glyph glyph-name="f" unicode="f" horiz-adv-x="241" 
d="M112 182q-13 0 -19.5 8.5t-6.5 18t6.5 18t19.5 8.5t19.5 -8.5t6.5 -18t-6.5 -18t-19.5 -8.5zM0 125v26h215v-26h-215zM112 39q-13 0 -19.5 8.5t-6.5 18t6.5 18t19.5 8.5t19.5 -8.5t6.5 -18t-6.5 -18t-19.5 -8.5z" />
    <glyph glyph-name="g" unicode="g" 
d="M-62 -142q0 -48 -24.5 -78t-72.5 -30q-23 0 -38.5 18t-15.5 43q0 26 15.5 43t38.5 17t33 -11t14 -24q4 -16 3 -35q6 0 12 10.5t10 26.5t4.5 34t-6.5 34t-22.5 26.5t-42.5 10.5q-16 0 -27 -8t-18 -18q-8 -11 -13 -25l-2 -4q-2 -3 -6 -3q-6 0 -7 3l-2 4q-5 14 -14 25
q-8 10 -19 18t-27 8q-6 0 -13.5 -2.5t-15 -7t-12.5 -11.5t-5 -16q0 -14 10.5 -25.5t45.5 -11.5q1 -1 3 -2q3 -3 3 -6t-3 -6q-2 -1 -3 -2q-7 0 -17.5 -1.5t-20 -5t-16 -10.5t-6.5 -18q0 -17 15 -23.5t26 -6.5q17 0 23 5t8.5 10.5t4 10.5t8.5 5q9 0 12.5 -6.5t3.5 -12.5
q0 -12 -6 -21.5t-15 -16t-20 -9.5t-21 -3q-22 0 -42.5 16t-20.5 42q0 14 5 24t12 17t17 12q-9 4 -15 11q-6 6 -10.5 15.5t-4.5 23.5q0 29 22.5 45t51.5 16q20 0 32 -7t20 -15q9 -10 13 -22q5 12 15 22q8 8 21.5 15t33.5 7t36 -9t27.5 -24.5t18 -36t6.5 -44.5zM-126 -182
q0 17 -10.5 25.5t-23.5 8.5t-23.5 -8t-10.5 -23q0 -14 11 -23.5t31 -9.5t23 6t3 24z" />
    <glyph glyph-name="h" unicode="h" horiz-adv-x="54" 
d="M37 -100q0 -15 -6 -28.5t-16.5 -23.5t-23.5 -16t-28 -6h-305q-8 0 -13.5 5.5t-5.5 14.5q0 8 5.5 14t13.5 6h244q-4 4 -7 9q-2 5 -4 11t-2 14q0 31 21 52t53 21q15 0 28 -6t23.5 -16t16.5 -23t6 -28zM13 -106q0 19 -15.5 31t-34.5 12q-18 0 -33 -12t-15 -31
q0 -18 15 -30.5t33 -12.5q19 0 34.5 12.5t15.5 30.5z" />
    <glyph glyph-name="i" unicode="i" 
d="M-61 -203q0 -8 -6 -13.5t-14 -5.5h-441q-15 0 -28 6t-23.5 16t-16.5 23t-6 28t6 28t16.5 23.5t23.5 16.5t28 6q31 0 52.5 -21t21.5 -53q0 -8 -2.5 -13.5t-4.5 -10.5q-3 -5 -6 -9h380q8 0 14 -6.5t6 -14.5zM-474 -154q0 19 -15 31t-33 12q-19 0 -34.5 -12t-15.5 -31
t15.5 -31t34.5 -12q18 0 33 12t15 31z" />
    <glyph glyph-name="j" unicode="j" 
d="M-37 -134q0 -8 -6 -13.5t-14 -5.5h-310q-29 0 -51 22t-22 51q0 15 6 28t16 23.5t23 16.5t28 6q32 0 53 -21t21 -53q0 -8 -2.5 -13.5t-4.5 -10.5q-3 -5 -6 -9h249q8 0 14 -6.5t6 -14.5zM-318 -85q0 18 -15 30.5t-34 12.5q-18 0 -34 -12.5t-16 -30.5q0 -19 15.5 -31
t34.5 -12t34 12t15 31z" />
    <glyph glyph-name="k" unicode="k" horiz-adv-x="284" 
d="M246 250q0 -5 -3.5 -9.5t-9.5 -4.5q-2 0 -8.5 4.5t-17 10t-23.5 10t-26 4.5q-35 0 -58 -17.5t-34.5 -43.5t-11 -57t12 -57t34 -43.5t56.5 -17.5q15 0 27.5 4.5t22 9.5t15.5 9.5t9 4.5q5 0 8.5 -4.5t3.5 -9.5q0 -7 -9 -14t-20.5 -13t-23.5 -10t-18 -5q-7 -1 -13.5 -1
h-14.5q-47 0 -79 22t-48 54.5t-16 70.5t16 70.5t49 54.5t83 22q8 0 24.5 -3.5t32.5 -9.5t28 -14t12 -17z" />
    <glyph glyph-name="l" unicode="l" horiz-adv-x="185" 
d="M131 229q0 -27 -20 -45.5t-47 -18.5q-26 0 -45 19t-19 45t19.5 45.5t45.5 19.5q27 0 46.5 -19t19.5 -46zM131 65q0 -27 -19.5 -46t-46.5 -19q-26 0 -45.5 19t-19.5 45q0 25 20 45t45 20q28 0 47 -18t19 -46zM110 233q0 17 -13.5 29t-29.5 12q-18 0 -31.5 -12t-13.5 -30
q0 -17 13 -27.5t29 -10.5q17 0 31.5 10.5t14.5 28.5zM110 68q0 17 -13 28.5t-30 11.5q-18 0 -31.5 -12t-13.5 -29t13 -27.5t29 -10.5q17 0 31.5 10.5t14.5 28.5z" />
    <glyph glyph-name="m" unicode="m" 
d="M-139 -236q-26 0 -42 16.5t-26 36.5q-7 -24 -24 -38.5t-45 -14.5q-15 0 -26.5 6t-20 15.5t-15 21.5t-10.5 23q-11 -29 -37.5 -47.5t-59.5 -18.5q-21 0 -40 8t-33.5 22.5t-22.5 33.5t-8 40q0 22 8 41t22.5 33t33.5 22t40 8t40 -8t33.5 -22t22.5 -33t8 -41v-7q3 -8 8 -18.5
t13 -20t19 -16.5t25 -7q28 0 42.5 21.5t13.5 47.5t-18 47.5t-50 21.5q-11 0 -16 5.5t-5 12t4 12t12 5.5q23 0 40 -11.5t28 -28.5t17 -38t6 -39q3 -8 8.5 -17.5t13.5 -18t18 -14.5t23 -6q29 0 42.5 21.5t12 47.5t-18 47.5t-49.5 21.5q-11 0 -16 5.5t-5 12t4 12t12 5.5
q26 0 45.5 -15.5t31 -38.5t14.5 -50t-3.5 -50t-23.5 -38.5t-46 -15.5zM-185 -261q0 -5 -3 -9q-5 -9 -18 -9q-8 0 -12 2.5t-6 6.5q-3 4 -3 9q0 4 3 11.5t7 15.5q4 9 11 19q6 -10 10 -19q4 -8 7.5 -15.5t3.5 -11.5zM-362 -125q0 16 -7 30.5t-18 25t-26 16.5t-31 6t-31 -6
t-26 -16.5t-18 -25t-7 -30.5q0 -17 7.5 -30.5t19 -24t26 -16t29.5 -5.5q16 0 31 6t26 16t18 24t7 30z" />
    <glyph glyph-name="n" unicode="n" horiz-adv-x="204" 
d="M0 154v39h162v-39h-162z" />
    <glyph glyph-name="o" unicode="o" horiz-adv-x="218" 
d="M235 -214q0 -9 -5.5 -16t-14 -11t-18 -6t-16.5 -2q-18 0 -33 7t-28 18t-24.5 24.5t-21.5 25.5q-12 -15 -27.5 -28.5t-34 -24t-38 -16.5t-38.5 -6q-17 0 -37.5 5t-37.5 15.5t-28.5 26t-11.5 35.5q0 23 10 40.5t26 29t36.5 17t40.5 5.5q38 0 72 -15.5t61 -40.5
q10 7 18 26.5t13.5 43.5t8.5 46.5t3 35.5q0 25 -3 51.5t-10.5 51.5t-20.5 47t-34 40q-17 15 -29.5 21t-21.5 8t-16 2.5t-13 4.5q-5 3 -8 9.5t-3 11.5q0 11 7.5 17.5t17.5 6.5q2 0 10.5 -1.5t11.5 -2.5q38 -14 64 -45t41.5 -68.5t22.5 -76.5t7 -70q0 -46 -9.5 -94t-35.5 -87
q17 -19 34.5 -37t45.5 -18q18 0 28.5 9t19.5 9q8 0 13.5 -8t5.5 -16zM53 -150q0 3 -9.5 12t-25.5 18t-36 16t-42 7q-12 0 -28 -3.5t-30 -11t-23.5 -18t-9.5 -25.5q0 -16 8.5 -27t21 -17.5t27.5 -9.5t28 -3q21 0 42.5 8.5t38.5 19t27.5 20.5t10.5 14z" />
    <glyph glyph-name="p" unicode="p" horiz-adv-x="210" 
d="M163 -57q0 -25 -3.5 -58t-14.5 -63t-31 -51t-53 -21q-26 0 -39 10t-26 33q-8 -17 -25 -29.5t-37 -12.5q-26 0 -46 20.5t-20 46.5q0 27 18.5 47.5t46.5 20.5q17 0 29.5 -7.5t21 -18t13 -20.5t4.5 -16q0 -3 3.5 -8.5t10.5 -11.5t17 -10.5t22 -4.5q29 0 46 17.5t26 42.5
t11.5 53t2.5 49q0 32 -6 81.5t-21.5 96.5t-43 80.5t-69.5 33.5q-5 0 -10.5 -1.5t-10.5 -1.5q-11 0 -19.5 8t-8.5 19q0 14 11.5 20t23.5 6q16 0 31 -6.5t29 -14.5q33 -17 55 -56t36 -87t20 -98t6 -88zM-23 -174q0 18 -13 28.5t-30 10.5t-31 -10t-14 -29q0 -17 14 -27.5
t30 -10.5t30 10.5t14 27.5z" />
    <glyph glyph-name="q" unicode="q" horiz-adv-x="148" 
d="M131 -2q0 -29 -4.5 -64t-17 -65t-34.5 -50.5t-56 -20.5q-14 0 -28 5t-25.5 14.5t-18.5 22.5t-7 30q0 12 0.5 27t-2.5 28.5t-11.5 23t-26.5 9.5q-26 0 -36 -18.5t-10 -41.5q0 -20 4 -33t8.5 -22.5t8.5 -15.5t3 -11q-4 -12 -11 -16q-13 -6 -24 5q-6 7 -10.5 17.5t-7 21.5
t-3.5 21t-1 17q0 18 4.5 35.5t14.5 31.5t24.5 22.5t35.5 8.5q18 0 30 -7t19 -19t10 -27t3 -30q0 -24 15 -44t41 -20q30 0 47.5 18.5t27 45t12.5 54.5t3 47q0 20 -2 49.5t-8 63t-16 66.5t-26.5 60t-39.5 43.5t-54 16.5q-4 0 -8.5 -1.5t-9.5 -1.5q-11 0 -18.5 7t-7.5 18
q0 14 11.5 19.5t23.5 5.5q34 0 61 -18.5t46.5 -48.5t33 -68t22 -76.5t12 -74t3.5 -60.5z" />
    <glyph glyph-name="r" unicode="r" horiz-adv-x="420" 
d="M332 272q0 -8 -5.5 -15t-13.5 -7h-257q-9 0 -18 -8t-9 -18q0 -11 2 -20t12 -9h130q8 0 12.5 -5t4.5 -13q0 -11 -7.5 -14.5t-16.5 -3.5h-117q-9 0 -16 -9.5t-7 -17.5q0 -11 6 -14.5t11 -3.5h130q8 0 12.5 -5t4.5 -13q0 -11 -7.5 -14.5t-16.5 -3.5h-117q-9 0 -16 -9.5
t-7 -17.5q0 -11 8 -18.5t13 -7.5h86q11 0 11 -13q0 -3 -3 -7.5t-6 -4.5h-85q-9 0 -17.5 4.5t-16 11.5t-12 16t-4.5 18q0 11 7.5 25t16.5 20q-7 4 -12 9t-8.5 11.5t-3.5 15.5q0 11 4.5 23t15.5 23q-16 16 -18 27t-2 29q0 25 20 43.5t44 18.5h249q8 0 13.5 -8t5.5 -15z" />
    <glyph glyph-name="s" unicode="s" horiz-adv-x="215" 
d="M0 227q0 66 24.5 117.5t54 87t54 55.5t24.5 24h25q-33 -34 -56.5 -65t-39.5 -64t-23.5 -71t-7.5 -85t11 -88.5t29 -76.5t40.5 -64.5t46.5 -52.5h-25q0 1 -24.5 21t-54 56t-54 88t-24.5 118z" />
    <glyph glyph-name="t" unicode="t" horiz-adv-x="173" 
d="M155 -174q0 -8 -6 -20.5t-11 -19.5q-25 -32 -55.5 -47t-71.5 -15q-30 0 -57 10t-47.5 28.5t-32.5 44.5t-12 57q0 28 10.5 51.5t28.5 41.5t41.5 29t50.5 13q25 26 42.5 64t17.5 75q0 32 -8.5 52t-20.5 31t-24 15t-19 4q-8 1 -14.5 7.5t-6.5 17.5t8 18t18 7q18 0 33 -12
q18 -14 29 -30.5t17.5 -34.5t9 -35.5t2.5 -31.5q0 -40 -16.5 -78t-41.5 -69q18 -3 35 -10.5t30.5 -19.5t21.5 -29t8 -39q0 -17 -7.5 -32.5t-20 -26.5t-28.5 -17.5t-33 -6.5q-33 0 -57.5 23t-24.5 58q0 20 7.5 38t18.5 34q-10 0 -23.5 -7.5t-26 -21t-21 -33t-8.5 -42.5
t10 -43t26.5 -34.5t37.5 -23t43 -8.5q27 0 47.5 7.5t36 19t26.5 25.5t19 28q1 1 3 2t8 -1q7 -3 7.5 -4.5t0.5 -8.5zM85 -92q0 46 -49 64q-10 4 -22.5 4t-13.5 -1q-11 -14 -21 -29.5t-10 -35.5q0 -23 15.5 -39.5t38.5 -16.5q22 0 42 15.5t20 38.5z" />
    <glyph glyph-name="u" unicode="u" horiz-adv-x="193" 
d="M161 -129q0 -32 -11.5 -55t-31 -38.5t-45.5 -23t-55 -7.5q-17 0 -37 5t-38 14.5t-30 24.5t-12 35q0 12 3 21t7 14q4 6 11 10q15 11 32.5 14.5t32.5 7.5t25 12.5t10 29.5q0 17 -11.5 25.5t-27.5 8.5q-22 0 -33 -11q-8 -8 -12 -15.5t-14 -7.5q-9 0 -14.5 6t-5.5 15
q0 11 8 19.5t20 14t24.5 8t21.5 2.5q27 0 49 -19t22 -48q0 -25 -14 -38.5t-32 -21t-34.5 -11t-21.5 -8.5q-4 -4 -6 -5t-2.5 -2.5t-0.5 -4.5v-9q0 -12 9 -21t21.5 -14t26 -7.5t23.5 -2.5q47 0 78.5 24t31.5 74q0 32 -15 60t-38 55q-17 21 -35.5 43.5t-33.5 46.5t-24.5 49.5
t-9.5 52.5q0 19 6.5 37.5t18 32.5t28 22.5t37.5 8.5q17 0 33 -6.5t28.5 -18t20 -27t7.5 -32.5q0 -11 -4.5 -24.5t-18.5 -13.5q-10 0 -17 7t-7 17q0 5 2 10t2 10q0 20 -15 32t-33 12q-30 0 -45 -20.5t-15 -47.5q0 -29 10 -54.5t26 -49t34 -45t35 -42.5q23 -29 39.5 -60.5
t16.5 -69.5z" />
    <glyph glyph-name="v" unicode="v" horiz-adv-x="90" 
d="M247 -171q-17 0 -43.5 -1.5t-55 0t-54.5 7.5t-42 22q-24 24 -36 72t-15 105t0.5 117t8.5 109t10 80.5l5 31.5q0 6 3 10.5t7 5t8 -3.5t4 -13q-14 -110 -17 -204q-1 -40 0 -81t6 -77t14.5 -64.5t24.5 -43.5q13 -12 29 -18t36.5 -7.5t47 -1t59.5 0.5q12 0 17.5 -7t5 -16
t-6 -16t-16.5 -7z" />
    <glyph glyph-name="w" unicode="w" horiz-adv-x="90" 
d="M247 -330q-17 0 -43.5 -1.5t-55 0t-54.5 7.5t-42 22q-18 18 -29 57t-16.5 90t-6.5 109.5t1 117.5q4 137 23 300q0 6 3 10.5t7.5 5t8.5 -3.5t4 -13q-14 -155 -17 -284q-1 -55 0 -110t6 -102t14.5 -82.5t24.5 -50.5q13 -12 29 -18t36.5 -7.5t47 -1t59.5 0.5q12 0 17.5 -7
t5 -16t-6 -16t-16.5 -7z" />
    <glyph glyph-name="x" unicode="x" 
d="M-62 -96q0 -7 -2.5 -15.5t-7.5 -16t-12 -13t-17 -5.5q-5 0 -11 3t-6 9q0 10 5.5 12t12 3t12 4t5.5 15q0 10 -6.5 16t-14.5 9t-16 4t-12 1q-19 0 -31 -7.5t-19 -17t-9.5 -18t-2.5 -10.5t-2.5 -2.5t-4.5 -0.5q-5 0 -5 3q0 2 -3 10.5t-10.5 18t-20 17t-31.5 7.5q-4 0 -12 -1
t-16 -4.5t-14 -10t-6 -16.5q0 -12 5.5 -15.5t12 -4t12 -2.5t5.5 -11t-6 -11t-11 -2q-11 0 -18.5 5.5t-12 14t-6.5 17.5t-2 15q0 26 19.5 46t47.5 20q19 0 40 -12.5t31 -41.5q23 54 70 54q15 0 27.5 -5.5t22 -15t15 -21.5t5.5 -24z" />
    <glyph glyph-name="y" unicode="y" horiz-adv-x="231" 
d="M217 -144q0 -20 -6 -39t-18 -33.5t-29 -23.5t-38 -9q-23 0 -42 12.5t-32 32.5q-11 -19 -26 -32t-38 -13q-27 0 -47.5 19.5t-20.5 47.5t18 47.5t47 19.5q32 0 45 -15t22 -33.5t22 -33.5t44 -15t52.5 21t21.5 52q0 30 -14 57t-35 52.5t-45.5 51t-45.5 52.5t-35 56t-14 63
q0 19 6 37.5t17.5 32.5t28 22.5t37.5 8.5q15 0 31 -5.5t29 -16t21.5 -24.5t8.5 -30q0 -15 -5.5 -29t-23.5 -14q-8 0 -11.5 5t-4 12t0 14t0.5 12q0 20 -15.5 31.5t-33.5 11.5q-29 0 -44.5 -21.5t-15.5 -47.5q0 -31 14 -58t35 -52.5t45 -50.5t45 -52t35 -57.5t14 -65.5z
M29 -172q0 17 -12.5 27t-28.5 10q-17 0 -30 -10.5t-13 -28.5q0 -17 13 -27.5t30 -10.5q16 0 28.5 11.5t12.5 28.5z" />
    <glyph glyph-name="z" unicode="z" horiz-adv-x="260" 
d="M182 228q0 -66 -24.5 -117.5t-54 -87t-54 -55.5t-24.5 -24h-25q33 34 56.5 65t39.5 64t23.5 71t7.5 85t-11 88.5t-29 76.5t-40.5 64.5t-46.5 52.5h25q0 -2 24.5 -21.5t54 -55.5t54 -88t24.5 -118z" />
    <glyph glyph-name="braceleft" unicode="{" 
d="M-26 -270q8 -8 4.5 -20t-19.5 -12q-12 0 -21.5 7t-16 18t-9 24.5t0.5 26.5q-19 -24 -55 -24q-17 0 -29 6t-19 14q-9 9 -13 21q-6 -12 -15 -21q-8 -8 -19 -14t-27 -6q-28 0 -47.5 19.5t-19.5 46.5q0 28 19.5 47t47.5 19q24 0 41.5 -15t22.5 -38q2 -6 6.5 -13t11.5 -14
t16.5 -11.5t23.5 -4.5q31 0 45.5 23t13 51t-20 51t-52.5 23q-12 0 -17 6t-5 13t4.5 13t12.5 6q28 0 49.5 -18t33.5 -44.5t14 -56.5t-7 -55q0 -28 5.5 -40.5t13 -17t15 -5.5t11.5 -5zM-221 -175q0 16 -13 27t-30 11q-18 0 -30.5 -11t-12.5 -27q0 -17 12.5 -28t30.5 -11
q17 0 30 11t13 28z" />
    <glyph glyph-name="bar" unicode="|" 
d="M48 -84q0 -24 -16 -40.5t-40 -16.5q-22 0 -39 17t-17 40q0 6 3 17t8 16h-68q21 -21 28.5 -44t7.5 -46q0 -17 -4.5 -34.5t-13.5 -32t-23.5 -24t-33.5 -9.5t-36 12.5t-23 27.5q-5 -14 -21 -26.5t-37 -12.5q-26 0 -45.5 19t-19.5 45t19.5 45t45.5 19q18 0 30.5 -7.5
t19.5 -18t10 -20.5t3 -15q0 -6 14 -19t34 -13q28 0 44 21t16 47q0 21 -7 35.5t-16 24t-18 14t-13 4.5h-21q-6 0 -10 5t-4 10q0 7 5.5 11.5t12.5 4.5h164q24 0 42.5 -15.5t18.5 -40.5zM33 -82q0 14 -14 23t-27 9t-25.5 -8.5t-12.5 -23.5t13 -24t27 -9q13 0 26 9.5t13 23.5z
M-235 -169q0 16 -13.5 26t-29.5 10q-17 0 -29.5 -10.5t-12.5 -27.5t12 -25.5t30 -8.5q17 0 30 9t13 27z" />
    <glyph glyph-name="braceright" unicode="}" horiz-adv-x="148" 
d="M131 1q0 -39 -11 -69t-26.5 -50.5t-33.5 -31t-31 -10.5q15 -8 26.5 -26t11.5 -38q0 -18 -7 -29.5t-17.5 -18.5t-22.5 -10t-21 -3q-26 0 -45 17t-19 47q0 18 9.5 35t25.5 26q-8 0 -20.5 5.5t-24.5 16.5t-21 27t-9 37q0 29 20 50t49 21q24 0 40.5 -15.5t16.5 -39.5
q0 -26 -19.5 -42.5t-44.5 -16.5q-5 0 -13 2t-13 4q4 -9 13 -15t19 -9.5t20 -5.5t16 -2q27 0 47 13t33.5 34t20.5 46.5t7 50.5q0 5 0.5 24.5t-1 46.5t-7 57t-17.5 55t-32 41.5t-50 16.5q-5 0 -10.5 -1.5t-10.5 -1.5q-11 0 -19 8t-8 20q0 14 12 20t24 6q27 0 50 -14.5
t40 -34.5q19 -22 30 -52.5t16 -63.5t6 -66t1 -61zM-5 -64q0 13 -9 22.5t-22 9.5q-9 0 -18 -3.5t-16 -10.5t-11 -16.5t-1 -22.5q1 -2 14 -7t24 -5q14 0 26.5 9.5t12.5 23.5zM41 -221q0 10 -5 19.5t-11.5 17t-14 12.5t-12.5 5q-4 0 -11 -4.5t-13.5 -11.5t-11.5 -17t-5 -20
q0 -17 14 -29t31 -12q16 0 27.5 12t11.5 28z" />
    <glyph glyph-name="asciitilde" unicode="~" horiz-adv-x="394" 
d="M55 503h318l-26 -41h-94q12 -13 19 -27.5t11 -30.5h89l-23 -41h-65q-3 -28 -21 -60q-9 -15 -25.5 -27.5t-36 -21.5t-41.5 -13.5t-43 -4.5q0 -5 6 -13.5t16 -20.5q38 -47 80 -97t80 -97v-3q-18 0 -33 -0.5t-33 -0.5q-47 54 -82.5 94.5t-59.5 68.5q-28 33 -48 56v42
q9 0 17.5 -0.5t19.5 -0.5q111 0 137 72q4 9 4 27h-192q24 41 26 41h161q-17 34 -57 50q-30 8 -50 8h-80z" />
    <glyph glyph-name="uni0081" unicode="&#xf081;" horiz-adv-x="46" 
d="M-176 267h-79q-5 0 -9.5 3.5t-4.5 9.5t4.5 9.5t9.5 3.5h79v-26z" />
    <glyph glyph-name="quotesinglbase" unicode="&#x201a;" horiz-adv-x="458" 
d="M406 161q0 -26 -6.5 -49.5t-19.5 -41t-32.5 -27.5t-45.5 -10q-28 0 -48.5 13.5t-34.5 33.5t-21 42.5t-7 40.5v1q-11 -17 -30 -28t-39 -11q-16 0 -30 7t-25 18t-17.5 26t-6.5 30q0 13 3.5 23.5t14.5 21.5h-242q-6 1 -10 4q-9 5 -9 17t9 17q4 3 10 5h303q38 0 60.5 -26.5
t22.5 -61.5q1 -35 12 -62q9 -23 28.5 -42.5t56.5 -19.5q27 0 44.5 14.5t26 36.5t7.5 47.5t-11.5 47.5t-32 36.5t-52.5 14.5q-17 0 -24.5 7.5t-7.5 16.5t6.5 16.5t19.5 7.5q33 0 57 -16t39.5 -41t23.5 -54t8 -55zM179 213q0 23 -16.5 37.5t-38.5 14.5t-38.5 -15t-16.5 -35
q0 -22 17.5 -34.5t39.5 -12.5q19 0 36 11.5t17 33.5z" />
    <glyph glyph-name="florin" unicode="&#x192;" horiz-adv-x="750" 
d="M698 240q0 -16 -7 -31t-18.5 -26t-26.5 -18t-31 -7t-30 7t-25 18.5t-17.5 26.5t-6.5 30q0 12 3.5 22.5t14.5 21.5h-190q21 -26 31.5 -60t10.5 -63q0 -26 -6.5 -49.5t-19.5 -41t-32.5 -27.5t-45.5 -10q-28 0 -48.5 13.5t-34.5 33.5t-21 42.5t-7 40.5v1q-11 -17 -30 -28
t-39 -11q-16 0 -30 7t-25 18t-17.5 26t-6.5 30q0 13 3.5 23.5t14.5 21.5h-242q-6 1 -10 4q-9 5 -9 17t9 17q4 3 10 5h303q38 0 60.5 -26.5t22.5 -61.5q1 -35 12 -62q9 -23 28.5 -42.5t56.5 -19.5q27 0 44.5 14.5t26 36.5t7.5 47.5t-11.5 47.5t-32 36.5t-52.5 14.5
q-17 0 -24.5 7.5t-7.5 16.5t6.5 16.5t19.5 7.5h337q38 0 60.5 -26.5t22.5 -60.5zM672 247q0 23 -16.5 37t-37.5 14q-23 0 -39.5 -14.5t-16.5 -35.5q0 -22 17.5 -34.5t39.5 -12.5q20 0 36.5 11.5t16.5 34.5zM179 213q0 23 -16.5 37.5t-38.5 14.5t-38.5 -15t-16.5 -35
q0 -22 17.5 -34.5t39.5 -12.5q19 0 36 11.5t17 33.5z" />
    <glyph glyph-name="quotedblbase" unicode="&#x201e;" horiz-adv-x="251" 
d="M201 205q0 -16 -7 -30.5t-18.5 -26t-26.5 -18t-31 -6.5t-30 7t-25 18t-17.5 26t-6.5 30q0 13 3.5 23.5t14.5 21.5h-242q-6 1 -10 4q-9 5 -9 17t9 17q4 3 10 5h246q-22 25 -22 50q0 32 20.5 47t45.5 15q26 0 42.5 -16.5t16.5 -37.5q0 -11 -10 -15t-18 4q-3 3 -5 8t-5 9
t-8.5 7t-14.5 3q-17 0 -26 -11.5t-9 -22.5q0 -10 7.5 -20t15.5 -20h27q38 0 60.5 -26.5t22.5 -61.5zM175 212q0 23 -16.5 37.5t-38.5 14.5t-38.5 -15t-16.5 -35q0 -22 17.5 -34.5t39.5 -12.5q19 0 36 11.5t17 33.5z" />
    <glyph glyph-name="ellipsis" unicode="&#x2026;" 
d="M-166 405q1 -1 0.5 -13t-6.5 -26.5t-19.5 -26t-37.5 -11.5q-34 0 -49 20t-12 44.5t23 44.5t56 20q31 0 52.5 -14t31.5 -35t8.5 -46t-15 -46t-40 -35t-66.5 -14q-16 0 -39 7t-37 21q-5 5 -4 11.5t5.5 11t10.5 6t12 -4.5q1 -1 6.5 -5t14 -8t20 -7.5t25.5 -3.5
q23 0 41.5 10.5t28.5 26.5t8.5 35.5t-18.5 37.5zM-191 420q-4 4 -15.5 4t-23.5 -4.5t-21.5 -14t-9.5 -25.5q0 -14 11 -22.5t23 -8.5q16 0 25.5 9.5t13 22t2.5 24t-5 15.5z" />
    <glyph glyph-name="dagger" unicode="&#x2020;" 
d="M-101 503q0 -8 -4 -14t-12 -6t-12 4t-4 7q0 5 -8.5 12.5t-20.5 7.5q-14 0 -24 -9t-10 -23q0 -8 3.5 -15.5t8.5 -13.5q36 -11 51.5 -41t9.5 -62.5t-35.5 -57.5t-84.5 -25q-16 0 -39 7t-37 21q-5 5 -4 11.5t5.5 11t10.5 6t12 -4.5q1 -1 6.5 -5t14 -8t20 -7.5t25.5 -3.5
q23 0 41.5 10.5t28.5 26.5t8.5 35.5t-18.5 37.5q1 -1 0 -13t-7 -26.5t-19 -26t-37 -11.5q-34 0 -49 20t-12 44t22.5 44.5t54.5 20.5q-10 18 -10 35q0 26 18.5 44t47.5 18q23 0 41 -14.5t18 -36.5zM-194 420q-4 4 -15.5 4t-24 -4.5t-22 -14t-9.5 -25.5q0 -14 11.5 -22.5
t23.5 -8.5q16 0 25.5 9.5t13 22t2.5 24t-5 15.5z" />
    <glyph glyph-name="daggerdbl" unicode="&#x2021;" 
d="M-269 405q1 -1 0 -13t-7 -26.5t-19 -26t-37 -11.5q-34 0 -49 20t-12.5 44.5t22.5 44.5t56 20q31 0 52.5 -14t32 -35t9 -46t-15 -46t-40.5 -35t-67 -14q-15 0 -38 7t-37 21q-5 5 -4 11.5t5.5 11t10.5 6t12 -4.5q1 -1 6.5 -5t14 -8t20 -7.5t25.5 -3.5q22 0 41 10.5t29 26.5
t8.5 35.5t-18.5 37.5zM-295 420q-4 4 -15.5 4t-23.5 -4.5t-21.5 -14t-9.5 -25.5q0 -14 11.5 -22.5t23.5 -8.5q16 0 25 9.5t12.5 22t2.5 24t-5 15.5z" />
    <glyph glyph-name="circumflex" unicode="&#x2c6;" 
d="M-184 503q0 -8 -3.5 -14t-11.5 -6t-12.5 4t-4.5 7q0 5 -8 12.5t-21 7.5q-14 0 -23.5 -9t-9.5 -23q0 -8 3.5 -15.5t8.5 -13.5q35 -11 51 -41t9.5 -62.5t-36 -57.5t-84.5 -25q-15 0 -38 7t-37 21q-5 5 -4.5 11.5t5 11t11 6t12.5 -4.5q1 -1 6.5 -5t14 -8t20 -7.5t25.5 -3.5
q22 0 41 10.5t29 26.5t8.5 35.5t-18.5 37.5q1 -1 0 -13t-7 -26.5t-19.5 -26t-37.5 -11.5q-34 0 -49 20t-12 44t22.5 44.5t55.5 20.5q-11 17 -11 35q0 26 19 44t48 18q23 0 40.5 -14.5t17.5 -36.5zM-277 420q-4 4 -15.5 4t-23.5 -4.5t-21.5 -14t-9.5 -25.5q0 -14 11.5 -22.5
t23.5 -8.5q16 0 25 9.5t12.5 22t2.5 24t-5 15.5z" />
    <glyph glyph-name="perthousand" unicode="&#x2030;" horiz-adv-x="103" 
d="M76 128q0 -26 -6.5 -49.5t-19.5 -41t-32.5 -27.5t-45.5 -10q-28 0 -48 14t-33.5 35t-21 46t-11 46.5t-4 36.5t1.5 17l16 15q2 0 2.5 -12t2.5 -30t6.5 -38.5t15 -38.5t28 -30t45.5 -12q27 0 44.5 14.5t26 36.5t7.5 47.5t-11.5 47.5t-32 36.5t-52.5 14.5q-17 0 -25 7.5
t-8 16.5t7 16.5t19 7.5q33 0 57 -16t40 -41t24 -54t8 -55z" />
    <glyph glyph-name="Scaron" unicode="&#x160;" horiz-adv-x="313" 
d="M289 206q0 -16 -7 -30.5t-18.5 -26t-26.5 -18t-31 -6.5t-30 7t-25 18t-17.5 26t-6.5 30q0 13 3.5 23.5t14.5 21.5h-110q21 -26 31.5 -59.5t10.5 -63.5q0 -26 -6.5 -49.5t-19.5 -41t-32.5 -27.5t-45.5 -10q-28 0 -48 14t-33.5 35t-21.5 46t-11.5 46.5t-3.5 36.5t2 17
l16 15q2 0 2.5 -12t2.5 -30t7 -38.5t15.5 -38.5t28 -30t44.5 -12t44.5 14.5t26 36.5t7.5 47.5t-12 47.5t-32 36.5t-52 14.5q-17 0 -25 7.5t-8 16.5t7 16.5t19 7.5h258q38 0 60.5 -26.5t22.5 -61.5zM263 213q0 23 -16.5 37.5t-38.5 14.5t-38.5 -15t-16.5 -35
q0 -22 17.5 -34.5t39.5 -12.5q19 0 36 11.5t17 33.5z" />
    <glyph glyph-name="guilsinglleft" unicode="&#x2039;" horiz-adv-x="182" 
d="M157 222q0 -16 -7 -30.5t-18.5 -26t-26.5 -18.5t-31 -7t-30.5 7t-25.5 18.5t-17.5 26.5t-6.5 30q0 12 4 23t15 22h-197q-6 1 -10 4q-4 2 -7 6t-3 11q0 6 3 10t7 7t10 5h258q38 0 60.5 -27t22.5 -61zM131 229q0 23 -16.5 37.5t-38.5 14.5t-38.5 -15t-16.5 -35
q0 -22 17.5 -35t39.5 -13q19 0 36 12t17 34z" />
    <glyph glyph-name="OE" unicode="&#x152;" horiz-adv-x="75" 
d="M35 408q-52 -39 -93 -70q-18 -13 -35 -25.5t-30.5 -22.5t-22.5 -16t-10 -6q-2 0 -14.5 6t-27.5 13.5t-28.5 15.5t-16.5 11q-11 11 -10 22t9 18t20 7t23 -11q4 -4 10.5 -13.5t13 -19.5t12.5 -17.5t9 -7.5q1 0 9 6.5t20 17t26 24.5t29 28l78 76q5 5 13 3t14 -8t7.5 -15
t-5.5 -16z" />
    <glyph glyph-name="c143" horiz-adv-x="450" 
d="M0 220v60h450v-60h-450v0z" />
    <glyph glyph-name="c157" horiz-adv-x="520" 
d="M75 220v60h370v-60h-370v0zM255 40q-25 0 -42.5 17.5t-17.5 42.5t17.5 42.5t42.5 17.5t42.5 -17.5t17.5 -42.5t-17.5 -42.5t-42.5 -17.5v0zM255 340q-25 0 -42.5 17.5t-17.5 42.5t17.5 42.5t42.5 17.5t42.5 -17.5t17.5 -42.5t-17.5 -42.5t-42.5 -17.5v0z" />
    <glyph glyph-name="ft" horiz-adv-x="250" 
d="M0 0v1h1v-1h-1v0z" />
    <glyph glyph-name="quoteleft" unicode="&#x2018;" 
d="M12 -101q0 -6 -4 -8q-2 -2 -4 -2h-120q0 -20 -8.5 -41t-20.5 -38q10 -14 18 -26q7 -11 12.5 -23t5.5 -22q0 -9 -11 -15.5t-21 3.5q-5 4 -5 12.5v18.5t-2 19.5t-9 17.5q-20 -20 -44 -32.5t-56 -12.5q-39 0 -60 18t-22.5 39t18.5 39t64 18q26 0 50 -8.5t48 -30.5
q13 12 18.5 29.5t5.5 30.5q0 21 -12 38.5t-35 17.5q-12 0 -21 -5.5t-14 -11.5q-6 -8 -10 -17q0 -5 -5 -5q-3 0 -6 1.5t-3 3.5q-3 10 -8 18q-5 7 -12 12.5t-19 5.5q-9 0 -15 -5t-9 -12t-3 -14.5t4 -11.5q2 -2 0 -5l-4 -6q-3 -2 -7.5 -1t-6.5 3q-6 6 -9 19.5t0.5 27t15 24
t33.5 10.5q12 0 20.5 -5.5t14.5 -11.5q7 -8 12 -17q5 9 13 17q6 6 15.5 11.5t21.5 5.5q30 0 46 -17.5t21 -47.5h57l-11 45q1 4 3 8q4 8 15 8q6 0 9 -3t5 -6q2 -4 3 -9l-13 -43h53q2 0 4 -1q4 -2 4 -7zM-174 -187q-20 19 -42 25.5t-41 6.5q-30 0 -44.5 -9t-14.5 -20t14.5 -20
t44.5 -9q19 0 43 4.5t40 21.5z" />
    <glyph glyph-name="quoteright" unicode="&#x2019;" 
d="M-87 -154q0 -26 -10 -48.5t-27 -39.5t-39.5 -27t-48.5 -10t-49.5 10t-40.5 27t-27 39.5t-10 48.5t10 49t27 40t40.5 27t49.5 10t48.5 -10t39.5 -27t27 -40t10 -49zM-114 -146q0 19 -8 36.5t-21.5 30.5t-31.5 20.5t-37 7.5q-20 0 -37.5 -7.5t-31.5 -20.5t-22 -30.5
t-8 -36.5q0 -20 8.5 -37t23 -29.5t32 -19.5t35.5 -7q19 0 37 7.5t31.5 20t21.5 29.5t8 36zM-212 -174q-11 0 -16.5 6.5t-5.5 14t5.5 14t16.5 6.5q10 0 15.5 -6.5t5.5 -14t-5 -14t-16 -6.5z" />
    <glyph glyph-name="quotedblleft" unicode="&#x201c;" 
d="M-81 -185q0 -24 -16 -43.5t-48 -19.5q-16 0 -27 7t-19 15q-9 10 -16 22q-7 -12 -17 -22q-8 -8 -19.5 -15t-25.5 -7q-32 0 -51 25t-19 57q0 26 10 51t27.5 44.5t41 31t49.5 11.5q19 0 42.5 -5.5t37.5 -19.5q10 -10 2 -19t-16 -9q-2 0 -7 5t-13.5 11.5t-19.5 11.5t-25 5
q-20 0 -39 -8.5t-34 -23t-24.5 -33t-9.5 -37.5q0 -24 14.5 -42.5t38.5 -18.5q19 0 28.5 8t14.5 18q5 11 5 26q0 1 2 3q3 3 7 3q3 0 6 -3q1 -2 2 -3q1 -15 6 -26q5 -10 15 -18t29 -8q13 0 28 9t15 24q0 8 -5.5 18.5t-15.5 10.5q-8 0 -11.5 -3t-5.5 -6.5t-4 -6.5t-8 -3
q-5 0 -9.5 3.5t-4.5 8.5q0 12 13.5 19t24.5 7q22 0 36.5 -16.5t14.5 -38.5z" />
    <glyph glyph-name="quotedblright" unicode="&#x201d;" horiz-adv-x="161" 
d="M138 -14q0 -46 -9 -92t-28.5 -83.5t-50 -61t-73.5 -23.5q-31 0 -54 10.5t-38.5 27t-23.5 35.5t-8 37q0 20 5.5 39t17.5 33.5t29.5 23t41.5 8.5q31 0 50 -19.5t19 -48.5q0 -35 -20.5 -50t-45.5 -14t-45.5 17.5t-20.5 46.5q-8 -8 -8 -33q0 -10 5 -23.5t16 -25.5t30 -20.5
t46 -8.5q41 0 68 21.5t43.5 55t23 73t6.5 75.5q0 85 -16.5 137t-38.5 80t-44 37t-34 9q-7 0 -12 7t-5.5 15t5 15t19.5 7q33 0 60.5 -24.5t47.5 -66.5t31 -97.5t11 -118.5zM-11 -130q0 18 -9 28t-22 12.5t-27.5 -1.5t-25.5 -15q0 -25 9 -43t37 -18q15 0 26.5 11t11.5 26z" />
    <glyph glyph-name="bullet" unicode="&#x2022;" horiz-adv-x="163" 
d="M102 318q0 -16 -7 -30.5t-18.5 -25.5t-26.5 -17.5t-31 -6.5t-30 6.5t-25 18t-17.5 26t-6.5 29.5q0 12 3.5 23t14.5 22h-24q-19 0 -27.5 -16.5t-8.5 -30.5q-1 -3 -3 -5q-4 -4 -9 -4t-9 4q-2 2 -3 5q0 16 -8.5 31.5t-25.5 15.5h-74q-2 0 -7.5 -1.5t-11 -5.5t-9.5 -11
t-4 -17q0 -18 13 -26.5t31 -8.5h18q6 0 8.5 -4t2 -9t-3 -9t-7.5 -4h-18q-13 0 -27 4t-25.5 13t-19 22.5t-7.5 32.5q0 29 21.5 48t49.5 19h70q12 0 21 -7t15 -15q7 -10 12 -21q6 11 14 21q7 8 16 15t22 7h79q38 0 60.5 -27t22.5 -61zM76 325q0 23 -16.5 37.5t-37.5 14.5
q-23 0 -39.5 -15t-16.5 -35q0 -22 17.5 -35t39.5 -13q20 0 36.5 12t16.5 34z" />
    <glyph glyph-name="endash" unicode="&#x2013;" 
d="M-71 -163q0 -13 -4 -28.5t-13 -28.5t-22 -21.5t-31 -8.5q-16 0 -28 7.5t-20 16.5q-10 11 -16 24q-6 -13 -15 -24q-8 -9 -19 -16.5t-27 -7.5q-18 0 -32 8.5t-23 21.5t-14 28t-5 29q0 26 11.5 50.5t30 43t43 30t50.5 11.5t50.5 -11.5t43 -30t29.5 -43t11 -50.5zM-184 -277
q0 -6 -2 -10q-5 -9 -19 -9t-19 9q-3 4 -3 10q0 4 3 12.5t8 16.5q4 10 11 20q6 -10 10 -20q4 -8 7.5 -16.5t3.5 -12.5zM-99 -152q0 20 -9 38.5t-24 33t-34 23.5t-39 9t-38.5 -9t-33.5 -23.5t-24 -33t-9 -38.5q0 -23 12.5 -42.5t35.5 -19.5q12 0 21 7.5t15 17.5q7 11 12 26
q0 1 2 3q2 4 7 4t7 -4q1 -2 2 -3q5 -15 13 -26q7 -10 16.5 -17.5t21.5 -7.5q23 0 34.5 19.5t11.5 42.5zM-205 -120q-9 0 -14 5.5t-5 12t5 12t14 5.5t14 -5.5t5 -12t-5 -12t-14 -5.5z" />
    <glyph glyph-name="emdash" unicode="&#x2014;" 
d="M0 -294q0 -8 -5.5 -13.5t-12.5 -5.5h-358q-15 0 -28 6t-23.5 16t-16.5 23t-6 28t6 28t16.5 23.5t23.5 16.5t28 6q31 0 52 -21t21 -53q0 -8 -2 -13.5t-4 -10.5q-3 -5 -6 -9h296q7 0 13 -6.5t6 -14.5zM-328 -245q0 18 -15 30.5t-33 12.5q-19 0 -34.5 -12.5t-15.5 -30.5
q0 -19 15.5 -31.5t34.5 -12.5q18 0 33 12.5t15 31.5z" />
    <glyph glyph-name="trademark" unicode="&#x2122;" 
d="M-58 475q0 -11 -10 -15t-18 4q-3 3 -5 7.5t-5 8.5t-8.5 7t-14.5 3q-17 0 -26 -11t-9 -22q0 -9 8.5 -20.5t16.5 -21.5v-1q28 -3 46.5 -23.5t18.5 -49.5q0 -30 -21.5 -51.5t-51.5 -21.5h-57q-5 0 -11 3t-6 9t6 10t11 4h57q15 0 27.5 12.5t12.5 27.5q0 16 -12.5 26t-27.5 10
h-161q-6 0 -13.5 7t-7.5 16t6.5 15.5t14.5 6.5h139q-10 11 -17 23.5t-7 28.5q0 31 20.5 46.5t46.5 15.5q25 0 41.5 -16.5t16.5 -37.5z" />
    <glyph glyph-name="scaron" unicode="&#x161;" horiz-adv-x="125" 
d="M311 341q0 -30 -21.5 -51.5t-51.5 -21.5h-66q-5 0 -11 3t-6 9t6 10t11 4h66q15 0 27.5 12.5t12.5 27.5q0 16 -12.5 26.5t-27.5 10.5h-216q-6 0 -14 6t-8 16q0 9 7 15.5t15 6.5h216q30 0 51.5 -21.5t21.5 -52.5z" />
    <glyph glyph-name="guilsinglright" unicode="&#x203a;" horiz-adv-x="125" 
d="M316 475q0 -11 -9.5 -15t-17.5 4q-3 3 -5.5 7.5t-5.5 8.5t-8.5 7t-14.5 3q-17 0 -26 -11t-9 -22q0 -9 9 -20.5t17 -21.5q27 -3 46 -24t19 -49q0 -31 -21.5 -52.5t-52.5 -21.5h-64q-5 0 -10.5 4t-5.5 10t5.5 9t10.5 3h64q16 0 28.5 13t12.5 28t-13 25.5t-28 10.5h-218
q-6 2 -10 5q-9 5 -9 17t9 17q4 3 10 5h196q-10 11 -17 23.5t-7 28.5q0 31 21 46.5t46 15.5t41.5 -16.5t16.5 -37.5z" />
    <glyph glyph-name="oe" unicode="&#x153;" 
d="M-13 408q-52 -39 -93 -70q-18 -13 -35 -25.5t-31 -22.5t-23 -16t-10 -6q-2 0 -14.5 6t-27.5 13.5t-28 15.5t-16 11q-11 11 -10 22t8.5 18t19.5 7t24 -11q4 -4 10 -13.5t13 -19.5t12.5 -17.5t8.5 -7.5q2 0 10 6.5t19.5 17t26 24.5t29.5 28l78 76q5 5 13 3t14 -8t7.5 -15
t-5.5 -16z" />
    <glyph glyph-name="" horiz-adv-x="170" 
d="M-10 450l-45 50h190l45 -50h-190v0z" />
    <glyph glyph-name="Ydieresis" unicode="&#x178;" 
d="M-40 409q-46 -39 -83 -70q-16 -13 -31.5 -25.5t-28 -22.5t-20.5 -16t-9 -6q-2 0 -14.5 6t-27.5 13.5t-28 15.5t-16 11q-11 11 -10 22.5t8.5 18t19.5 7t24 -11.5q3 -4 9.5 -13.5t13 -19.5t12.5 -17.5t9 -7.5q2 0 9 6.5t17.5 17t23 24.5t25.5 28q30 33 67 76q5 5 13 3
t14 -8t8 -15t-5 -16z" />
    <glyph glyph-name="nonbreakingspace" unicode="&#xa0;" horiz-adv-x="952" 
d="M719 133q0 -74 -28.5 -139.5t-77 -114.5t-114 -77t-139.5 -28q-75 0 -140.5 28t-114 77t-77 114.5t-28.5 139.5q0 75 28.5 140.5t77 114t114 77t140.5 28.5q74 0 139.5 -28.5t114 -77t77 -114t28.5 -140.5zM697 197h-280v270h-118v-270h-271v-118h271v-282h118v282h280
v118z" />
    <glyph glyph-name="exclamdown" unicode="&#xa1;" 
d="M6 409q-52 -39 -93 -70q-18 -13 -35 -25.5t-30.5 -22.5t-22.5 -16t-10 -6q-2 0 -14 6l-27 13.5t-28.5 15.5t-16.5 11q-11 11 -10 22t8.5 18t19.5 7t23 -11q4 -4 10.5 -13.5t13 -19.5t12.5 -17.5t9 -7.5q1 0 9 6.5t20 17t26 24.5t29 28l78 76q6 5 14 3t14 -8t7 -15t-6 -16
z" />
    <glyph glyph-name="cent" unicode="&#xa2;" 
d="M-9 408q-52 -39 -93 -70q-18 -13 -35 -25.5t-31 -22.5t-23 -16t-10 -6q-2 0 -14.5 6t-27.5 13.5t-28 15.5t-16 11q-11 11 -10 22t8.5 18t19.5 7t24 -11q4 -4 10 -13.5t13 -19.5t12.5 -17.5t8.5 -7.5q2 0 10 6.5t19.5 17t26 24.5t29.5 28l78 76q5 5 13 3t14 -8t7.5 -15
t-5.5 -16z" />
    <glyph glyph-name="sterling" unicode="&#xa3;" 
d="M-112 435q-52 -40 -93 -71q-18 -13 -35 -25.5t-31 -22.5t-23 -16t-10 -6q-2 0 -14.5 6t-27.5 14t-28 15.5t-16 10.5q-11 11 -10 22.5t8.5 18t19.5 7t23 -11.5q4 -4 10.5 -13.5t13 -19.5t12.5 -17.5t9 -7.5q2 0 10 6.5t20 17t26 24.5t29 28q34 33 77 77q6 5 14 3t14 -8.5
t7.5 -15t-5.5 -15.5z" />
    <glyph glyph-name="currency" unicode="&#xa4;" horiz-adv-x="305" 
d="M361 -158q0 -15 -13.5 -21t-25.5 -6q-28 0 -44 21.5t-16 47.5q-11 -11 -28 -17.5t-35 -6.5q-25 0 -48 13t-32 37q-8 -22 -31.5 -36t-50.5 -14q-33 0 -58 21t-25 56q0 20 12.5 38.5t35.5 18.5q8 0 14 -5t6 -13q0 -11 -6 -13t-9 -2q-2 0 -4 1t-4 1q-9 0 -15 -7.5t-6 -15.5
q0 -12 5.5 -19.5t14 -11.5t18.5 -5.5t20 -1.5q21 0 35.5 6t23 14t12 15.5t3.5 10.5q0 7 7 7q9 0 9 -5q0 -7 5 -15.5t15 -16t24.5 -13t32.5 -5.5q9 0 18.5 2t17.5 6.5t13 11.5t5 18q0 21 -18 24q-2 1 -4.5 0t-6.5 -1q-5 0 -9 4.5t-4 10.5q0 7 5.5 12.5t13.5 5.5q12 0 21 -6
t15.5 -15t9.5 -19t3 -19q0 -8 -2 -13t-2 -13t2.5 -18t7 -18.5t12 -14t17.5 -5.5q8 0 12.5 4.5t11.5 4.5q8 0 13.5 -6t5.5 -14zM247 86q0 -16 -7.5 -31.5t-23.5 -27.5t-39.5 -19.5t-54.5 -7.5q-21 0 -42.5 6t-39 17.5t-29 28t-11.5 37.5q0 12 6 18t13.5 6.5t14 -3.5t6.5 -10
q0 -16 8 -26t20.5 -15.5t27 -7.5t26.5 -2q44 0 66.5 15t22.5 33q0 10 -3 19t-13 16t-27.5 10.5t-45.5 3.5q-63 0 -89 16.5t-26 48.5q0 16 8.5 31t23.5 26.5t36 18.5t47 7q19 0 49.5 -9t49.5 -28q12 -13 12 -23t-6.5 -16t-16.5 -7t-16 5q-1 1 -6.5 9t-14.5 17.5t-22 17
t-29 7.5q-42 0 -64 -17.5t-22 -38.5t24 -30t62 -9q125 0 125 -86z" />
    <glyph glyph-name="yen" unicode="&#xa5;" horiz-adv-x="186" 
d="M146 227q0 -16 -7 -31t-18.5 -26t-26.5 -18t-31 -7t-30 7t-25 18.5t-17.5 26t-6.5 30.5q0 12 3.5 22.5t14.5 21.5h-301q-6 1 -10 4q-4 2 -7 6t-3 11q0 6 3 10.5t7 6.5q4 3 10 5h362q38 0 60.5 -26.5t22.5 -60.5zM120 234q0 23 -16.5 37t-37.5 14q-23 0 -39.5 -14.5
t-16.5 -35.5q0 -22 17.5 -34.5t39.5 -12.5q20 0 36.5 11.5t16.5 34.5z" />
    <glyph glyph-name="brokenbar" unicode="&#xa6;" horiz-adv-x="186" 
d="M136 224q0 -16 -7 -31t-18.5 -26t-26.5 -18t-31 -7t-30 7t-25 18.5t-17.5 26t-6.5 30.5q0 12 3.5 22.5t14.5 21.5h-324q-5 1 -9 4q-9 5 -9 17t9 17q4 3 9 5h385q38 0 60.5 -26.5t22.5 -60.5zM110 231q0 23 -16.5 37t-37.5 14q-23 0 -39.5 -14.5t-16.5 -35.5
q0 -22 17.5 -34.5t39.5 -12.5q20 0 36.5 11.5t16.5 34.5z" />
    <glyph glyph-name="section" unicode="&#xa7;" horiz-adv-x="213" 
d="M163 235q0 -16 -7 -31t-19 -26t-27 -18t-31 -7q-15 0 -29.5 7t-25.5 18.5t-17.5 26t-6.5 30.5q0 12 3.5 22.5t14.5 21.5h-399q-6 1 -10 4q-9 5 -9 17t9 17q4 3 10 5h460q19 0 34.5 -7.5t26.5 -19.5t17 -27.5t6 -32.5zM137 242q0 23 -16.5 37t-38.5 14t-38.5 -14.5
t-16.5 -35.5q0 -22 17.5 -34.5t39.5 -12.5q19 0 36 11.5t17 34.5z" />
    <glyph glyph-name="dieresis" unicode="&#xa8;" 
d="M-110 405q1 -1 0 -13t-7 -26.5t-19 -26t-37 -11.5q-34 0 -49 20t-12 44.5t23 44.5t56 20q31 0 52.5 -14t31.5 -35t8.5 -46t-15 -46t-40 -35t-66.5 -14q-16 0 -39 7t-37 21q-5 5 -4 11.5t5.5 11t10.5 6t12 -4.5q1 -1 6.5 -5t14 -8t20 -7.5t25.5 -3.5q23 0 41.5 10.5
t28.5 26.5t8.5 35.5t-18.5 37.5zM-135 420q-4 4 -15.5 4t-23.5 -4.5t-21.5 -14t-9.5 -25.5q0 -14 11 -22.5t23 -8.5q16 0 25.5 9.5t13 22t2.5 24t-5 15.5z" />
    <glyph glyph-name="copyright" unicode="&#xa9;" 
d="M-44 503q0 -8 -3.5 -14t-11.5 -6t-12.5 4t-4.5 7q0 5 -8 12.5t-21 7.5t-23 -9t-10 -23q0 -8 3.5 -15.5t8.5 -13.5q36 -11 51.5 -41t9 -62.5t-36 -57.5t-84.5 -25q-15 0 -38 7t-37 21q-5 5 -4 11.5t5.5 11t10.5 6t12 -4.5q1 -1 6.5 -5t14 -8t20 -7.5t25.5 -3.5
q22 0 41 10.5t29 26.5t8.5 35.5t-18.5 37.5q1 -1 0 -13t-7 -26.5t-19 -26t-37 -11.5q-34 0 -49 20t-12.5 44t22 44.5t55.5 20.5q-5 8 -8 17t-3 18q0 26 19 44t48 18q23 0 40.5 -14.5t17.5 -36.5zM-137 420q-4 4 -15.5 4t-23.5 -4.5t-21.5 -14t-9.5 -25.5q0 -14 11.5 -22.5
t23.5 -8.5q16 0 25 9.5t12.5 22t2.5 24t-5 15.5z" />
    <glyph glyph-name="ordfeminine" unicode="&#xaa;" horiz-adv-x="187" 
d="M127 128q0 -26 -6.5 -49.5t-19.5 -41t-33 -27.5t-46 -10q-38 0 -59 18.5t-32 41.5q-12 26 -16 61l8 9q1 -1 5.5 -13.5t15.5 -27.5t29.5 -27.5t48.5 -12.5q27 0 44.5 14.5t26 36.5t7.5 47.5t-11.5 47.5t-32 36.5t-52.5 14.5q-17 0 -24.5 7.5t-8 16.5t6.5 16.5t19 7.5
q33 0 57 -16t40.5 -41t24.5 -54t8 -55z" />
    <glyph glyph-name="guillemotleft" unicode="&#xab;" horiz-adv-x="396" 
d="M336 207q0 -16 -7 -31t-18.5 -26t-26.5 -18t-31 -7t-30 7t-25 18.5t-17.5 26.5t-6.5 30q0 12 3.5 22.5t14.5 21.5h-109q22 -26 33 -59.5t11 -63.5q0 -26 -6.5 -49.5t-19.5 -41t-33 -27.5t-46 -10q-38 0 -59 18.5t-32 41.5q-12 26 -16 61l8 9q1 0 5.5 -13t15 -28
t29.5 -27.5t49 -12.5q27 0 44.5 14.5t26 36.5t7.5 47.5t-11.5 47.5t-32 36.5t-52.5 14.5q-17 0 -24.5 7.5t-8 16.5t6.5 16.5t19 7.5h256q38 0 60.5 -26.5t22.5 -60.5zM310 214q0 23 -16.5 37t-37.5 14q-23 0 -39.5 -14.5t-16.5 -35.5q0 -22 18 -34.5t39 -12.5
q20 0 36.5 11.5t16.5 34.5z" />
    <glyph glyph-name="logicalnot" unicode="&#xac;" horiz-adv-x="100" 
 />
    <glyph glyph-name="minus" unicode="&#x2212;" 
d="M-161 -248q0 -4 -2 -7q-4 -6 -17 -6t-17 6q-2 3 -2 7q0 2 2.5 8t6.5 11l10 14q5 -8 9 -14q4 -5 7 -11t3 -8zM-120 -230q-23 0 -37.5 12t-23.5 26q-6 -17 -21.5 -27.5t-40.5 -10.5q-26 0 -41.5 15.5t-23.5 32.5q-10 -22 -33.5 -35t-53.5 -13q-19 0 -36 6t-29.5 16t-20 24
t-7.5 29q0 16 7.5 29.5t20 23.5t29.5 16t36 6t36 -6t30 -16t20.5 -23.5t7.5 -29.5v-5q2 -5 7 -13t12 -15t17 -12t22 -5q26 0 39 15.5t12 34.5t-16.5 34.5t-45.5 15.5q-10 0 -14.5 4t-4.5 8.5t4 8.5t11 4q21 0 36 -8t25 -20.5t15.5 -27.5t5.5 -28q6 -12 19.5 -26.5
t36.5 -14.5q26 0 38.5 15.5t11.5 34.5t-16.5 34.5t-44.5 15.5q-10 0 -14.5 4t-4.5 8.5t3.5 8.5t10.5 4q35 0 56.5 -23.5t25.5 -51.5t-11.5 -51.5t-54.5 -23.5zM-320 -150q0 23 -22.5 39.5t-51.5 16.5t-51.5 -16.5t-22.5 -39.5q0 -12 6.5 -22t17 -17.5t24 -11.5t26.5 -4
q29 0 51.5 16t22.5 39z" />
    <glyph glyph-name="registered" unicode="&#xae;" horiz-adv-x="212" 
d="M158 328q0 -16 -7 -31t-18.5 -26t-26.5 -18t-31 -7t-30 7t-25 18.5t-17.5 26.5t-6.5 30q0 12 3.5 22.5t14.5 21.5h-97q11 -8 16 -20.5t5 -26.5q0 -24 -17 -40.5t-42 -16.5h-80q-5 0 -10.5 4t-5.5 10t5.5 9t10.5 3h69q17 0 28.5 10.5t11.5 27.5t-11.5 28.5t-28.5 11.5
h-126q-7 0 -15 6t-8 15t7.5 15.5t15.5 6.5h333q38 0 60.5 -26.5t22.5 -60.5zM132 335q0 23 -16 37t-38 14q-23 0 -39.5 -14.5t-16.5 -35.5q0 -22 18 -34.5t39 -12.5q20 0 36.5 11.5t16.5 34.5z" />
    <glyph glyph-name="macron" unicode="&#xaf;" horiz-adv-x="163" 
d="M113 225q0 -16 -7 -31t-18.5 -26t-26.5 -18t-31 -7t-30.5 7t-25.5 18.5t-17.5 26t-6.5 30.5q0 12 4 22.5t15 21.5h-342q-6 1 -10 4q-4 2 -7 6t-3 11q0 6 3 10.5t7 6.5q4 3 10 5h403q38 0 60.5 -26.5t22.5 -60.5zM87 232q0 23 -16.5 37t-38.5 14t-38.5 -14.5t-16.5 -35.5
q0 -22 17.5 -34.5t39.5 -12.5q19 0 36 11.5t17 34.5z" />
    <glyph glyph-name="degree" unicode="&#xb0;" horiz-adv-x="205" 
d="M150 206q0 -16 -7 -30.5t-18.5 -26t-26.5 -18t-31 -6.5t-30 7t-25 18t-17.5 26t-6.5 30q0 13 3.5 23.5t14.5 21.5h-182q-8 0 -13.5 4t-5.5 17t4 17.5t15 4.5h243q38 0 60.5 -26.5t22.5 -61.5zM124 213q0 23 -16.5 37.5t-38.5 14.5t-38.5 -15t-16.5 -35q0 -22 17.5 -34.5
t39.5 -12.5q19 0 36 11.5t17 33.5z" />
    <glyph glyph-name="plusminus" unicode="&#xb1;" horiz-adv-x="91" 
d="M39 86q0 -35 -10.5 -68t-30 -58.5t-47.5 -41t-63 -15.5q-39 0 -65.5 20.5t-42 44.5t-20 44.5t2.5 20.5q9 -26 26 -46q14 -17 36.5 -31.5t54.5 -14.5q27 0 51 12t42.5 33t29.5 48.5t11 58.5q0 42 -11.5 73t-25.5 52.5t-25.5 35.5t-11.5 23q0 11 8 16.5t24 -10.5
q18 -28 33 -60q13 -27 23.5 -62.5t10.5 -74.5z" />
    <glyph glyph-name="twosuperior" unicode="&#xb2;" horiz-adv-x="284" 
d="M232 207q0 -16 -7 -31t-18.5 -26t-26.5 -18t-31 -7t-30 7t-25 18.5t-17.5 26.5t-6.5 30q0 12 3.5 22.5t14.5 21.5h-95q8 -16 16 -36.5t15 -42.5t11 -44.5t4 -41.5q0 -33 -10 -66t-29.5 -59.5t-47.5 -43.5t-64 -17q-29 0 -53.5 13.5t-42 33t-27 40t-9.5 34.5q0 8 7 12
q6 -18 17.5 -35t27 -30t34 -21t38.5 -8q27 0 51 12.5t42.5 33.5t29.5 49t11 59q0 39 -12 69.5t-26 53t-26 37.5t-12 23q0 6 5 12t11 6h195q38 0 60.5 -26.5t22.5 -60.5zM206 214q0 23 -16.5 37t-37.5 14q-23 0 -39.5 -14.5t-16.5 -35.5q0 -22 17.5 -34.5t39.5 -12.5
q20 0 36.5 11.5t16.5 34.5z" />
    <glyph glyph-name="threesuperior" unicode="&#xb3;" horiz-adv-x="375" 
d="M313 128q0 -26 -6.5 -49.5t-19.5 -41t-32.5 -27.5t-45.5 -10q-19 0 -33.5 6.5t-25.5 16.5t-19 22.5t-14 25.5q-11 -32 -34.5 -51.5t-60.5 -19.5q-38 0 -59 18t-32 41q-13 26 -17 60l8 10q3 0 7 -12.5t14 -27.5t28.5 -27.5t50.5 -12.5q27 0 44.5 14.5t26 36.5t8 47.5
t-10.5 47.5t-29.5 36.5t-47.5 14.5q-17 0 -24.5 7.5t-7.5 16.5t6.5 16.5t19.5 7.5q29 0 51.5 -16t37.5 -41t22.5 -54t7.5 -55q1 -2 3.5 -14.5t11 -26.5t24 -26t44.5 -12q27 0 44.5 14.5t26 36.5t7.5 47.5t-11.5 47.5t-32 36.5t-52.5 14.5q-17 0 -24.5 7.5t-8 16.5t6.5 16.5
t19 7.5q33 0 57 -16t40 -41t24 -54t8 -55z" />
    <glyph glyph-name="acute" unicode="&#xb4;" horiz-adv-x="585" 
d="M524 207q0 -16 -7 -31t-19 -26t-27 -18t-31 -7t-30 7t-25 18.5t-17.5 26.5t-6.5 30q0 12 3.5 22.5t14.5 21.5h-108q21 -26 32 -59.5t11 -63.5q0 -26 -6.5 -49.5t-19.5 -41t-32.5 -27.5t-45.5 -10q-38 0 -60 22.5t-33 48.5q-11 -32 -34.5 -51.5t-60.5 -19.5
q-38 0 -59 18.5t-32 41.5q-13 26 -17 60l8 9q1 -1 6 -13.5t15.5 -27.5t29.5 -27t49 -12q26 0 43.5 14.5t26 36.5t8.5 47.5t-10 47.5t-29 36.5t-48 14.5q-17 0 -24.5 7.5t-7.5 16.5t6.5 16.5t19.5 7.5q30 0 52 -16t37 -41t22.5 -54t7.5 -55q1 -2 3.5 -14.5t11 -26.5t24.5 -26
t45 -12q27 0 44.5 14.5t26 36.5t7.5 47.5t-12 47.5t-32 36.5t-52 14.5q-17 0 -25 7.5t-8 16.5t6.5 16.5t19.5 7.5h255q38 0 61 -26.5t23 -60.5zM497 214q0 23 -16 37t-38 14q-23 0 -39.5 -14.5t-16.5 -35.5q0 -22 18 -34.5t39 -12.5q20 0 36.5 11.5t16.5 34.5z" />
    <glyph glyph-name="mu" unicode="&#xb5;" 
d="M-82 342q0 -31 -21.5 -53t-52.5 -22h-59q-5 0 -9.5 3.5t-4.5 9.5t4.5 9.5t9.5 3.5h59q16 0 28.5 13.5t12.5 28.5t-12.5 26t-28.5 11h-233q-6 0 -14 6t-8 15t7 15.5t15 6.5h233q31 0 52.5 -21.5t21.5 -51.5z" />
    <glyph glyph-name="paragraph" unicode="&#xb6;" 
d="M-77 475q0 -11 -9.5 -15t-17.5 4q-3 3 -5.5 7.5t-5.5 8.5t-8.5 7t-14.5 3q-17 0 -25.5 -11t-8.5 -22q0 -9 8 -21t16 -22q28 -3 47 -23.5t19 -48.5q0 -31 -21.5 -53t-52.5 -22h-59q-13 0 -13 14q0 12 13 12h59q15 0 28 13.5t13 28.5t-13 26t-28 11h-236q-6 1 -10 4
q-9 5 -9 17t9 17q4 3 10 5h214q-9 11 -16.5 23.5t-7.5 28.5q0 31 21 46.5t46 15.5q26 0 42 -16.5t16 -37.5z" />
    <glyph glyph-name="periodcentered" unicode="&#xb7;" horiz-adv-x="64" 
d="M329 353q0 -31 -21.5 -52.5t-52.5 -21.5h-120q-5 0 -11 4t-6 10t6 9t11 3h120q16 0 28.5 13t12.5 28t-12.5 26t-28.5 11h-233q-6 0 -14 6t-8 15t7 15.5t15 6.5h233q31 0 52.5 -21.5t21.5 -51.5z" />
    <glyph glyph-name="cedilla" unicode="&#xb8;" horiz-adv-x="57" 
d="M322 486q0 -11 -10 -15t-18 4q-3 3 -5 7.5t-5 8.5t-8.5 7t-14.5 3q-17 0 -26 -11t-9 -22q0 -9 8.5 -20.5t16.5 -21.5q27 -3 46 -24t19 -49q0 -31 -21.5 -52.5t-51.5 -21.5h-121q-5 0 -11 4t-6 10t6 9t11 3h121q15 0 27.5 13t12.5 28t-12.5 26t-27.5 11h-234q-6 1 -10 4
q-9 5 -9 17t9 17q4 3 10 5h211q-9 11 -16 23.5t-7 28.5q0 31 20.5 46.5t45.5 15.5q26 0 42.5 -16.5t16.5 -37.5z" />
    <glyph glyph-name="onesuperior" unicode="&#xb9;" horiz-adv-x="160" 
d="M24 407q41 -3 62 -28.5t21 -55.5t-20.5 -55.5t-62.5 -28.5q-16 -1 -30 5.5t-25 18t-17.5 26.5t-6.5 30q0 12 3.5 23t14.5 22h-24q-19 0 -27.5 -16.5t-8.5 -30.5q-1 -3 -3 -5q-4 -4 -9 -4t-9 4q-2 2 -3 5q0 16 -8.5 31.5t-25.5 15.5h-54q-2 0 -7.5 -1.5t-11 -5.5t-10 -11
t-4.5 -17q0 -18 13 -26.5t31 -8.5h3q7 0 10.5 -4t4 -9t-3 -9t-11.5 -4h-3q-13 0 -27 4t-25.5 13t-19 22.5t-7.5 32.5q0 29 22 48t50 19h50q12 0 21 -7t15 -15q7 -10 12 -21q6 11 14 21q7 8 16 15t22 7h79zM81 326q0 23 -16.5 37.5t-37.5 14.5q-23 0 -39.5 -15t-16.5 -35
q0 -22 17.5 -35t39.5 -13q20 0 36.5 12t16.5 34z" />
    <glyph glyph-name="ordmasculine" unicode="&#xba;" horiz-adv-x="160" 
d="M21 407q29 0 48 -12.5t28.5 -31t9 -40.5t-10 -40.5t-27.5 -31t-45 -12.5q-16 0 -30 6.5t-25 18t-17.5 26t-6.5 29.5q0 12 3.5 23t14.5 22h-24q-19 0 -27.5 -16.5t-8.5 -30.5q-1 -3 -3 -5q-4 -4 -9 -4t-9 4q-2 2 -3 5q0 16 -8.5 31.5t-25.5 15.5h-54q-2 0 -7.5 -1.5
t-11 -5.5t-10 -11t-4.5 -17q0 -18 13 -26.5t31 -8.5h4q6 0 9.5 -4t3.5 -9t-3 -9t-10 -4h-4q-13 0 -27 4t-25.5 13t-19 22.5t-7.5 32.5q0 29 22 48t50 19h50q12 0 21.5 -7t15.5 -15q7 -10 12 -21q5 11 13 21q7 8 16 15t22 7h46q-12 13 -19.5 26.5t-7.5 27.5q0 32 20.5 47
t46.5 15q25 0 41.5 -16.5t16.5 -37.5q0 -11 -9.5 -15t-18.5 4q-3 3 -5 7.5t-5 8.5t-8.5 7t-14.5 3q-17 0 -26 -11t-9 -22t10 -22t18 -22zM81 326q0 23 -16.5 37.5t-37.5 14.5q-23 0 -39.5 -15t-16.5 -35q0 -22 17.5 -35t39.5 -13q20 0 36.5 12t16.5 34z" />
    <glyph glyph-name="guillemotright" unicode="&#xbb;" horiz-adv-x="228" 
d="M176 283q0 -16 -7 -30.5t-19 -25.5t-27 -17.5t-31 -6.5q-15 0 -29.5 6.5t-25.5 18t-17.5 26t-6.5 29.5q0 12 3.5 23t14.5 22h-206q-19 0 -27.5 -16.5t-8.5 -30.5q-2 -3 -4 -5q-4 -4 -9 -4t-9 4q-2 2 -2 5q0 16 -9 31.5t-26 15.5h-72q-2 0 -7.5 -1.5t-11 -5.5t-10 -11
t-4.5 -17q0 -18 13 -28.5t31 -10.5q6 0 8.5 -3.5t2 -8t-3 -8t-7.5 -3.5q-13 0 -27 4t-25.5 13t-19 23t-7.5 33q0 29 22.5 48t49.5 19h68q12 0 21.5 -7t15.5 -15q7 -10 12 -21q5 11 13 21q7 8 16 15t22 7h262q19 0 34.5 -7.5t26.5 -19.5t17 -28t6 -33zM149 290q0 23 -16 37.5
t-38 14.5t-38.5 -15t-16.5 -35q0 -22 17.5 -35t39.5 -13q19 0 35.5 12t16.5 34z" />
    <glyph glyph-name="onequarter" unicode="&#xbc;" horiz-adv-x="228" 
d="M176 283q0 -16 -7 -30.5t-19 -25.5t-27 -17.5t-31 -6.5q-15 0 -29.5 6.5t-25.5 18t-17.5 26t-6.5 29.5q0 12 3.5 23t14.5 22h-206q-19 0 -27.5 -16.5t-8.5 -30.5q-2 -3 -4 -5q-4 -4 -9 -4t-9 4q-2 2 -2 5q0 16 -9 31.5t-26 15.5h-72q-2 0 -7.5 -1.5t-11 -5.5t-10 -11
t-4.5 -17q0 -18 13 -28.5t31 -10.5q6 0 8.5 -3.5t2 -8t-3 -8t-7.5 -3.5q-13 0 -27 4t-25.5 13t-19 23t-7.5 33q0 29 22.5 48t49.5 19h68q12 0 21.5 -7t15.5 -15q7 -10 12 -21q5 11 13 21q7 8 16 15t22 7h229q-12 13 -19 26.5t-7 27.5q0 32 20.5 47t45.5 15q26 0 42.5 -16.5
t16.5 -37.5q0 -11 -10 -15t-18 4q-3 3 -5 7.5t-5 8.5t-8.5 7t-14.5 3q-17 0 -26 -11t-9 -22t9 -22t17 -22q38 0 63 -25t25 -63zM149 290q0 23 -16 37.5t-38 14.5t-38.5 -15t-16.5 -35q0 -22 17.5 -35t39.5 -13q19 0 35.5 12t16.5 34z" />
    <glyph glyph-name="onehalf" unicode="&#xbd;" horiz-adv-x="186" 
d="M146 328q0 -16 -7 -31t-18.5 -26t-26.5 -18t-31 -7t-30 7t-25 18.5t-17.5 26.5t-6.5 30q0 12 3.5 22.5t14.5 21.5h-97q11 -8 16 -20.5t5 -26.5q0 -24 -17.5 -40.5t-41.5 -16.5h-167q-5 0 -11 4t-6 10t6 9t11 3h156q17 0 28.5 10.5t11.5 27.5t-11.5 28.5t-28.5 11.5h-151
q-6 0 -14 6t-8 15q-1 9 6.5 15.5t15.5 6.5h358q38 0 60.5 -26.5t22.5 -60.5zM120 335q0 23 -16 37t-38 14q-23 0 -39.5 -14.5t-16.5 -35.5q0 -22 18 -34.5t39 -12.5q20 0 36.5 11.5t16.5 34.5z" />
    <glyph glyph-name="threequarters" unicode="&#xbe;" horiz-adv-x="212" 
d="M75 415q27 0 45 -12.5t27.5 -31.5t9.5 -40.5t-8.5 -40.5t-27 -31.5t-46.5 -12.5q-16 0 -30 7t-25 18.5t-17.5 26.5t-6.5 30q0 12 3.5 22.5t14.5 21.5h-97q11 -8 16 -20.5t5 -26.5q0 -24 -17 -40.5t-42 -16.5h-71q-5 0 -10.5 4t-5.5 10t5.5 9t10.5 3h60q17 0 28.5 10.5
t11.5 27.5t-11.5 28.5t-28.5 11.5h-70q-7 0 -15 6t-8 15t7.5 15.5t15.5 6.5h277zM132 335q0 23 -16 37t-38 14q-23 0 -39.5 -14.5t-16.5 -35.5q0 -22 18 -34.5t39 -12.5q20 0 36.5 11.5t16.5 34.5z" />
    <glyph glyph-name="questiondown" unicode="&#xbf;" horiz-adv-x="228" 
d="M93 371q42 0 62.5 -26.5t20 -58.5t-21 -58.5t-61.5 -26.5q-16 0 -30.5 7t-25.5 18.5t-17.5 26.5t-6.5 30q0 26 19 45h-241q11 -8 16 -20.5t5 -26.5q0 -25 -17 -41t-41 -16h-147q-5 0 -11 3.5t-6 10.5q0 6 6 9t11 3h136q17 0 28.5 10.5t11.5 27.5t-11.5 28.5t-28.5 11.5
h-131q-6 0 -14 6t-8 15t7 15.5t15 6.5h481zM150 290q0 23 -16.5 37.5t-38.5 14.5t-38.5 -15t-16.5 -35q0 -22 17.5 -35t39.5 -13q19 0 36 12t17 34z" />
    <glyph glyph-name="Agrave" unicode="&#xc0;" 
d="M-2 458q0 -8 -6 -14.5t-14 -6.5h-206q-10 0 -18.5 -8t-8.5 -18q0 -11 10.5 -20.5t21.5 -9.5h130q8 0 12 -5t4 -12q0 -11 -7 -14.5t-16 -3.5h-118q-9 0 -15.5 -10t-6.5 -18q0 -11 5 -17.5t16 -6.5h36q5 0 7.5 -4.5t2.5 -9.5q0 -3 -2.5 -7.5t-5.5 -4.5h-36q-26 0 -38 16
t-12 33q0 11 6.5 22.5t16.5 17.5l-1 2q-17 7 -28.5 24.5t-11.5 35.5q0 25 20 43.5t45 18.5h199q8 0 13.5 -8t5.5 -15z" />
    <glyph glyph-name="Aacute" unicode="&#xc1;" horiz-adv-x="163" 
d="M15 407q28 0 47 -12.5t28.5 -31t10 -40.5t-9 -40.5t-28 -31t-45.5 -12.5q-16 0 -30 6.5t-25 18t-17.5 26t-6.5 29.5q0 12 3.5 23t14.5 22h-24q-19 0 -27.5 -16.5t-8.5 -30.5q-1 -3 -3 -5q-4 -4 -9 -4t-9 4q-2 2 -3 5q0 16 -8.5 31.5t-25.5 15.5h-74q-2 0 -7.5 -1.5
t-11 -5.5t-10 -11t-4.5 -17q0 -18 13 -26.5t31 -8.5h17q5 0 8 -4t3.5 -9t-2.5 -9t-9 -4h-17q-13 0 -27 4t-25.5 13t-19 22.5t-7.5 32.5q0 29 22 48t50 19h70q12 0 21.5 -7t15.5 -15q7 -10 12 -21q5 11 13 21q7 8 16 15t22 7h46q-12 13 -19.5 26.5t-7.5 27.5q0 32 20.5 47
t46.5 15q25 0 41.5 -16.5t16.5 -37.5q0 -11 -9.5 -15t-18.5 4q-3 3 -5 7.5t-5 8.5t-8.5 7t-14.5 3q-17 0 -26 -11t-9 -22t10 -22t18 -22zM75 326q0 23 -16.5 37.5t-37.5 14.5q-23 0 -39.5 -15t-16.5 -35q0 -22 17.5 -35t39.5 -13q20 0 36.5 12t16.5 34z" />
    <glyph glyph-name="Acircumflex" unicode="&#xc2;" 
d="M7 458q0 -7 -5.5 -14t-13.5 -7h-247q-9 0 -18 -8t-9 -18q0 -11 11 -20.5t21 -9.5h120q8 0 12.5 -5t4.5 -12q0 -11 -7.5 -14.5t-16.5 -3.5h-107q-9 0 -16 -9.5t-7 -17.5q0 -11 6.5 -18t14.5 -7h67q5 0 7.5 -4.5t2.5 -9.5q0 -2 -3 -7t-6 -5h-65q-25 0 -37.5 16t-12.5 33
q0 11 6.5 23t15.5 18l-1 1q-17 7 -28 24.5t-11 36.5q0 24 20 43t44 19h239q8 0 13.5 -8t5.5 -16z" />
    <glyph glyph-name="Atilde" unicode="&#xc3;" 
d="M-96 457q0 -8 -5.5 -15t-13.5 -7h-247q-9 0 -18 -8t-9 -18q0 -11 11 -20.5t21 -9.5l110 1q8 0 12.5 -5t4.5 -13q0 -11 -7.5 -14.5t-16.5 -3.5h-97q-9 0 -16 -9.5t-7 -17.5q0 -11 6.5 -17t14.5 -6h66q5 0 8 -4.5t3 -9.5q0 -3 -3 -7.5t-6 -4.5h-65q-22 0 -36 15t-14 33
q0 11 6.5 22.5t15.5 17.5l-1 1q-17 8 -28 25.5t-11 35.5q0 25 20 43.5t44 18.5h239q8 0 13.5 -8t5.5 -15z" />
    <glyph glyph-name="Adieresis" unicode="&#xc4;" 
d="M-191 -281q0 -6 -3 -10q-5 -9 -21 -9q-9 0 -13.5 2.5t-6.5 6.5q-3 4 -2 10q0 4 3 12.5t8 16.5q4 10 11 21q7 -11 12 -21q5 -8 8.5 -16.5t3.5 -12.5z" />
    <glyph glyph-name="Aring" unicode="&#xc5;" 
d="M-192 -14q1 -4 2 -10t-1 -11.5t-7.5 -9.5t-15.5 -4q-20 0 -22.5 12.5t0.5 21.5q1 3 4.5 10.5t7.5 15.5q4 9 10 19q6 -10 10 -19q4 -8 7 -15t5 -10z" />
    <glyph glyph-name="AE" unicode="&#xc6;" 
d="M-202 -14q1 -4 2 -10t-1 -11.5t-7.5 -9.5t-15.5 -4q-20 0 -22.5 12.5t0.5 21.5q1 3 4.5 10.5t7.5 15.5q4 9 10 19q6 -10 10 -19q4 -8 7 -15t5 -10z" />
    <glyph glyph-name="Ccedilla" unicode="&#xc7;" 
d="M-214 172q-12 0 -18.5 7.5t-6.5 16.5t6.5 16.5t18.5 7.5t18.5 -7.5t6.5 -16.5t-6.5 -16.5t-18.5 -7.5zM-192 -14q1 -4 2 -10t-1 -11.5t-7.5 -9.5t-15.5 -4q-20 0 -22.5 12.5t0.5 21.5q1 3 4.5 10.5t7.5 15.5q4 9 10 19q6 -10 10 -19q4 -8 7 -15t5 -10z" />
    <glyph glyph-name="Egrave" unicode="&#xc8;" 
d="M-195 136q-13 0 -19.5 7.5t-6.5 16t6 16t19 7.5q12 0 18.5 -7.5t6.5 -16t-6 -16t-18 -7.5z" />
    <glyph glyph-name="Eacute" unicode="&#xc9;" horiz-adv-x="505" 
d="M138 267q-42 0 -64 -17.5t-22 -38.5t24 -30t62 -9q125 0 125 -86q0 -16 -7.5 -31.5t-23.5 -27.5t-39.5 -19.5t-54.5 -7.5q-21 0 -42.5 6t-39 17.5t-29 28t-11.5 37.5q0 12 6 18t13.5 6.5t14 -3.5t6.5 -10q0 -16 8 -26t20.5 -15.5t27 -7.5t26.5 -2q44 0 66.5 15t22.5 33
q0 10 -3 19t-13 16t-27.5 10.5t-45.5 3.5q-63 0 -89 16.5t-26 48.5q0 23 17.5 44t49.5 32q-15 8 -28.5 16.5t-15.5 10.5q-11 11 -10 23t9 19t20 7.5t24 -11.5q3 -4 8 -12.5t11 -17.5t12 -17t11 -11h2h4q10 7 31 27.5t44 43.5l28.5 28.5t30.5 31.5q5 5 13 2.5t14 -9t7.5 -15
t-5.5 -15.5q-11 -8 -21.5 -15.5t-21.5 -15.5q-23 -17 -46 -33t-46 -34q8 -3 19.5 -7t25.5 -14.5t30 -30.5t34 -54q9 -18 16.5 -37.5t18.5 -34.5t27.5 -24.5t43.5 -8.5q26 1 43.5 14.5t26 33.5t7.5 42.5t-11.5 42t-31 32.5t-50.5 13q-16 0 -23.5 6t-7.5 12.5t6.5 12.5t18.5 6
q31 0 55 -14.5t39.5 -36.5t23.5 -48t8 -49q0 -48 -26.5 -79.5t-77.5 -31.5q-30 0 -49.5 12t-32.5 31t-22.5 42.5t-21.5 47.5q-14 28 -34.5 56.5t-52.5 38.5q-7 2 -13.5 3t-15.5 1zM377 -158q0 -15 -13.5 -21t-25.5 -6q-28 0 -44 21.5t-16 47.5q-11 -11 -28 -17.5t-35 -6.5
q-25 0 -48 13t-32 37q-8 -22 -31.5 -36t-50.5 -14q-33 0 -58 21t-25 56q0 20 12.5 38.5t35.5 18.5q8 0 14 -5t6 -13q0 -11 -6 -13t-9 -2q-2 0 -4 1t-4 1q-9 0 -15 -7.5t-6 -15.5q0 -12 5.5 -19.5t14 -11.5t18.5 -5.5t20 -1.5q21 0 35.5 6t23 14t12 15.5t3.5 10.5q0 7 7 7
q9 0 9 -5q0 -7 5 -15.5t15 -16t24.5 -13t32.5 -5.5q9 0 18.5 2t17.5 6.5t13 11.5t5 18q0 21 -18 24q-2 1 -4.5 0t-6.5 -1q-5 0 -9 4.5t-4 10.5q0 7 5.5 12.5t13.5 5.5q12 0 21 -6t15.5 -15t9.5 -19t3 -19q0 -8 -2 -13t-2 -13t2.5 -18t7 -18.5t12 -14t17.5 -5.5q8 0 12.5 4.5
t11.5 4.5q8 0 13.5 -6t5.5 -14z" />
    <glyph glyph-name="Ecircumflex" unicode="&#xca;" horiz-adv-x="699" 
d="M87 257q-17 -8 -26 -20.5t-9 -25.5q0 -21 24 -30t62 -9q125 0 125 -86q0 -16 -7.5 -31.5t-23.5 -27.5t-39.5 -19.5t-54.5 -7.5q-21 0 -42.5 6t-39 17.5t-29 28t-11.5 37.5q0 12 6 18t13.5 6.5t14 -3.5t6.5 -10q0 -16 8 -26t20.5 -15.5t27 -7.5t26.5 -2q44 0 66.5 15
t22.5 33q0 10 -3 19t-13 16t-27.5 10.5t-45.5 3.5q-63 0 -89 16.5t-26 48.5q0 23 17 44t48 31q-16 9 -29 17.5t-15 10.5q-11 11 -10 23t9 19t20 7.5t24 -11.5q3 -4 8 -12.5t11 -17.5t12 -17t11 -11h6q10 7 31 27.5t44 43.5l28.5 28.5t30.5 31.5q5 5 13 2.5t14 -9t7.5 -15
t-5.5 -15.5q-11 -8 -21.5 -15.5t-21.5 -15.5q-23 -17 -46 -33t-46 -34q8 -3 19.5 -7t25.5 -14.5t30 -30.5t34 -54q9 -18 16.5 -37.5t18.5 -34.5t27.5 -24.5t43.5 -8.5q26 1 43.5 14.5t26 33.5t7.5 42.5t-11.5 42t-31 32.5t-50.5 13q-11 0 -23 6t-12 21q0 6 3 10t7 7t10 5
h234q38 0 60.5 -27t22.5 -61q0 -16 -7 -30.5t-18.5 -26t-26.5 -18.5t-31 -7t-30.5 7t-25.5 18.5t-17.5 26.5t-6.5 30q0 12 4 23t15 22h-87q25 -23 37 -55.5t12 -61.5q0 -48 -26.5 -79.5t-77.5 -31.5q-30 0 -49.5 12t-32.5 31t-22.5 42.5t-21.5 47.5q-8 16 -18.5 34t-24 32
t-31 23.5t-39.5 9.5q-13 0 -27 -2.5t-25 -7.5zM377 -158q0 -15 -13.5 -21t-25.5 -6q-28 0 -44 21.5t-16 47.5q-11 -11 -28 -17.5t-35 -6.5q-25 0 -48 13t-32 37q-8 -22 -31.5 -36t-50.5 -14q-33 0 -58 21t-25 56q0 20 12.5 38.5t35.5 18.5q8 0 14 -5t6 -13q0 -11 -6 -13
t-9 -2q-2 0 -4 1t-4 1q-9 0 -15 -7.5t-6 -15.5q0 -12 5.5 -19.5t14 -11.5t18.5 -5.5t20 -1.5q21 0 35.5 6t23 14t12 15.5t3.5 10.5q0 7 7 7q9 0 9 -5q0 -7 5 -15.5t15 -16t24.5 -13t32.5 -5.5q9 0 18.5 2t17.5 6.5t13 11.5t5 18q0 21 -18 24q-2 1 -4.5 0t-6.5 -1
q-5 0 -9 4.5t-4 10.5q0 7 5.5 12.5t13.5 5.5q12 0 21 -6t15.5 -15t9.5 -19t3 -19q0 -8 -2 -13t-2 -13t2.5 -18t7 -18.5t12 -14t17.5 -5.5q8 0 12.5 4.5t11.5 4.5q8 0 13.5 -6t5.5 -14zM638 225q0 23 -16.5 37.5t-38.5 14.5t-38.5 -15t-16.5 -35q0 -22 17.5 -35t39.5 -13
q19 0 36 12t17 34z" />
    <glyph glyph-name="Edieresis" unicode="&#xcb;" 
 />
    <glyph glyph-name="Igrave" unicode="&#xcc;" 
d="M-71 -164q0 -13 -4 -28.5t-13 -28.5t-22 -21.5t-31 -8.5q-16 0 -28 7.5t-20 16.5q-10 11 -16 24q-6 -13 -15 -24q-8 -9 -19 -16.5t-27 -7.5q-18 0 -32 8.5t-23 21.5t-14 28t-5 29q0 26 11.5 50.5t30 43t43 30t50.5 11.5t50.5 -11.5t43 -30t29.5 -43t11 -50.5zM-99 -153
q0 20 -9 38.5t-24 33t-34 23.5t-39 9t-38.5 -9t-33.5 -23.5t-24 -33t-9 -38.5q0 -23 12.5 -42.5t35.5 -19.5q12 0 21 7.5t15 17.5q7 11 13 26q1 1 2 3q2 4 6 4q5 0 7 -4q1 -2 2 -3q5 -15 13 -26q7 -10 16.5 -17.5t21.5 -7.5q23 0 34.5 19.5t11.5 42.5z" />
    <glyph glyph-name="Iacute" unicode="&#xcd;" horiz-adv-x="420" 
d="M368 172q0 -44 -15 -76t-40.5 -53.5t-59 -32t-70.5 -10.5q-36 0 -69.5 10.5t-58.5 32.5t-40 54.5t-15 76.5q0 16 5 37t15.5 39.5t27.5 31t40 12.5q24 0 43 -18.5t19 -43.5q0 -26 -18 -46.5t-44 -20.5q-19 0 -32.5 8t-27.5 23l-2 -10q-1 -4 -1 -8v-6q0 -36 15 -60t38 -38
t51 -19.5t54 -5.5t54.5 5.5t52 19.5t38.5 38t15 60q0 13 -4.5 27t-12 25t-19 18.5t-24.5 7.5q-17 0 -23 -10t-6 -22q0 -15 7 -25t16 -17t16 -13t7 -14q0 -5 -2.5 -7.5l-4.5 -4.5q-4 -2 -7 -2h-122q-3 0 -6 2q-5 3 -5 10q0 8 5 11q3 2 6 2h94q-11 7 -19 18q-8 9 -13.5 21.5
t-5.5 29.5q0 26 17 43t42 17q22 0 38.5 -12t28 -29.5t17 -38t5.5 -37.5zM124 225q0 13 -11 24t-25 11q-12 0 -21 -4.5t-15.5 -11.5t-10 -14t-3.5 -12q6 -8 14 -14q7 -5 16 -9.5t20 -4.5q14 0 25 8.5t11 26.5z" />
    <glyph glyph-name="Icircumflex" unicode="&#xce;" horiz-adv-x="407" 
d="M355 101q0 -31 -17.5 -50.5t-43 -31t-56 -15.5t-55.5 -4q-36 0 -69.5 10.5t-58.5 32.5t-40 54.5t-15 76.5q0 16 5 37t15.5 39.5t27.5 31t40 12.5q24 0 43 -18.5t19 -43.5q0 -26 -18 -46.5t-44 -20.5q-19 0 -32.5 8t-27.5 23l-2 -10q-1 -4 -1 -8v-6q0 -36 15 -60t38 -38
t51 -19.5t54 -5.5q19 0 43.5 2t46.5 9t37 19t15 33q0 9 -4.5 16t-10.5 12q-8 -7 -26.5 -17.5t-32.5 -10.5h-105q-3 0 -6 2q-5 3 -5 11t5 11q3 2 6 2h94q18 0 32 6t14 7t-5 2t-12.5 3t-16.5 6.5t-17 12.5q-21 21 -23.5 42.5t6.5 39t26.5 28.5t36.5 11q31 0 50.5 -23t19.5 -52
q0 -16 -4 -28t-9 -20q-5 -10 -12 -16q8 -4 14 -12q5 -7 10 -17.5t5 -26.5zM308 169q13 13 18 29.5t1 30.5t-15 23.5t-29 9.5q-17 0 -30 -13t-13 -27q0 -18 10.5 -29t23.5 -16q15 -6 34 -8zM124 225q0 13 -11 24t-25 11q-12 0 -21 -4.5t-15.5 -11.5t-10 -14t-3.5 -12
q6 -8 14 -14q7 -5 16 -9.5t20 -4.5q14 0 25 8.5t11 26.5z" />
    <glyph glyph-name="Idieresis" unicode="&#xcf;" horiz-adv-x="358" 
d="M307 -14q0 -6 -4 -12t-10.5 -9.5t-14 -3t-13.5 6.5t-7 17.5t-1 24t-2 25.5t-12 23q-26 -26 -58.5 -42t-75.5 -16q-51 0 -79 23.5t-30 52t24.5 52t84.5 23.5q35 0 68 -11t65 -40q17 16 23.5 38.5t6.5 39.5q0 27 -16 50t-47 23q-16 0 -27 -7t-18 -15q-8 -10 -13 -21
q0 -2 -2 -5t-6 -3q-5 0 -7.5 3t-2.5 5q-3 12 -10 23q-6 9 -16 16.5t-26 7.5q-12 0 -20.5 -7t-12.5 -16t-3.5 -18.5t5.5 -14.5q3 -4 0.5 -8t-6.5 -8q-3 -3 -8.5 -2t-9.5 4q-8 8 -12 26t1 36.5t20 32.5t44 14q16 0 28 -7.5t20 -16.5q9 -11 15 -23q7 12 17 23q8 9 20.5 16.5
t28.5 7.5q47 0 68.5 -31.5t21.5 -84.5q0 -17 -6 -34.5t-14 -31.5q-9 -17 -19 -33q13 -17 24 -34q9 -14 16.5 -30t7.5 -29zM221 82q-26 26 -56 34.5t-56 8.5q-39 0 -58.5 -12t-19.5 -26t19.5 -26t58.5 -12q13 0 28 1t30 5t29 10t25 17z" />
    <glyph glyph-name="Eth" unicode="&#xd0;" horiz-adv-x="595" 
d="M543 97q0 -31 -21.5 -52.5t-53.5 -21.5q-25 0 -46.5 18t-21.5 44q0 12 4.5 23t9.5 19q6 10 15 17h-85q0 -30 -11.5 -56.5t-31 -46t-46.5 -30.5t-58 -11t-58 11t-46.5 30.5t-31 46t-11.5 56.5h-39q-3 0 -6 2q-5 3 -5 11q0 7 5 10q3 2 6 2h40q8 45 38.5 76t72.5 41
q-14 12 -27 24.5t-17 15.5q-11 11 -10 22.5t8.5 18.5t19.5 7t24 -12q3 -3 7 -13.5t7.5 -22.5t7 -22.5t6.5 -13.5h4q4 3 13 11t21 19t26 24.5t28 27.5q33 32 71 70q5 5 13 3t14 -8.5t8 -15.5t-5 -16q-30 -23 -58 -44q-24 -18 -51.5 -38.5t-47.5 -34.5q45 -8 78 -39.5
t41 -79.5h120q11 8 20 18q8 8 14 18t6 21q0 17 -12 31t-23 14q-25 0 -35.5 -12.5t-10.5 -29.5q0 -4 -3.5 -6.5t-8 -2t-8 5t-3.5 14.5q0 16 6.5 27t16.5 18.5t22.5 11t23.5 3.5q27 0 45 -19.5t18 -45.5q0 -16 -6.5 -29t-14.5 -22q-9 -11 -20 -19q5 0 14 -4.5t17.5 -13.5
t15 -21.5t6.5 -28.5zM468 62q24 0 34 13t8.5 28t-14 28t-31.5 13q-9 0 -19 -13t-13.5 -28t3.5 -28t32 -13zM312 169q-3 21 -14 38t-27 30t-35.5 20t-38.5 7t-38 -7.5t-35 -20t-27 -30t-14 -37.5h229zM83 144q3 -20 14 -37t26.5 -29.5t34.5 -20t39 -7.5q19 0 38.5 7.5
t35.5 20t27 29.5t14 37h-229z" />
    <glyph glyph-name="Ntilde" unicode="&#xd1;" horiz-adv-x="423" 
d="M371 82q0 -32 -21.5 -57t-63.5 -25q-20 0 -35 8.5t-26 19.5q-12 12 -21 29q-10 -17 -22 -29q-11 -11 -25.5 -19.5t-32.5 -8.5q-21 0 -37.5 9t-27.5 24t-17 34.5t-6 40.5q0 38 11 68l-36 1q0 -1 -5.5 1.5t-5.5 10.5q0 7 5 10q3 2 6 2h47q15 26 35 43t40.5 27.5t38.5 14.5
t27 4l-16 56q0 11 8 18.5t19 7.5q10 0 17.5 -7.5t7.5 -18.5l-15 -54q25 0 50.5 -6.5t36.5 -17.5q6 -6 6 -12t-3.5 -10.5t-8.5 -7.5t-9 -3q-3 0 -12 5t-21.5 11.5t-28 11.5t-31.5 5q-29 0 -61 -17t-52 -50h268q2 0 5 -2q6 -4 6 -10q0 -8 -5.5 -10t-5.5 -3l-279 1
q-8 -24 -8 -48q0 -41 20.5 -60.5t41.5 -19.5q25 0 38 10.5t19 23.5q7 15 7 34q0 2 2 4q4 4 9 4q4 0 8 -4q2 -2 3 -4q1 -19 8 -34q6 -13 19.5 -23.5t39.5 -10.5q9 0 19 3t18.5 8.5t14 13.5t5.5 18q0 11 -7.5 22t-20.5 11q-11 0 -15 -4t-6 -8.5t-5 -8t-10 -3.5q-8 0 -13 4.5
t-5 12.5q0 16 16.5 24.5t30.5 8.5q29 0 48 -20t19 -49z" />
    <glyph glyph-name="Ograve" unicode="&#xd2;" horiz-adv-x="595" 
d="M543 129q0 -31 -21.5 -52t-53.5 -21q-25 0 -46.5 17.5t-21.5 43.5q0 12 4.5 23t10 19t10 12.5l4.5 4.5l-354 1q-8 -24 -8 -48q0 -41 20.5 -60.5t41.5 -19.5q25 0 38 10.5t19 23.5q7 15 7 34q0 2 2 4q4 4 9 4q4 0 8 -4q2 -2 3 -4q1 -19 8 -34q6 -13 19.5 -23.5t39.5 -10.5
q9 0 19 3t18.5 8.5t14 13.5t5.5 18q0 11 -7.5 22t-20.5 11q-11 0 -15 -4t-6 -8.5t-5 -8t-10 -3.5q-8 0 -13 4.5t-5 12.5q0 16 16.5 24.5t30.5 8.5q29 0 48 -20t19 -49q0 -32 -21.5 -57t-63.5 -25q-20 0 -35 8.5t-26 19.5q-12 12 -21 29q-10 -17 -22 -29q-11 -11 -25.5 -19.5
t-32.5 -8.5q-21 0 -37.5 9t-27.5 24t-17 34.5t-6 40.5q0 20 2.5 37t7.5 31l-35 1q0 -1 -5.5 1.5t-5.5 10.5q0 7 5 10q3 2 6 2h45q12 26 29 42.5t33 26.5q18 11 37 16l-16 61q0 11 7.5 19t18.5 8t19 -8t8 -19l-16 -55q1 1 9.5 1.5t17.5 0.5t17 -0.5t9 -1.5l-15 54
q0 11 7.5 18.5t18.5 7.5t18 -7.5t7 -18.5l-15 -56q13 -2 30 -7t28 -16q6 -6 6.5 -12.5t-3 -11t-9 -7.5t-9.5 -3q-3 0 -12 5.5t-22 12t-28.5 12t-31.5 5.5q-29 0 -61 -17t-52 -50h377q11 8 20 18q8 8 14 18t6 21q0 17 -12 31t-23 14q-25 0 -35.5 -12.5t-10.5 -29.5
q0 -4 -3.5 -6.5t-8 -2t-8 5t-3.5 14.5q0 16 6.5 27t16.5 18.5t22.5 11t23.5 3.5q27 0 45 -19.5t18 -45.5q0 -16 -6.5 -29t-14.5 -22q-9 -11 -20 -19q5 0 14 -4.5t17.5 -13.5t15 -21.5t6.5 -28.5zM468 94q24 0 34 13t8.5 28t-14 28t-31.5 13q-9 0 -19 -13t-13.5 -28t3.5 -28
t32 -13z" />
    <glyph glyph-name="Oacute" unicode="&#xd3;" horiz-adv-x="397" 
d="M346 124q0 -26 -5.5 -49t-17 -39.5t-29.5 -26t-44 -9.5q-23 0 -38 8.5t-25 19.5q-11 12 -18 28q-9 -25 -31 -40.5t-50 -15.5q-37 0 -62.5 25.5t-25.5 62.5q0 36 25.5 61.5t62.5 25.5q32 0 55.5 -20t30.5 -50q3 -7 8.5 -16.5t14.5 -18.5t22 -15t31 -6q21 0 34.5 8t21.5 21
t11 29t3 32q0 28 -11.5 67t-34.5 75t-59.5 61t-85.5 25q-17 0 -24.5 8t-7.5 17t6.5 17t18.5 8q42 0 82.5 -26t72 -68t50.5 -94.5t19 -104.5zM144 100q0 21 -16.5 36t-39.5 15q-24 0 -40 -15t-16 -36t16 -36t40 -15q23 0 39.5 15t16.5 36z" />
    <glyph glyph-name="Ocircumflex" unicode="&#xd4;" horiz-adv-x="397" 
d="M146 485q-5 -5 -9.5 -5.5t-10 -0.5t-13 -3t-17.5 -13q-16 -16 -23 -32t-9.5 -29t-3 -22.5t-2.5 -11.5t-9.5 -2t-9.5 2q-5 5 -4 31t10.5 54.5t29 51.5t50.5 23q8 0 15 -4t10.5 -10.5t3 -14t-7.5 -14.5zM346 124q0 -26 -5.5 -49t-17 -39.5t-29.5 -26t-44 -9.5
q-23 0 -38 8.5t-25 19.5q-11 12 -18 28q-9 -25 -31 -40.5t-50 -15.5q-37 0 -62.5 25.5t-25.5 62.5q0 36 25.5 61.5t62.5 25.5q32 0 55.5 -20t30.5 -50q3 -7 8.5 -16.5t14.5 -18.5t22 -15t31 -6q21 0 34.5 8t21.5 21t11 29t3 32q0 42 -14 81.5t-36 69.5t-49.5 48.5
t-53.5 18.5q-17 0 -25 8t-8 17t7 17t19 8q34 0 67.5 -25t59.5 -65t42.5 -90.5t16.5 -102.5zM144 100q0 21 -16.5 36t-39.5 15q-24 0 -40 -15t-16 -36t16 -36t40 -15q23 0 39.5 15t16.5 36z" />
    <glyph glyph-name="Otilde" unicode="&#xd5;" horiz-adv-x="387" 
d="M233 249q-15 0 -26 -6.5t-17.5 -14t-10 -14l-3.5 -6.5q1 -2 -1.5 -5t-6.5 -3q-5 0 -7.5 3t-2.5 5q-5 15 -14 26q-8 10 -20 18.5t-31 8.5q-18 0 -27 -6t-13 -13q-4 -8 -4 -18q0 -11 -6.5 -16t-15 -5t-15 5t-6.5 16q0 17 8.5 29.5t21.5 20.5t27 12t26 4q19 0 33 -7t24 -15
q11 -10 19 -22q5 11 15 21q8 8 21 14.5t32 6.5q35 0 58 -21.5t34 -53.5t10.5 -69t-13 -69t-37 -53.5t-61.5 -21.5q-21 0 -35 7.5t-22 17.5q-10 11 -16 25q-8 -22 -28 -36t-45 -14q-32 0 -55 23t-23 55t23 55.5t55 23.5q29 0 50 -18t26 -45q5 -13 21.5 -29t48.5 -16
q31 0 51 15t29 37t8 48t-10 48t-27 37t-42 15zM124 89q0 17 -13 29.5t-32 12.5t-32.5 -12.5t-13.5 -29.5t13.5 -28.5t32.5 -11.5t32 11.5t13 28.5z" />
    <glyph glyph-name="Odieresis" unicode="&#xd6;" horiz-adv-x="411" 
d="M336 89q0 11 -4.5 15.5t-9.5 6.5q-6 2 -14 1q-7 0 -12 5.5t-5.5 11.5t4 11.5t15.5 5.5q17 0 28.5 -11t17 -27t3 -35t-12 -35t-28 -27t-46.5 -11q-26 0 -42.5 10t-26.5 23q-11 15 -18 34q-8 -19 -20 -34q-11 -13 -28.5 -23t-43.5 -10q-16 0 -32.5 6t-30 17t-22 26t-8.5 34
q0 16 5.5 28t12.5 21q8 10 18 18q10 10 30 14.5t40 9.5t34.5 14t14.5 30q0 25 -18.5 37t-33.5 12q-16 0 -26 -7.5t-16 -15.5q-7 -11 -10 -23q0 -11 -7 -17.5t-15.5 -7.5t-15.5 5t-7 21q0 18 9.5 31.5t23.5 22.5t28.5 13.5t25.5 4.5q16 0 31.5 -5t27.5 -15t19.5 -24.5
t7.5 -33.5q0 -31 -16 -43.5t-37.5 -17.5t-43 -7.5t-31.5 -12.5q-15 -16 -18 -31.5t3.5 -27.5t20.5 -19.5t33 -7.5q23 0 38.5 9.5t26.5 21.5q12 13 20 31q0 2 2.5 5t7.5 3q4 0 6 -3t2 -5q5 -18 16 -31q9 -12 24 -21.5t38 -9.5q8 0 19.5 1.5t21.5 6t17 12.5t7 20z" />
    <glyph glyph-name="multiply" unicode="&#xd7;" horiz-adv-x="411" 
d="M336 89q0 11 -4.5 15.5t-9.5 6.5q-6 2 -14 1q-7 0 -12 5.5t-5.5 11.5t4 11.5t15.5 5.5q17 0 28.5 -11t17 -27t3 -35t-12 -35t-28 -27t-46.5 -11q-26 0 -42.5 10t-26.5 23q-11 15 -18 34q-8 -19 -20 -34q-11 -13 -28.5 -23t-43.5 -10q-16 0 -32.5 6t-30 17t-22 26t-8.5 34
q0 16 5.5 28t12.5 21q8 10 18 18q10 10 30 14.5t40 9.5t34.5 14t14.5 30q0 25 -18.5 37t-33.5 12q-20 0 -33.5 -14t-18.5 -32q0 -11 -7 -17.5t-15.5 -7.5t-15.5 5t-7 21q0 14 6.5 25.5t16.5 20.5t22 15t23 9q1 18 7 39.5t16.5 40.5t27 32t39.5 13q7 0 14 -4t11 -10.5
t3.5 -14t-7.5 -14.5q-5 -5 -9.5 -5.5t-10 -1t-13 -3.5t-17.5 -13q-15 -14 -22 -28.5t-10 -28.5q29 -3 52.5 -23t23.5 -55q0 -31 -16 -43.5t-37.5 -17.5t-43 -7.5t-31.5 -12.5q-15 -16 -18 -31.5t3.5 -27.5t20.5 -19.5t33 -7.5q23 0 38.5 9.5t26.5 21.5q12 13 20 31
q0 2 2.5 5t7.5 3q4 0 6 -3t2 -5q5 -18 16 -31q9 -12 24 -21.5t38 -9.5q8 0 19.5 1.5t21.5 6t17 12.5t7 20z" />
    <glyph glyph-name="Oslash" unicode="&#xd8;" horiz-adv-x="492" 
d="M440 328q0 -16 -7 -31t-18.5 -26t-26.5 -18t-31 -7t-30 7t-25 18.5t-17.5 26.5t-6.5 30q0 12 3.5 22.5t14.5 21.5h-97q11 -8 16 -20.5t5 -26.5q0 -23 -16 -39.5t-39 -18.5q9 -10 14.5 -22.5t5.5 -28.5q0 -31 -16 -43.5t-37.5 -17.5t-43 -7.5t-31.5 -12.5
q-16 -16 -19 -31.5t4 -27.5t21 -19.5t33 -7.5q23 0 38.5 9.5t26.5 21.5q12 13 20 31q0 2 2.5 5t6.5 3q5 0 7 -3t2 -5q5 -18 16 -31q9 -12 23.5 -21.5t37.5 -9.5q9 0 20 1.5t21.5 6t17.5 12.5t7 20q0 11 -4.5 15.5t-9.5 6.5q-6 2 -14 1q-8 0 -12.5 5.5t-5.5 11.5t3.5 11.5
t15.5 5.5q17 0 29 -11t17 -27t3 -35t-11.5 -35t-28 -27t-46.5 -11q-26 0 -43 10t-27 23q-11 15 -18 34q-8 -19 -20 -34q-11 -13 -28 -23t-43 -10q-16 0 -32.5 6t-30 17t-22 26t-8.5 34q0 16 5.5 28t12.5 21q8 10 18 18q10 10 30 14.5t39.5 9.5t34.5 14t15 30q0 13 -5.5 22
t-13.5 15t-17.5 9t-16.5 3q-16 0 -25.5 -7.5t-15.5 -15.5q-7 -11 -10 -23q0 -11 -7 -17.5t-16 -7.5t-16 5t-7 21q0 14 6 25t15 20h-9q-5 0 -10.5 3.5t-5.5 8.5t5.5 9t10.5 4h127q17 0 28.5 11.5t11.5 28.5t-11.5 28.5t-28.5 11.5h-131q-6 1 -10 4q-9 5 -9 17t9 17q4 3 10 5
h338q38 0 60.5 -26.5t22.5 -60.5zM414 335q0 23 -16.5 37t-37.5 14q-23 0 -39.5 -14.5t-16.5 -35.5q0 -22 17.5 -34.5t39.5 -12.5q20 0 36.5 11.5t16.5 34.5z" />
    <glyph glyph-name="Ugrave" unicode="&#xd9;" horiz-adv-x="329" 
d="M277 147q0 -30 -11.5 -57t-31.5 -47t-47 -31.5t-57 -11.5t-57 11.5t-47 31.5t-31.5 47t-11.5 57t11.5 57t31.5 47t47 31.5t57 11.5t57 -11.5t47 -31.5t31.5 -46.5t11.5 -57.5zM246 157q0 22 -9.5 42t-25 35t-36.5 24t-44 9t-43.5 -9t-36.5 -24t-25.5 -35t-9.5 -42
q0 -24 10 -43.5t26.5 -34t37 -22.5t41.5 -8q23 0 44 8.5t36.5 23t25 34t9.5 42.5z" />
    <glyph glyph-name="Uacute" unicode="&#xda;" horiz-adv-x="293" 
d="M247 86q0 -16 -7.5 -31.5t-23.5 -27.5t-39.5 -19.5t-54.5 -7.5q-21 0 -42.5 6t-39 17.5t-29 28t-11.5 37.5q0 12 6 18t13.5 6.5t14 -3.5t6.5 -10q0 -16 8 -26t20.5 -15.5t27 -7.5t26.5 -2q44 0 66.5 15t22.5 33q0 10 -3 19t-13 16t-27.5 10.5t-45.5 3.5q-63 0 -89 16.5
t-26 48.5q0 16 8.5 31t23.5 26.5t36 18.5t47 7q19 0 49.5 -9t49.5 -28q12 -13 12 -23t-6.5 -16t-16.5 -7t-16 5q-1 1 -6.5 9t-14.5 17.5t-22 17t-29 7.5q-42 0 -64 -17.5t-22 -38.5t24 -30t62 -9q125 0 125 -86z" />
    <glyph glyph-name="Ucircumflex" unicode="&#xdb;" 
d="M16 408q-52 -39 -93 -70q-18 -13 -35 -25.5t-30.5 -22.5t-22.5 -16t-10 -6q-2 0 -14.5 6t-27.5 13.5t-28 15.5t-16 11q-11 11 -10 22t8.5 18t19.5 7t23 -11q4 -4 10.5 -13.5t13 -19.5t12.5 -17.5t9 -7.5q1 0 9 6.5t20 17t26 24.5t29 28l78 76q5 5 13 3t14 -8t7.5 -15
t-5.5 -16z" />
    <glyph glyph-name="Udieresis" unicode="&#xdc;" horiz-adv-x="420" 
d="M368 125q0 -52 -24 -88.5t-76 -36.5q-22 0 -38 9.5t-27 20.5q-13 13 -22 31q-10 -18 -24 -31q-12 -11 -30 -20.5t-42 -9.5q-41 0 -62.5 23.5t-22.5 52t20 52t65 23.5q35 0 54.5 -10.5t39.5 -30.5q7 6 13.5 19t6.5 32q0 26 -8 43.5t-17 28.5q-11 13 -25 21
q2 -2 -0.5 -14.5t-10 -27t-21 -26t-32.5 -11.5q-35 0 -50 18.5t-11.5 41t23.5 41t56 18.5q26 0 48.5 -11.5t38.5 -30t25 -42.5t9 -49q0 -33 -10.5 -52t-13.5 -22q7 -11 17 -19q8 -8 21 -13.5t30 -5.5q21 0 35 8.5t23 21.5t12.5 29.5t3.5 31.5q0 16 -4.5 35t-15 35.5t-28 28
t-44.5 11.5q-16 0 -23 7t-7 15t6 15t17 7q33 0 57 -16.5t39 -41.5t22 -55t7 -56zM207 -17q2 -7 -2 -16.5t-24 -9.5t-24.5 9t-1.5 18q1 3 5 11.5t9 17.5q5 11 12 23q7 -12 12 -23q5 -9 8.5 -18t5.5 -12zM129 261q-5 5 -14 5.5t-12 0.5q-20 0 -31.5 -9.5t-14.5 -21.5t4 -21.5
t24 -9.5q20 0 32 19t12 37zM164 89q-10 10 -21 18q-11 7 -25 12.5t-33 5.5q-28 0 -41 -12t-12 -26t14.5 -26t38.5 -12q20 0 35 6t25 14q11 9 19 20z" />
    <glyph glyph-name="Yacute" unicode="&#xdd;" horiz-adv-x="423" 
d="M268 0q-22 0 -38 9.5t-27 20.5q-13 13 -22 31q-10 -18 -24 -31q-12 -11 -30 -20.5t-42 -9.5q-41 0 -62.5 23.5t-22.5 52t20 52t65 23.5q35 0 54.5 -10.5t39.5 -30.5q7 6 13.5 19t6.5 32q0 26 -8 43.5t-17 28.5q-11 13 -25 21q2 -2 -0.5 -14.5t-10 -27t-21 -26
t-32.5 -11.5q-35 0 -50 18.5t-11.5 41t23.5 41t56 18.5q26 0 48.5 -11.5t38.5 -30t25 -42.5t9 -49q0 -33 -10 -52t-14 -22q7 -11 17 -19q8 -8 21 -13.5t30 -5.5q26 0 43 16t24 40.5t5 53t-13.5 53t-31.5 40.5t-49 16q-11 0 -16.5 4t-6 9t4.5 9t15 4q37 0 64.5 -22
t43.5 -54.5t20 -70.5t-5.5 -70.5t-33.5 -54.5t-64 -22zM207 -13q2 -7 -2 -16.5t-24 -9.5t-24.5 9t-1.5 18q1 3 5 11.5t9 17.5q5 11 12 23q7 -12 12 -23q5 -9 8.5 -18t5.5 -12zM129 261q-5 5 -13.5 5.5t-12.5 0.5q-20 0 -31.5 -9.5t-14.5 -21.5t4 -21.5t24 -9.5q20 0 32 19
t12 37zM164 89q-10 10 -21 18q-11 7 -25 12.5t-33 5.5q-28 0 -41 -12t-12 -26t14.5 -26t38.5 -12q20 0 35 6t25 14q11 9 19 20z" />
    <glyph glyph-name="Thorn" unicode="&#xde;" horiz-adv-x="358" 
d="M303 68q0 -9 -1 -21t-4 -22.5t-9.5 -17.5t-17.5 -7q-8 0 -17 6.5t-9 16.5q0 9 6 27t6 54q0 27 -7 55.5t-20 52.5t-32 39.5t-44 15.5t-45 -15.5t-34 -39.5t-21.5 -52.5t-7.5 -55.5q0 -36 6 -54t6 -27q0 -10 -8.5 -16.5t-17.5 -6.5q-11 0 -17.5 7t-9.5 17.5t-4 22.5t-1 21
q0 28 9.5 66.5t28.5 74t48 60.5t68 25t67.5 -25t46.5 -60.5t26.5 -74t8.5 -66.5z" />
    <glyph glyph-name="germandbls" unicode="&#xdf;" horiz-adv-x="411" 
d="M343 197q0 -5 -2 -6.5t-4 -3.5q-3 -2 -5 -2h-160q-9 -17 -25.5 -23.5t-34.5 -9.5t-35 -5.5t-26 -11.5q-16 -16 -19 -31.5t4 -27.5t21 -19.5t33 -7.5q23 0 38.5 9.5t26.5 21.5q12 13 20 31q0 2 2.5 5t7.5 3q4 0 6 -3t2 -5q5 -18 16 -31q9 -12 24 -21.5t38 -9.5
q8 0 19.5 1.5t21.5 6t17 12.5t7 20q0 11 -4.5 15.5t-9.5 6.5q-6 2 -14 1q-7 0 -12 5.5t-5.5 11.5t4 11.5t15.5 5.5q17 0 28.5 -11t17 -27t3 -35t-12 -35t-28 -27t-46.5 -11q-26 0 -42.5 10t-26.5 23q-11 15 -18 34q-8 -19 -20 -34q-11 -13 -28.5 -23t-43.5 -10
q-16 0 -32.5 6t-30 17t-22 26t-8.5 34q0 16 5.5 28t12.5 21q8 10 18 18q10 10 30 14.5t40 9.5t34.5 14t14.5 30q0 25 -18.5 37t-33.5 12q-16 0 -26 -7.5t-16 -15.5q-7 -11 -10 -23q0 -11 -7 -17.5t-15.5 -7.5t-15.5 5t-7 21q0 18 9.5 31.5t23.5 22.5t28.5 13.5t25.5 4.5
q37 0 63 -23t23 -61h70l-16 58q1 6 4 11q2 4 7 7.5t13 3.5t12.5 -3.5t6.5 -8.5q3 -5 3 -11l-17 -57h70q2 0 5 -2q6 -4 6 -11z" />
    <glyph glyph-name="agrave" unicode="&#xe0;" horiz-adv-x="404" 
d="M349 115q0 -21 -6 -41.5t-18 -37t-28.5 -26.5t-37.5 -10q-19 0 -32 9t-21 20q-10 13 -15 30q-6 -17 -16 -30q-9 -11 -23 -20t-34 -9q-35 0 -58 23.5t-23 54.5q0 23 7.5 38t17.5 26q11 11 26 20h-37t-22.5 0.5t-13 2.5t-8.5 6q-12 13 -4.5 29t24.5 16q26 -7 48 -12
q18 -5 34.5 -9.5t18.5 -6.5q9 -10 3 -19q-3 -4 -7 -7q-16 -5 -27 -13q-10 -8 -18 -19.5t-8 -29.5q0 -21 13.5 -36t39.5 -15q23 0 34 10t16 22q5 14 6 33q0 2 2 4q4 4 9 4q4 0 8 -4q2 -2 3 -4q1 -19 6 -33q5 -12 15 -22t30 -10q17 0 29.5 8t21 20t13 26t4.5 26q0 24 -7 48.5
t-20.5 45t-34 33t-46.5 12.5h-17q-14 0 -14 13t15 13h16q32 0 57 -15t42.5 -39.5t27 -57t9.5 -67.5z" />
    <glyph glyph-name="aacute" unicode="&#xe1;" horiz-adv-x="395" 
d="M308 118q19 0 29 -18.5t5.5 -40.5t-26 -40.5t-63.5 -18.5q-26 0 -43 8.5t-27 19.5q-11 12 -18 29q-4 -17 -14 -29q-8 -11 -24 -19.5t-42 -8.5q-16 0 -31 4.5t-27 13.5t-19.5 23t-7.5 33t5.5 32t12.5 21q8 10 18 15q8 8 27.5 11.5t40 10t36 18.5t15.5 36q0 13 -6 22
t-14 15t-18 9t-17 3q-9 0 -19.5 -5t-18 -12.5t-9 -16.5t7.5 -18q7 -7 5.5 -16t-8 -15t-16.5 -7t-20 9q-11 12 -12.5 30t8.5 35.5t31 30t55 12.5q29 0 51.5 -18.5t22.5 -44.5q0 -5 6 -13t16 -15t22.5 -12t24.5 -5q29 0 44.5 12.5t16.5 28t-12 28t-41 12.5q-5 0 -8 4t-3 9.5
t4.5 9.5t15.5 4q36 0 54 -23.5t17 -52t-21 -52t-59 -23.5q-17 0 -31 6t-24 14t-16 16t-9 13q-6 -21 -22 -31.5t-34.5 -17t-36.5 -12.5t-29 -17q-8 -8 -10.5 -19.5t1.5 -21.5t13.5 -17t24.5 -7q23 0 37 8t22 18q10 11 14 26q0 2 3 5.5t7 3.5q5 0 7 -3.5t2 -5.5q5 -15 16 -26
q9 -10 23.5 -18t37.5 -8q25 0 38.5 6t18 12.5t3 12.5t-5.5 6q-8 0 -11.5 5t-3 11t5 11t12.5 5z" />
    <glyph glyph-name="acircumflex" unicode="&#xe2;" horiz-adv-x="404" 
d="M308 118q19 0 29 -18.5t5.5 -40.5t-26 -40.5t-63.5 -18.5q-26 0 -43 8.5t-27 19.5q-11 12 -18 29q-4 -17 -14 -29q-8 -11 -24 -19.5t-42 -8.5q-16 0 -31 4.5t-27 13.5t-19.5 23t-7.5 33t5.5 32t12.5 21q8 10 18 15q8 8 27.5 11.5t40 10t36 18.5t15.5 36q0 13 -6 22
t-14 15t-18 9t-17 3q-9 0 -19.5 -5t-18 -12.5t-9 -16.5t7.5 -18q7 -7 5.5 -16t-8 -15t-16.5 -7t-20 9q-11 12 -12.5 30t8.5 35.5t31 30t55 12.5q29 0 51.5 -18.5t22.5 -44.5q0 -5 6 -13t15.5 -15t22 -12t25.5 -5q28 0 44.5 12.5t19.5 27.5t-7.5 28t-37.5 14h-17
q-9 0 -14.5 4t-5.5 9t5 9t16 4h17q23 -1 38.5 -12.5t23 -28t6.5 -36t-10 -36t-26.5 -27.5t-43.5 -11q-18 0 -31.5 6t-23.5 14t-16 16t-9 13q-6 -21 -22 -31.5t-34.5 -17t-36.5 -12.5t-29 -17q-8 -8 -10.5 -19.5t1.5 -21.5t13.5 -17t24.5 -7q23 0 37 8t22 18q10 11 14 26
q0 2 3 5.5t7 3.5q5 0 7 -3.5t2 -5.5q5 -15 16 -26q9 -10 23.5 -18t37.5 -8q25 0 38.5 6t18 12.5t3 12.5t-5.5 6q-8 0 -11.5 5t-3 11t5 11t12.5 5z" />
    <glyph glyph-name="atilde" unicode="&#xe3;" horiz-adv-x="375" 
d="M313 128q0 -26 -6.5 -49.5t-19.5 -41t-32.5 -27.5t-45.5 -10q-19 0 -33.5 6.5t-25.5 16.5t-19 22.5t-14 25.5q-11 -32 -34.5 -51.5t-60.5 -19.5q-38 0 -59 18t-32 41q-13 26 -17 59l8 10q5 -3 9.5 -15.5t13.5 -27t27 -25.5t50 -11q27 0 44.5 14.5t26 36.5t8 47.5
t-10.5 47.5t-29.5 36.5t-47.5 14.5q-17 0 -24.5 7.5t-7.5 16.5t6.5 16.5t19.5 7.5q29 0 51.5 -16t37.5 -41t22.5 -54t7.5 -55q1 -2 3.5 -14.5t11 -26.5t24 -26t44.5 -12q27 0 44.5 14.5t26 36.5t7.5 47.5t-11.5 47.5t-32 36.5t-52.5 14.5q-17 0 -24.5 7.5t-8 16.5t6.5 16.5
t19 7.5q33 0 57 -16t40 -41t24 -54t8 -55zM140 -14q1 -4 2 -10t-1 -11.5t-7.5 -9.5t-15.5 -4q-20 0 -22.5 12.5t0.5 21.5q1 3 4.5 10.5t7.5 15.5q4 9 10 19q6 -10 10 -19q4 -8 7 -15t5 -10z" />
    <glyph glyph-name="adieresis" unicode="&#xe4;" horiz-adv-x="518" 
d="M467 196q0 -7 -6 -11q-3 -2 -6 -2h-157q0 -27 -11 -54t-28 -50q13 -17 24 -34q9 -14 16.5 -30t7.5 -29q0 -6 -4 -12t-10.5 -9.5t-14 -3t-13.5 6.5t-7 17.5t-1 24t-2 25.5t-12 23q-26 -26 -58.5 -42t-75.5 -16q-51 0 -79 23.5t-30 52t24.5 52t84.5 23.5q35 0 68 -11
t65 -40q17 16 23.5 38.5t6.5 39.5q0 27 -16 50t-47 23q-16 0 -27 -7t-18 -15q-8 -10 -13 -21q0 -2 -2 -5t-6 -3q-5 0 -7.5 3t-2.5 5q-3 12 -10 23q-6 9 -16 16.5t-26 7.5q-12 0 -20.5 -7t-12.5 -16t-3.5 -18.5t5.5 -14.5q3 -4 0.5 -8t-6.5 -8q-3 -3 -8.5 -2t-9.5 4
q-8 8 -12 26t1 36.5t20 32.5t44 14q16 0 28 -7.5t20 -16.5q9 -11 15 -23q7 12 17 23q8 9 20.5 16.5t28.5 7.5q40 0 61 -23t27 -63h76l-15 59q0 6 3 11q2 4 7 7.5t13 3.5t13 -3.5t7 -8.5q3 -5 3 -12l-17 -57h69q3 0 6 -2q6 -4 6 -10zM221 82q-26 26 -56 34.5t-56 8.5
q-39 0 -58.5 -12t-19.5 -26t19.5 -26t58.5 -12q13 0 28 1t30 5t29 10t25 17z" />
    <glyph glyph-name="aring" unicode="&#xe5;" horiz-adv-x="449" 
d="M285 0q-21 0 -36.5 10.5t-25.5 23.5q-12 15 -20 35q-10 -20 -23 -35q-11 -13 -27.5 -23.5t-37.5 -10.5q-26 0 -47 12t-36 32.5t-23.5 48t-8.5 58.5q0 49 14.5 78t32.5 43q20 17 47 22l-15 60q1 7 4 12q2 5 7 8.5t15 3.5q9 0 14.5 -3.5t7.5 -8.5q3 -5 4 -12l-16 -58
q26 -3 43.5 -22.5t17.5 -45.5q0 -28 -20 -47.5t-48 -19.5q-20 0 -32.5 8t-20 18.5t-10.5 21t-3 15.5q-15 -15 -17.5 -44.5t7.5 -58.5t32 -50.5t57 -21.5q20 0 34 10.5t22 23.5q10 15 15 35q0 2 2 4q5 5 9 5q3 0 4.5 -1.5l3.5 -3.5t3 -4q4 -20 14 -35q8 -13 22 -23.5
t35 -10.5q27 0 45 14.5t26 36t6.5 47t-13 47t-33 36t-52.5 14.5q-16 0 -23 8t-7 17t6 17t17 8q37 0 65 -22t45 -54.5t21 -70.5t-5 -70.5t-33.5 -54.5t-64.5 -22zM107 188q21 0 31 12.5t10 27.5t-10 27.5t-31 12.5q-17 0 -31.5 -9t-14.5 -13q0 -17 4 -29q4 -11 13.5 -20
t28.5 -9z" />
    <glyph glyph-name="ae" unicode="&#xe6;" horiz-adv-x="444" 
d="M285 0q-21 0 -36.5 10.5t-25.5 23.5q-12 15 -20 35q-10 -20 -23 -35q-11 -13 -27.5 -23.5t-37.5 -10.5q-26 0 -47 12t-36 32.5t-23.5 48t-8.5 58.5q0 49 14.5 78t32.5 43q20 17 47 22l-15 60q1 7 4 12q2 5 7 8.5t15 3.5q9 0 14.5 -3.5t7.5 -8.5q3 -5 4 -12l-16 -58
q26 -3 43.5 -22.5t17.5 -45.5q0 -28 -20 -47.5t-48 -19.5q-20 0 -32.5 8t-20 18.5t-10.5 21t-3 15.5q-15 -15 -17.5 -44.5t7.5 -58.5t32 -50.5t57 -21.5q20 0 34 10.5t22 23.5q10 15 15 35q0 2 2 4q5 5 9 5q3 0 4.5 -1.5l3.5 -3.5t3 -4q4 -20 14 -35q8 -13 22 -23.5
t35 -10.5q30 0 47.5 16t24.5 40.5t4 53t-15.5 53t-33 40.5t-48.5 16q-12 0 -18 4t-6.5 9t4.5 9t16 4q36 0 63 -22t43.5 -54.5t21 -70.5t-5 -70.5t-33.5 -54.5t-64 -22zM107 188q21 0 31 12.5t10 27.5t-10 27.5t-31 12.5q-17 0 -31.5 -9t-14.5 -13q0 -17 4 -29
q4 -11 13.5 -20t28.5 -9z" />
    <glyph glyph-name="ccedilla" unicode="&#xe7;" horiz-adv-x="441" 
d="M285 0q-21 0 -36.5 10.5t-25.5 23.5q-12 15 -20 35q-10 -20 -23 -35q-11 -13 -27.5 -23.5t-37.5 -10.5q-26 0 -47 12t-36 32.5t-23.5 48t-8.5 58.5q0 49 14.5 74t32.5 36q20 12 47 12l-15 59q1 7 4 12q2 5 7 8.5t15 3.5q9 0 14.5 -3.5t7.5 -8.5q3 -5 4 -12l-16 -58
q26 -3 43.5 -22.5t17.5 -45.5q0 -28 -20 -47.5t-48 -19.5q-20 0 -32.5 8t-20 19t-10.5 21t-3 15q-14 -14 -16.5 -40t7 -51t31.5 -43.5t57 -18.5q20 0 34 10.5t22 23.5q10 15 15 35q0 2 2 4q5 5 9 5q3 0 4.5 -1.5l3.5 -3.5t3 -4q4 -20 14 -35q8 -13 22 -23.5t35 -10.5
q30 0 47.5 16t24.5 40.5t4 52.5t-15.5 52.5t-33 40.5t-48.5 16q-15 0 -21 4t-6 9.5t6 9.5t17 4q36 0 63 -22t43.5 -54.5t21 -70.5t-5 -70.5t-33.5 -54.5t-64 -22zM107 166q21 0 31 12.5t10 27.5t-10 27.5t-31 12.5q-17 0 -31.5 -8.5t-14.5 -13.5q0 -17 4 -29q4 -11 13.5 -20
t28.5 -9z" />
    <glyph glyph-name="egrave" unicode="&#xe8;" horiz-adv-x="390" 
d="M350 88q0 -34 -23.5 -61t-65.5 -27q-20 0 -36 10t-27 23q-13 15 -22 34q-10 -19 -22 -34q-11 -13 -26 -23t-34 -10q-21 0 -38 9t-29.5 24t-19.5 34.5t-7 40.5q0 34 13.5 67.5t37 59.5t54 42t65.5 16q25 0 57.5 -7t51.5 -26q6 -6 6 -12.5t-3.5 -12t-9 -8.5t-10.5 -3
q-3 0 -11 7t-19.5 15t-26.5 15t-34 7q-29 0 -54.5 -12t-44.5 -31.5t-30 -44.5t-11 -51q0 -31 18.5 -55.5t50.5 -24.5q25 0 38.5 12t19.5 27q7 17 7 39q0 2 2 4q4 4 9 4t9 -4q2 -2 2 -4q2 -22 10 -39q7 -15 20.5 -27t39.5 -12q8 0 18.5 2.5t20 8t16 15t6.5 23.5q0 16 -7 26.5
t-25 10.5q-11 0 -15.5 -4t-7.5 -9.5t-6 -9.5t-10 -4q-8 0 -13 4.5t-5 12.5q0 15 16 25.5t30 10.5q40 0 57.5 -21t17.5 -52z" />
    <glyph glyph-name="eacute" unicode="&#xe9;" horiz-adv-x="449" 
d="M372 243q14 -22 21.5 -51t6.5 -58.5t-11.5 -57t-32.5 -46.5q-20 -18 -47 -25t-51.5 -1.5t-41.5 24.5t-17 53q0 33 21 56t51 23q29 0 43.5 -15t19.5 -32q6 -20 3 -46q7 0 16 14t14 35t5.5 45t-8.5 45t-29.5 35t-56.5 14q-21 0 -36 -11t-24 -24q-11 -15 -17 -34
q-1 -2 -3 -4q-4 -4 -8 -4q-5 0 -9 4q-2 2 -2 4q-8 19 -19 34q-10 13 -24.5 24t-35.5 11q-8 0 -18.5 -3t-20.5 -9.5t-16.5 -16t-6.5 -21.5q0 -9 3 -17.5t11 -15t22.5 -11t37.5 -4.5q2 -1 4 -3l3.5 -3.5t1.5 -4.5q0 -4 -1.5 -5.5l-3.5 -3.5t-4 -2q-10 0 -23 -1.5t-25 -6
t-20.5 -13.5t-8.5 -24q0 -11 5.5 -19t13.5 -13t17 -7t17 -2q22 0 30 6.5t11 15t5 15t12 6.5q11 0 16 -9.5t5 -17.5q0 -17 -8 -29t-20 -20t-26.5 -12t-27.5 -4q-15 0 -30 5.5t-27 16t-20 24.5t-8 31q0 19 7 32.5t16 21.5q11 10 24 16q-12 6 -21 15q-8 8 -14 20t-6 30
q0 19 8.5 34t22 25.5t31 16.5t36.5 6q26 0 42.5 -9.5t26.5 -20.5q11 -13 17 -29q8 16 21 29q11 11 28.5 20.5t43.5 9.5q29 0 51.5 -14t37.5 -37zM315 90q0 23 -14 34t-30.5 11t-30.5 -11t-14 -31q0 -17 14.5 -30.5t40.5 -13.5q27 0 30.5 8.5t3.5 32.5z" />
    <glyph glyph-name="ecircumflex" unicode="&#xea;" horiz-adv-x="410" 
d="M358 138q0 -34 -16 -60t-41 -43.5t-55.5 -26.5t-60.5 -9q-32 0 -65 8t-59.5 25.5t-43.5 44t-17 63.5q0 18 6 36t17.5 32.5t27 23t35.5 8.5q25 0 43 -16.5t18 -42.5q0 -25 -20 -42.5t-44 -17.5q-13 0 -25 5.5t-23 13.5q0 -14 7 -29.5t24.5 -28t45.5 -21t70 -8.5
q38 0 65.5 8t45 20.5t25.5 28.5t8 33q-10 -10 -24 -17t-28 -7q-24 0 -43.5 19t-19.5 44t18.5 41t44.5 16q-10 12 -21 18t-21.5 8.5t-18.5 2.5h-12q-6 0 -12.5 3t-6.5 8q0 8 5.5 11.5t9.5 3.5q7 0 18.5 -0.5t26.5 -5.5t33 -16t39 -32q4 -4 11 -13t14.5 -22t13 -30t5.5 -37z
M321 182q0 3 -4 8.5t-10 11t-14 9t-17 3.5q-14 0 -23 -9.5t-9 -22.5q0 -15 11 -23.5t23 -8.5q7 0 14.5 4t14 9t10.5 10.5t4 8.5zM117 182q0 13 -9 22.5t-23 9.5q-9 0 -17 -3.5t-14 -9t-10 -11t-4 -8.5t4 -8.5t10.5 -10.5t14 -9t14.5 -4q13 0 23.5 8.5t10.5 23.5z" />
    <glyph glyph-name="edieresis" unicode="&#xeb;" horiz-adv-x="395" 
d="M354 117q0 -18 -5 -38.5t-16.5 -38t-28.5 -29t-41 -11.5q-21 0 -36.5 11.5t-25.5 25.5q-12 16 -20 37q-8 -21 -19 -37q-10 -14 -26 -25.5t-39 -11.5q-24 0 -42 11.5t-30.5 28.5t-18.5 38t-6 39q0 34 15 66t39.5 56.5t56.5 39.5t67 15q34 0 66 -15t56.5 -39.5t39 -56.5
t14.5 -66zM318 131q0 26 -12 50.5t-32 44t-45 31t-51 11.5t-51 -11.5t-44.5 -31t-31.5 -44t-12 -50.5q0 -32 16 -57t48 -25q16 0 28 12t21 27q10 17 18 39q0 2 2 4q4 4 9 4q4 0 8 -4q2 -2 3 -4q7 -22 17 -39q8 -15 20 -27t28 -12q32 0 46.5 25t14.5 57z" />
    <glyph glyph-name="igrave" unicode="&#xec;" horiz-adv-x="387" 
d="M310 411q-28 -22 -56 -43q-24 -18 -51 -38.5t-48 -35.5h24q42 0 74 -22t52 -54.5t27 -70.5t0 -70.5t-30 -54.5t-63 -22q-25 0 -42 11t-28.5 28t-20.5 36.5t-18.5 36.5t-22 28t-30.5 11q-19 0 -31.5 -15t-12.5 -32q0 -16 7 -27t15.5 -20t15.5 -17t7 -17q0 -11 -8 -17
t-19 -6q-13 0 -22.5 10.5t-16 24.5t-9.5 29.5t-3 25.5q0 16 5 31.5t15 27.5t24 19t31 7q22 0 36.5 -9.5t26 -23.5t21 -30t20 -30t25 -23.5t35.5 -9.5q29 0 45 16t20.5 40.5t-1.5 52.5t-22 52.5t-41 40.5t-58 16h-65q-3 0 -16.5 7t-28.5 15.5t-28 16t-15 9.5q-11 11 -10 23
t9 19t20 7.5t24 -11.5q4 -4 10 -14t12.5 -20.5t13 -18t11.5 -6.5q4 3 13.5 11t21.5 19.5t26.5 25t28.5 27.5q33 32 72 71q5 5 13 3t14 -8.5t7.5 -15.5t-5.5 -16z" />
    <glyph glyph-name="iacute" unicode="&#xed;" horiz-adv-x="393" 
d="M250 0q-23 0 -38 10t-25 23q-11 14 -18 33q-9 -25 -31 -45.5t-50 -20.5q-37 0 -62.5 25.5t-25.5 62.5q0 36 25.5 61.5t62.5 25.5q32 0 54 -17.5t32 -42.5q3 -7 8.5 -18.5t14.5 -22t22 -18t31 -7.5q27 0 45 14.5t26 36t6.5 47t-12.5 47t-32 36t-51 14.5q-16 0 -23 8t-7 17
t6 17t17 8q36 0 63.5 -22t44 -54.5t20.5 -70.5t-5 -70.5t-33.5 -54.5t-64.5 -22zM144 100q0 21 -16.5 36t-39.5 15q-24 0 -40 -15t-16 -36t16 -36t40 -15q23 0 39.5 15t16.5 36z" />
    <glyph glyph-name="icircumflex" unicode="&#xee;" horiz-adv-x="406" 
d="M250 0q-23 0 -38 8.5t-25 19.5q-11 12 -18 28q-9 -25 -31 -40.5t-50 -15.5q-37 0 -62.5 25.5t-25.5 62.5q0 36 25.5 61.5t62.5 25.5q32 0 55.5 -20t30.5 -50q3 -7 8.5 -16.5t14.5 -18.5t22 -15t31 -6q29 0 47 16t25.5 40.5t4.5 53t-15 53t-32.5 41t-48.5 17.5h-7v23h7
q34 -1 60.5 -23t42 -54.5t20 -70.5t-5 -70t-33.5 -53.5t-65 -21.5zM144 100q0 21 -16.5 36t-39.5 15q-24 0 -40 -15t-16 -36t16 -36t40 -15q23 0 39.5 15t16.5 36z" />
    <glyph glyph-name="idieresis" unicode="&#xef;" horiz-adv-x="404" 
d="M250 0q-23 0 -38 8.5t-25 19.5q-11 12 -18 28q-9 -25 -31 -40.5t-50 -15.5q-37 0 -62.5 25.5t-25.5 62.5q0 36 25.5 61.5t62.5 25.5q32 0 55.5 -20t30.5 -50q3 -7 8.5 -16.5t14.5 -18.5t22 -15t31 -6q27 0 45 14.5t26 36t6.5 47t-12.5 47t-32 36t-51 14.5q-16 0 -23 8
t-7 17t6 17t17 8q36 0 63.5 -22t44 -54.5t20.5 -70.5t-5 -70.5t-33.5 -54.5t-64.5 -22zM144 100q0 21 -16.5 36t-39.5 15q-24 0 -40 -15t-16 -36t16 -36t40 -15q23 0 39.5 15t16.5 36z" />
    <glyph glyph-name="eth" unicode="&#xf0;" horiz-adv-x="393" 
d="M354 175q0 -31 -4.5 -62.5t-16.5 -56.5t-32 -40.5t-51 -15.5q-23 0 -38 10t-25 23q-11 14 -18 33q-9 -25 -31 -45.5t-50 -20.5q-37 0 -62.5 25.5t-25.5 62.5q0 36 25.5 61.5t62.5 25.5q32 0 54.5 -17.5t31.5 -43.5q3 -7 8.5 -18t14.5 -21.5t22 -18t31 -7.5q21 0 35.5 12
t24 30.5t14 40.5t4.5 43q0 47 -16.5 102.5t-45.5 103.5t-68.5 80.5t-86.5 32.5q-17 0 -24.5 8t-7.5 17t6.5 17t18.5 8q36 0 68.5 -17.5t60.5 -46t50.5 -66.5t38 -79t24 -82.5t8.5 -77.5zM144 100q0 21 -16 36t-39 15t-40 -15t-17 -36t17 -36t40 -15t39 15t16 36z" />
    <glyph glyph-name="ntilde" unicode="&#xf1;" horiz-adv-x="432" 
d="M268 0q-21 0 -37 10t-27 22q-12 14 -21 32q-10 -18 -22 -32q-11 -12 -26.5 -22t-36.5 -10q-34 0 -56 13t-32.5 32.5t-9.5 42t11.5 42t30.5 32.5t49 13q31 0 45 14.5t14 31.5t-12 31.5t-33 14.5t-36 -12t-15 -33q0 -12 -8.5 -18t-18 -5.5t-18 7.5t-8.5 19q0 16 8.5 28.5
t21.5 21.5t29 14t31 5q42 0 64.5 -22.5t24 -49t-20 -49t-68.5 -22.5q-29 0 -43.5 -16t-14 -35t16.5 -35t48 -16q21 0 35 10t23 22q10 14 16 33q0 2 2 4q4 4 9 4q4 0 8 -4q2 -2 3 -4q5 -19 16 -33q8 -12 22.5 -22t35.5 -10q27 0 44.5 14.5t26 36t7.5 47t-12 47t-32 36
t-52 14.5q-16 0 -23 8t-7 17t6 17t17 8q37 0 64.5 -22t43.5 -54.5t19.5 -70.5t-6 -70.5t-33.5 -54.5t-63 -22z" />
    <glyph glyph-name="ograve" unicode="&#xf2;" horiz-adv-x="405" 
d="M267 0q-21 0 -36.5 10t-26.5 22q-12 14 -21 32q-10 -18 -22 -32q-11 -12 -26.5 -22t-36.5 -10q-34 0 -56 13t-32.5 32.5t-9.5 42t11.5 42t30.5 32.5t49 13q31 0 45 14.5t14 31.5t-12 31.5t-33 14.5t-36 -12t-15 -33q0 -12 -8.5 -18t-18 -5.5t-18 7.5t-8.5 19
q0 16 8.5 28.5t21.5 21.5t29 14t31 5q42 0 64.5 -22.5t24 -49t-20 -49t-68.5 -22.5q-29 0 -43.5 -16t-14 -35t16.5 -35t48 -16q21 0 35 10t23 22q10 14 16 33q0 2 2 4q4 4 9 4q4 0 8 -4q2 -2 3 -4q6 -19 16 -33q8 -12 22 -22t35 -10q31 0 49.5 16t25.5 40.5t3.5 52.5
t-16 52.5t-33.5 40.5t-49 16q-15 0 -22 4t-7 9.5t6.5 9.5t18.5 4q37 0 64.5 -22t43.5 -54.5t19.5 -70.5t-6 -70.5t-33.5 -54.5t-64 -22z" />
    <glyph glyph-name="oacute" unicode="&#xf3;" horiz-adv-x="545" 
d="M491 128q0 -25 -7 -48t-20.5 -41t-34 -28.5t-46.5 -10.5q-20 0 -36 7.5t-28.5 20t-21.5 28t-15 31.5q-26 -47 -60.5 -67t-74.5 -20q-30 0 -57 11.5t-47 31.5t-31.5 47t-11.5 57t11.5 57t31.5 47t47 31.5t57 11.5q36 0 63.5 -13.5t46 -35t28 -47.5t9.5 -50q0 -4 -1 -18
t-1 -18q3 -9 9.5 -20t17 -20.5t26.5 -16t38 -6.5q18 0 32.5 9t25 24t16 34.5t5.5 39.5q0 15 -6.5 34.5t-21.5 36.5t-38 29t-56 12h-10q-6 0 -8.5 4t-2.5 9t3.5 9t9.5 4h11q36 0 63.5 -14t46 -37.5t28.5 -53.5t10 -61zM264 157q0 22 -9.5 42t-25.5 35t-37 24t-43 9
q-23 0 -44 -9t-37 -24t-25.5 -35t-9.5 -42q0 -24 10 -43.5t26.5 -34t37.5 -22.5t42 -8q22 0 43 8.5t37 23t25.5 34t9.5 42.5z" />
    <glyph glyph-name="ocircumflex" unicode="&#xf4;" horiz-adv-x="344" 
d="M294 147q0 -30 -11.5 -57t-31.5 -47t-46.5 -31.5t-57.5 -11.5q-30 0 -57 11.5t-47 31.5t-31.5 47t-11.5 57t11.5 57t31.5 47t47 31.5t57 11.5t57 -11.5t47 -31.5t31.5 -46.5t11.5 -57.5zM264 157q0 22 -9.5 42t-25.5 35t-37 24t-43 9q-23 0 -44 -9t-37 -24t-25.5 -35
t-9.5 -42q0 -24 10 -43.5t26.5 -34t37.5 -22.5t42 -8q22 0 43 8.5t37 23t25.5 34t9.5 42.5z" />
    <glyph glyph-name="otilde" unicode="&#xf5;" horiz-adv-x="401" 
d="M260 239q-16 0 -23 8t-7 17t6 17t17 8q33 0 56 -21.5t33 -53.5t6 -69.5t-24 -69.5t-57.5 -53.5t-94.5 -21.5q-36 0 -67.5 11.5t-55 32.5t-36.5 51t-13 66q0 23 8.5 46.5t23 43t34 31.5t42.5 12q32 0 50 -20t18 -46q0 -28 -20 -47.5t-48 -19.5q-20 0 -32.5 7.5t-19.5 17.5
t-10 20t-3 15q-7 -7 -10.5 -22.5t-2 -34.5t9.5 -39.5t24.5 -37t43 -27.5t64.5 -11q46 0 77 14t48.5 35t22 46t-1 46t-21 35t-37.5 14zM108 188q20 0 30 12t10 26t-10 26t-30 12q-16 0 -29.5 -8.5t-13.5 -12.5q0 -16 4 -28q4 -11 12.5 -19t26.5 -8z" />
    <glyph glyph-name="odieresis" unicode="&#xf6;" horiz-adv-x="411" 
d="M359 168q0 -30 -10 -60t-32.5 -54t-57.5 -39t-84 -15q-36 0 -68 11.5t-56 32.5t-37.5 51t-13.5 66q0 23 8.5 46.5t23 43t34 31.5t42.5 12q32 0 50 -20t18 -46q0 -28 -20 -47.5t-48 -19.5q-20 0 -32.5 7.5t-19.5 17.5t-10 20t-3 15q-7 -7 -10.5 -22.5t-1.5 -34.5
t10.5 -39.5t25.5 -37t43.5 -27.5t64.5 -11q42 0 72 11t49.5 28.5t28.5 39.5t9 44q0 16 -5 33.5t-14.5 31t-22.5 22.5t-29 9h-17q-5 0 -6 3.5t-1 8.5t1 9t7 4h15q22 0 40 -11t31 -28.5t19.5 -40t6.5 -45.5zM108 188q20 0 30 12t10 26t-10 26t-30 12q-16 0 -29.5 -8.5
t-13.5 -12.5q0 -16 4 -28q4 -11 12.5 -19t26.5 -8z" />
    <glyph glyph-name="divide" unicode="&#xf7;" horiz-adv-x="411" 
d="M360 125q0 -24 -7.5 -47t-21.5 -40t-34.5 -27.5t-46.5 -10.5q-23 0 -38 10t-25 22q-11 14 -18 33q-9 -19 -20 -33q-10 -12 -25.5 -22t-35.5 -10q-36 0 -62 25.5t-26 62.5q0 36 25.5 61.5t62.5 25.5q32 0 54.5 -18t31.5 -43q3 -7 8.5 -18t14.5 -21.5t22 -18t31 -7.5
q17 0 31.5 7t25.5 18t17.5 24.5t6.5 26.5q0 31 -10.5 57.5t-29.5 46t-45 30.5t-57 11h-67q-2 0 -12 7.5t-22.5 17.5t-23.5 19t-14 12q-11 11 -10 22.5t8.5 18.5t19.5 7t24 -12q3 -3 8 -14.5t9.5 -23.5t8.5 -21.5t7 -9.5q2 0 10 6.5t19.5 17t25.5 24.5t29 28q34 33 76 77
q5 5 13 2.5t14 -8.5t7.5 -14.5t-5.5 -15.5q-29 -22 -56 -43q-24 -18 -50.5 -38t-47.5 -35h32q34 0 64.5 -13.5t53.5 -36.5t36.5 -54t13.5 -65zM144 100q0 21 -16 36t-39 15t-40 -15t-17 -36t17 -36t40 -15t39 15t16 36z" />
    <glyph glyph-name="oslash" unicode="&#xf8;" horiz-adv-x="289" 
d="M242 224q0 -20 -10 -34t-24 -26q14 -17 22 -35.5t8 -38.5q0 -38 -21.5 -64t-59.5 -26q-32 0 -49.5 19t-17.5 50q0 18 7 32.5t18.5 26t25 21t26.5 18.5q-13 11 -28.5 18t-30.5 7q-33 0 -43.5 -12.5t-10.5 -28.5q0 -21 -8.5 -29t-18.5 -8t-18.5 7t-8.5 18q0 21 10 36
t25 25.5t33 15.5t33 5q23 0 46 -10.5t42 -27.5q11 9 18 19t7 22q0 14 -12 29t-27 15h-40l-9 26h49q12 0 24 -6.5t21.5 -16.5t15.5 -22.5t6 -24.5zM203 105q0 11 -4.5 22t-12.5 21q-20 -15 -37.5 -30t-17.5 -36q0 -18 11 -24t24.5 -2.5t25 16t11.5 33.5z" />
    <glyph glyph-name="ugrave" unicode="&#xf9;" horiz-adv-x="412" 
d="M404 -27q11 -11 6 -26t-25 -15q-16 0 -29 9t-21.5 23t-11.5 32t1 35q-13 -14 -31.5 -22.5t-42.5 -8.5q-23 0 -38 8.5t-25 19.5q-11 12 -18 28q-9 -16 -20 -28q-10 -11 -25.5 -19.5t-35.5 -8.5q-37 0 -62.5 25.5t-25.5 62.5q0 36 25.5 61.5t62.5 25.5q32 0 55 -20t29 -50
q3 -7 9 -16.5t15 -18.5t22.5 -15t31.5 -6q27 0 45 14.5t26 36t6.5 47t-12.5 47t-32 36t-51 14.5q-16 0 -23 8t-7 17t6 17t17 8q38 0 66 -23.5t44 -58.5t18.5 -74.5t-9.5 -72.5q0 -37 7 -53.5t17 -23t20 -8t16 -7.5zM144 100q0 21 -16.5 36t-39.5 15q-24 0 -40 -15t-16 -36
t16 -36t40 -15q23 0 39.5 15t16.5 36z" />
    <glyph glyph-name="uacute" unicode="&#xfa;" horiz-adv-x="385" 
d="M239 0q-25 0 -42 11t-28.5 28t-20.5 36.5t-18.5 36.5t-22 28t-30.5 11q-19 0 -31.5 -15t-12.5 -32q0 -16 7 -27t15.5 -20t15.5 -17t7 -17q0 -11 -8 -17t-19 -6q-13 0 -22.5 10.5t-16 24.5t-9.5 29.5t-3 25.5q0 16 5 31.5t15 27.5t24 19t31 7q22 0 36.5 -9.5t26 -23.5
t21 -30t20 -30t25 -23.5t35.5 -9.5q24 0 39.5 14.5t22.5 36t5.5 47t-10.5 47t-26 36t-41 14.5q-15 0 -22 8t-7 17t6 17t16 8q35 0 59.5 -22t38 -54.5t15.5 -70.5t-7.5 -70.5t-31.5 -54.5t-57 -22z" />
    <glyph glyph-name="ucircumflex" unicode="&#xfb;" horiz-adv-x="395" 
d="M239 0q-25 0 -42 11t-28.5 28t-20.5 36.5t-18.5 36.5t-22 28t-30.5 11q-19 0 -31.5 -15t-12.5 -32q0 -16 7 -27t15.5 -20t15.5 -17t7 -17q0 -11 -8 -17t-19 -6q-13 0 -22.5 10.5t-16 24.5t-9.5 29.5t-3 25.5q0 16 5 31.5t15 27.5t24 19t31 7q22 0 36.5 -9.5t26 -23.5
t21 -30t20 -30t25 -23.5t35.5 -9.5q29 0 45.5 18t20.5 44t-3.5 56t-26.5 54.5t-48.5 38.5t-69.5 8v25q48 5 84 -15t58.5 -52.5t31 -72t2 -73.5t-30 -57t-63.5 -23z" />
    <glyph glyph-name="udieresis" unicode="&#xfc;" horiz-adv-x="297" 
d="M246 220q0 -22 -8.5 -37t-22 -25.5t-31 -17.5t-34.5 -12q21 -10 35.5 -24.5t14.5 -39.5q0 -18 -8.5 -30.5t-21 -20t-26.5 -10.5t-26 -3q-14 0 -28 3.5t-25.5 11t-19 19.5t-7.5 30q0 23 11.5 37t29.5 24q-15 4 -29 9t-25 13t-18 20.5t-7 31.5q0 26 21.5 45.5t47.5 19.5
q21 0 37 -14.5t16 -35.5q0 -14 -6.5 -24t-17 -16t-23.5 -7.5t-25 0.5q13 -8 30 -14.5t35 -12.5q18 7 36.5 13.5t33.5 14.5t24 19.5t9 28.5q0 29 -18 40.5t-41 11.5h-20q-6 0 -9 4t-3 9t3 9t9 4h26q12 0 26 -4t26.5 -13t20.5 -23t8 -34zM99 214q0 13 -11 19.5t-24.5 5
t-24.5 -11t-11 -27.5v-4q7 -7 19.5 -9t23.5 0t19.5 9t8.5 18zM151 77q0 17 -11 25t-28 13q-19 -7 -31 -15.5t-12 -24.5t13 -24.5t28 -8.5t28 8.5t13 26.5z" />
    <glyph glyph-name="yacute" unicode="&#xfd;" horiz-adv-x="438" 
d="M305 151q0 -10 -7 -12q-4 -2 -7 -1h-122q-3 0 -6 2q-5 3 -5 10t5 10q3 2 6 2h95q-12 9 -21 20q-8 10 -14 23t-6 30q0 25 15.5 42t40.5 17q32 0 54 -22t33.5 -54.5t12 -70.5t-11 -70.5t-36 -54.5t-62.5 -22q-19 0 -33.5 7.5t-25.5 16.5q-12 11 -21 25q-10 -14 -22 -25
q-11 -9 -25.5 -16.5t-33.5 -7.5q-38 0 -62 22t-35.5 54.5t-10.5 70.5t12 70.5t32 54.5t50 22q24 0 43.5 -18.5t19.5 -43.5q0 -26 -18.5 -41.5t-44.5 -15.5q-18 0 -31.5 8t-27.5 22q-1 0 -4 -11.5t-4.5 -29t1 -37.5t11 -37.5t25 -29t44.5 -11.5q20 0 33.5 8t21.5 19
q10 11 15 27q0 2 2 4q4 4 9 4q4 0 8 -4q2 -2 3 -4q5 -16 15 -27q8 -11 21 -19t33 -8q29 0 47.5 15.5t28 38t9.5 49.5t-7.5 49.5t-23 38t-37.5 15.5q-11 0 -19 -11.5t-8 -22.5q0 -16 7 -25.5t16 -16.5t16 -13t7 -15zM130 231q0 12 -11 24t-25 12q-12 0 -21 -5t-15.5 -12
t-10 -14.5t-3.5 -11.5q6 -8 14 -14q7 -5 16 -9t20 -4q14 0 25 8t11 26z" />
    <glyph glyph-name="thorn" unicode="&#xfe;" horiz-adv-x="397" 
d="M347 175q0 -31 -5 -62.5t-17.5 -56.5t-33.5 -40.5t-52 -15.5q-27 0 -43.5 11t-28 28t-19.5 36.5t-17 36.5t-21.5 28t-32.5 11q-19 0 -31.5 -15t-12.5 -32q0 -16 7 -27t15.5 -20t15.5 -17t7 -17q0 -11 -8 -17t-19 -6q-13 0 -22.5 10.5t-16 24.5t-9.5 29.5t-3 25.5
q0 16 5 31.5t15 27.5t24 19t31 7q33 0 50.5 -19.5t31.5 -43.5t31 -43.5t51 -19.5q21 0 36 12t25.5 30.5t15.5 40.5t5 43q0 31 -7.5 67t-22 71.5t-34.5 68t-44.5 57.5t-53 40t-59.5 15q-17 0 -24.5 8t-7.5 17t6.5 17t18.5 8q36 0 69 -17.5t61.5 -46t51 -66.5t39 -79t25 -82.5
t8.5 -77.5z" />
    <glyph glyph-name="ydieresis" unicode="&#xff;" horiz-adv-x="422" 
d="M393 2q12 -13 7 -28t-24 -15q-30 0 -45 21.5t-10 52.5q-13 -15 -30.5 -24t-40.5 -9t-38 8.5t-25 19.5q-11 12 -18 28q-9 -25 -31 -40.5t-50 -15.5q-37 0 -62.5 25.5t-25.5 62.5q0 36 25.5 61.5t62.5 25.5q32 0 55.5 -20t30.5 -50q3 -7 8.5 -16.5t14.5 -18.5t22 -15t31 -6
q21 0 36 12t25.5 30.5t15.5 40.5t5 43q0 31 -7.5 67t-22 71.5t-34.5 68t-44.5 57.5t-53 40t-59.5 15q-17 0 -24.5 8t-7.5 17t6.5 17t18.5 8q36 0 69 -17.5t61.5 -46t51 -66.5t39 -79t25 -82.5t8.5 -77.5q0 -30 -3 -51.5t-7 -35.5q-4 -16 -9 -26q0 -32 7 -43.5t16 -14
t18 -0.5t13 -2zM144 100q0 21 -16 36t-39 15t-40 -15t-17 -36t17 -36t40 -15t39 15t16 36z" />
    <glyph glyph-name="less" horiz-adv-x="404" 
d="M160 417q46 1 81 -16.5t60 -46.5t39.5 -66.5t19.5 -77t0.5 -77.5t-17.5 -67.5t-34.5 -47.5t-51.5 -18q-19 0 -32 7.5t-21 16.5q-10 11 -15 25q-9 -14 -20 -25q-10 -9 -24.5 -16.5t-33.5 -7.5q-14 0 -27.5 6.5t-24 17t-16.5 24.5t-6 29q0 22 7.5 37.5t17.5 26.5
q11 12 25 20q-23 0 -37 -0.5t-22 0t-12.5 2.5t-8.5 6q-12 13 -4.5 29t24.5 16q26 -6 47 -11q18 -5 34 -10t19 -7q5 -5 5 -10t-2 -8q-3 -4 -7 -7q-16 -4 -27 -13q-10 -8 -18 -20t-8 -29q0 -21 13.5 -35.5t34.5 -14.5q20 0 32 8t18 19q7 11 10 27q0 2 2 4q4 4 9 4t9 -4
q2 -2 2 -4q1 -16 6 -27t15.5 -19t30.5 -8q23 0 39 13.5t25.5 34t13.5 43.5t4 41q0 30 -9 65t-28 65t-48 50t-69 20q11 -12 13.5 -31t-4 -37.5t-21.5 -32t-38 -13.5q-33 0 -50.5 19.5t-18 44.5t17 49t55.5 33q-27 27 -27 54q0 31 21 46.5t46 15.5t41.5 -16.5t16.5 -37.5
q0 -11 -9.5 -15t-18.5 4q-3 3 -5 7.5t-5 8.5t-8.5 7t-14.5 3q-17 0 -25.5 -11t-8.5 -22q0 -5 1 -12t3.5 -13t7 -10.5t11.5 -4.5zM154 381q-23 0 -37 -13t-17.5 -28t3.5 -28t27 -13q12 0 22 8t14.5 20t2.5 26.5t-15 27.5z" />
    <glyph glyph-name="tilde" 
d="M-64 341q0 -30 -21.5 -51.5t-51.5 -21.5h-57q-5 0 -11 3t-6 9t6 10t11 4h57q15 0 27.5 12.5t12.5 27.5q0 16 -12.5 26t-27.5 10h-161q-6 0 -13.5 7t-7.5 16q1 9 7 15.5t14 6.5h161q30 0 51.5 -21.5t21.5 -52.5z" />
    <glyph glyph-name="lozenge" unicode="&#x2dc;" 
d="M-48 341q0 -30 -21.5 -51.5t-51.5 -21.5h-57q-5 0 -11 3t-6 9t6 10t11 4h57q15 0 27.5 12.5t12.5 27.5q0 16 -12.5 26t-27.5 10h-161q-6 0 -13.5 7t-7.5 16q1 9 7 15.5t14 6.5h161q30 0 51.5 -21.5t21.5 -52.5z" />
    <glyph glyph-name="glyph224" unicode="&#x3c;" horiz-adv-x="404" 
d="M352 181q0 -36 -4.5 -68.5t-15 -57.5t-28.5 -40t-45 -15q-19 0 -32 9t-21 20q-10 13 -15 30q-6 -17 -16 -30q-9 -11 -23 -20t-34 -9q-35 0 -58 23.5t-23 54.5q0 23 7.5 38t17.5 26q11 11 26 20h-37t-22.5 0.5t-13 2.5t-8.5 6q-12 13 -4.5 29t24.5 16q26 -7 48 -12
q18 -5 34.5 -9.5t18.5 -6.5q9 -10 3 -19q-3 -4 -7 -7q-16 -5 -27 -13q-10 -8 -18 -19.5t-8 -29.5q0 -21 13.5 -36t39.5 -15q23 0 34 10t16 22q5 14 6 33q0 2 2 4q4 4 9 4q4 0 8 -4q2 -2 3 -4q1 -19 6 -33q5 -12 15 -22t30 -10q21 0 35 11t22 29t11 42t3 50q0 30 -9 65
t-28 65t-48 50t-69 20q11 -12 13.5 -31t-4 -37.5t-21.5 -32t-38 -13.5q-33 0 -51 19.5t-18 45.5t19.5 50t52.5 32q-12 13 -19 26t-7 27q0 31 21 46.5t46 15.5t41.5 -16.5t16.5 -37.5q0 -11 -9.5 -15t-18.5 4q-3 3 -5 7.5t-5 8.5t-8.5 7t-14.5 3q-17 0 -25.5 -11t-8.5 -22
t6.5 -21t16.5 -19q49 0 87 -21t63.5 -55t38.5 -76t13 -84zM144 381q-23 0 -37 -13t-17.5 -28t3.5 -28t27 -13q12 0 22 8t14.5 20t2.5 26.5t-15 27.5z" />
    <glyph glyph-name="percent" unicode="%" horiz-adv-x="633" 
d="M320 411q0 -30 -9.5 -54.5t-26 -42.5t-38 -27.5t-45.5 -9.5q-23 0 -43 11t-35 29t-23.5 40.5t-8.5 44.5q0 25 9.5 49t25.5 42.5t36.5 29.5t43.5 11q22 0 43 -11.5t36.5 -29t25 -39.5t9.5 -43zM487 526q-3 -6 -18 -31.5t-37.5 -63t-50.5 -83.5t-56.5 -93t-56 -91.5
t-49 -79t-35 -56t-14.5 -22.5l-9 -3l-18 9q1 3 13.5 24.5t33 55t46.5 76.5t53.5 88t54.5 89t49.5 80.5t38.5 62.5t21 34q8 12 14 10.5t20 -6.5zM507 222q26 -28 32 -61t-2.5 -63t-29 -54t-47 -35t-56.5 -5t-58 36q-26 28 -32 60.5t3 62.5t29.5 54.5t47 35.5t56 5t57.5 -36z
M254 401q0 20 -3.5 39t-10 34t-16 24.5t-21.5 9.5q-16 0 -25 -11.5t-14 -28t-6.5 -33.5t-1.5 -27q0 -19 2.5 -37.5t8.5 -33.5t15.5 -24.5t23.5 -9.5q12 0 21 8.5t15 22t9 31t3 36.5zM463 55q7 14 10.5 43.5t0.5 59.5t-14.5 53t-34.5 23q-13 0 -21.5 -8t-13.5 -19
q-7 -14 -10 -43.5t0.5 -59.5t14.5 -53t34 -23q13 0 21 8t13 19z" />
    <glyph glyph-name="macron" horiz-adv-x="163" 
d="M113 225q0 -16 -7 -31t-18.5 -26t-26.5 -18t-31 -7t-30.5 7t-25.5 18.5t-17.5 26t-6.5 30.5q0 12 4 22.5t15 21.5h-342q-6 1 -10 4q-4 2 -7 6t-3 11q0 6 3 10.5t7 6.5q4 3 10 5h403q38 0 60.5 -26.5t22.5 -60.5zM87 232q0 23 -16.5 37t-38.5 14t-38.5 -14.5t-16.5 -35.5
q0 -22 17.5 -34.5t39.5 -12.5q19 0 36 11.5t17 34.5z" />
    <glyph glyph-name="periodcentered" horiz-adv-x="64" 
d="M329 353q0 -31 -21.5 -52.5t-52.5 -21.5h-120q-5 0 -11 4t-6 10t6 9t11 3h120q16 0 28.5 13t12.5 28t-12.5 26t-28.5 11h-233q-6 0 -14 6t-8 15t7 15.5t15 6.5h233q31 0 52.5 -21.5t21.5 -51.5z" />
    <glyph glyph-name="c141" horiz-adv-x="46" 
d="M-176 267h-79q-5 0 -9.5 3.5t-4.5 9.5t4.5 9.5t9.5 3.5h79v-26z" />
    </font>
</defs>
</svg>
